<svg width="38" height="38" viewBox="0 0 38 38" fill="none" xmlns="http://www.w3.org/2000/svg">
<rect x="-0.00805664" y="0.193848" width="37.024" height="37.024" rx="10.68" fill="#F6F6F6"/>
<path d="M18.4657 14.6696C16.2546 14.6696 14.4711 16.453 14.4711 18.6641C14.4711 20.8752 16.2546 22.6587 18.4657 22.6587C20.6768 22.6587 22.4603 20.8752 22.4603 18.6641C22.4603 16.453 20.6768 14.6696 18.4657 14.6696ZM18.4657 21.2611C17.0368 21.2611 15.8687 20.0965 15.8687 18.6641C15.8687 17.2318 17.0334 16.0671 18.4657 16.0671C19.898 16.0671 21.0627 17.2318 21.0627 18.6641C21.0627 20.0965 19.8946 21.2611 18.4657 21.2611ZM23.5554 14.5062C23.5554 15.0242 23.1382 15.4379 22.6237 15.4379C22.1057 15.4379 21.692 15.0207 21.692 14.5062C21.692 13.9916 22.1091 13.5744 22.6237 13.5744C23.1382 13.5744 23.5554 13.9916 23.5554 14.5062ZM26.2011 15.4518C26.142 14.2037 25.8569 13.0982 24.9425 12.1873C24.0317 11.2764 22.9261 10.9914 21.678 10.9288C20.3917 10.8558 16.5362 10.8558 15.2499 10.9288C14.0053 10.9879 12.8997 11.273 11.9854 12.1838C11.0711 13.0947 10.7895 14.2002 10.7269 15.4483C10.6539 16.7346 10.6539 20.5901 10.7269 21.8765C10.786 23.1246 11.0711 24.2301 11.9854 25.141C12.8997 26.0518 14.0018 26.3369 15.2499 26.3995C16.5362 26.4725 20.3917 26.4725 21.678 26.3995C22.9261 26.3404 24.0317 26.0553 24.9425 25.141C25.8534 24.2301 26.1385 23.1246 26.2011 21.8765C26.2741 20.5901 26.2741 16.7381 26.2011 15.4518ZM24.5393 23.2567C24.2681 23.9381 23.7431 24.463 23.0582 24.7377C22.0327 25.1444 19.5991 25.0506 18.4657 25.0506C17.3323 25.0506 14.8953 25.141 13.8732 24.7377C13.1918 24.4665 12.6668 23.9416 12.3921 23.2567C11.9854 22.2311 12.0793 19.7975 12.0793 18.6641C12.0793 17.5308 11.9889 15.0937 12.3921 14.0716C12.6633 13.3902 13.1883 12.8652 13.8732 12.5906C14.8988 12.1838 17.3323 12.2777 18.4657 12.2777C19.5991 12.2777 22.0361 12.1873 23.0582 12.5906C23.7396 12.8617 24.2646 13.3867 24.5393 14.0716C24.946 15.0972 24.8521 17.5308 24.8521 18.6641C24.8521 19.7975 24.946 22.2346 24.5393 23.2567Z" fill="#2A2F2F"/>
</svg>
