<svg width="38" height="38" viewBox="0 0 38 38" fill="none" xmlns="http://www.w3.org/2000/svg">
<rect x="0.976074" y="0.193848" width="37.024" height="37.024" rx="10.68" fill="#F6F6F6"/>
<path d="M15.8389 15.4379V24.4658H13.4276V15.4379H15.8389ZM13.2774 13.0849C13.2774 12.7345 13.3998 12.4453 13.6445 12.2172C13.8893 11.9891 14.2175 11.8751 14.6291 11.8751C15.0351 11.8751 15.3605 11.9891 15.6053 12.2172C15.8556 12.4453 15.9808 12.7345 15.9808 13.0849C15.9808 13.4354 15.8556 13.7246 15.6053 13.9527C15.3605 14.1808 15.0351 14.2948 14.6291 14.2948C14.2175 14.2948 13.8893 14.1808 13.6445 13.9527C13.3998 13.7246 13.2774 13.4354 13.2774 13.0849ZM20.5194 17.3653V24.4658H18.1164V15.4379H20.3692L20.5194 17.3653ZM20.169 19.6348H19.5182C19.5182 18.9673 19.6044 18.3665 19.7768 17.8325C19.9493 17.293 20.1912 16.8341 20.5027 16.4558C20.8142 16.072 21.1841 15.78 21.6125 15.5797C22.0463 15.3739 22.5303 15.271 23.0643 15.271C23.487 15.271 23.8736 15.3322 24.2241 15.4546C24.5745 15.5769 24.8749 15.7716 25.1252 16.0386C25.3811 16.3056 25.5757 16.6589 25.7092 17.0983C25.8483 17.5377 25.9178 18.0745 25.9178 18.7086V24.4658H23.4981V18.7003C23.4981 18.2998 23.4425 17.9883 23.3313 17.7658C23.22 17.5433 23.0559 17.3875 22.839 17.2985C22.6276 17.204 22.3662 17.1567 22.0547 17.1567C21.7321 17.1567 21.4511 17.2207 21.212 17.3486C20.9783 17.4765 20.7836 17.6545 20.6279 17.8826C20.4777 18.1051 20.3637 18.3665 20.2858 18.6669C20.2079 18.9673 20.169 19.2899 20.169 19.6348Z" fill="#2A2F2F"/>
</svg>
