<svg width="38" height="38" viewBox="0 0 38 38" fill="none" xmlns="http://www.w3.org/2000/svg">
<rect x="0.983887" y="0.193848" width="37.024" height="37.024" rx="10.68" fill="#F6F6F6"/>
<path d="M28.3463 15.1888C28.3576 15.347 28.3576 15.5051 28.3576 15.6632C28.3576 20.4859 24.6869 26.0428 17.978 26.0428C15.9111 26.0428 13.9911 25.4441 12.376 24.4051C12.6696 24.439 12.952 24.4503 13.2569 24.4503C14.9624 24.4503 16.5323 23.8743 17.786 22.8916C16.1822 22.8578 14.8381 21.8074 14.3751 20.3617C14.601 20.3955 14.8268 20.4181 15.0641 20.4181C15.3916 20.4181 15.7191 20.3729 16.0241 20.2939C14.3525 19.9551 13.0988 18.4868 13.0988 16.7136V16.6684C13.5844 16.9395 14.1492 17.1089 14.7478 17.1315C13.7651 16.4764 13.1214 15.3583 13.1214 14.0933C13.1214 13.4156 13.3021 12.7944 13.6183 12.2523C15.4141 14.466 18.1135 15.9117 21.1404 16.0698C21.0839 15.7987 21.05 15.5164 21.05 15.234C21.05 13.2236 22.6764 11.5859 24.6981 11.5859C25.7485 11.5859 26.6972 12.0264 27.3636 12.738C28.1881 12.5799 28.9787 12.2749 29.679 11.857C29.4079 12.7041 28.8319 13.4157 28.0752 13.8674C28.8093 13.7884 29.5209 13.585 30.1759 13.3027C29.679 14.0255 29.0578 14.6693 28.3463 15.1888Z" fill="#2A2F2F"/>
</svg>
