<svg width="154" height="52" viewBox="0 0 154 52" fill="none" xmlns="http://www.w3.org/2000/svg">
<path d="M153.762 37.6936C153.762 45.1514 147.652 51.2615 140.194 51.2615H13.5679C6.11003 51.2615 0 45.1514 0 37.6936V13.5679C0 6.11006 6.11003 0 13.5679 0H140.194C147.652 0 153.762 6.11006 153.762 13.5679V37.6936Z" fill="#404040"/>
<path d="M58.5246 18.8496L57.8746 17.2496H54.8546L54.2046 18.8496H53.4046L56.0746 12.3496H56.6546L59.3246 18.8496H58.5246ZM55.1346 16.5496H57.5846L56.3546 13.5196L55.1346 16.5496ZM60.9732 18.8496L59.1632 14.2496H59.9132L61.3332 17.8596L62.7632 14.2496H63.5132L61.6832 18.8496H60.9732ZM67.9833 14.2496H68.7133V18.8496H67.9833V18.0196C67.6333 18.5696 67.0533 18.9296 66.2733 18.9296C64.9633 18.9296 64.0333 17.9196 64.0333 16.5496C64.0333 15.1696 64.9633 14.1796 66.2733 14.1796C67.0533 14.1796 67.6333 14.5296 67.9833 15.0796V14.2496ZM66.3633 18.2396C67.3533 18.2396 67.9833 17.5296 67.9833 16.5496C67.9833 15.5696 67.3533 14.8696 66.3633 14.8696C65.3833 14.8696 64.7333 15.5696 64.7333 16.5496C64.7333 17.5296 65.3833 18.2396 66.3633 18.2396ZM70.4043 13.2696C70.1843 13.2696 69.9643 13.0896 69.9643 12.8196C69.9643 12.5496 70.1843 12.3896 70.4043 12.3896C70.6243 12.3896 70.8443 12.5496 70.8443 12.8196C70.8443 13.0896 70.6243 13.2696 70.4043 13.2696ZM70.7643 18.8496H70.0443V14.2496H70.7743L70.7643 18.8496ZM72.823 18.8496H72.103V12.3496H72.823V18.8496ZM77.8954 14.2496H78.6254V18.8496H77.8954V18.0196C77.5454 18.5696 76.9654 18.9296 76.1854 18.9296C74.8754 18.9296 73.9454 17.9196 73.9454 16.5496C73.9454 15.1696 74.8754 14.1796 76.1854 14.1796C76.9654 14.1796 77.5454 14.5296 77.8954 15.0796V14.2496ZM76.2754 18.2396C77.2654 18.2396 77.8954 17.5296 77.8954 16.5496C77.8954 15.5696 77.2654 14.8696 76.2754 14.8696C75.2954 14.8696 74.6454 15.5696 74.6454 16.5496C74.6454 17.5296 75.2954 18.2396 76.2754 18.2396ZM82.3064 14.1796C83.6164 14.1796 84.5564 15.1696 84.5564 16.5496C84.5564 17.9196 83.6164 18.9296 82.3064 18.9296C81.5264 18.9296 80.9464 18.5696 80.5964 18.0196V18.8496H79.8764V12.3496H80.5964V15.0796C80.9464 14.5296 81.5264 14.1796 82.3064 14.1796ZM82.2164 18.2396C83.1964 18.2396 83.8464 17.5296 83.8464 16.5496C83.8464 15.5696 83.1964 14.8696 82.2164 14.8696C81.2364 14.8696 80.5964 15.5696 80.5964 16.5496C80.5964 17.5296 81.2364 18.2396 82.2164 18.2396ZM86.3875 18.8496H85.6675V12.3496H86.3875V18.8496ZM89.7799 14.1696C91.0999 14.1696 91.9799 15.1796 91.9799 16.5496V16.7796H88.2099C88.2999 17.6996 88.9299 18.3096 89.8399 18.3096C90.5199 18.3096 90.9899 17.9996 91.2499 17.6096L91.7599 17.9796C91.3599 18.5696 90.6799 18.9396 89.8399 18.9396C88.4399 18.9396 87.5099 17.9196 87.5099 16.5496C87.5099 15.1796 88.3999 14.1696 89.7799 14.1696ZM89.7799 14.7696C88.8799 14.7696 88.3099 15.3796 88.2099 16.2796H91.3099C91.2099 15.4096 90.6399 14.7696 89.7799 14.7696ZM97.301 18.9396C95.921 18.9396 94.961 17.9196 94.961 16.5496C94.961 15.1696 95.921 14.1696 97.301 14.1696C98.681 14.1696 99.641 15.1696 99.641 16.5496C99.641 17.9196 98.681 18.9396 97.301 18.9396ZM97.301 18.2396C98.271 18.2396 98.911 17.5196 98.911 16.5496C98.911 15.5796 98.271 14.8696 97.301 14.8696C96.331 14.8696 95.681 15.5796 95.681 16.5496C95.681 17.5196 96.331 18.2396 97.301 18.2396ZM102.955 14.1796C103.875 14.1796 104.785 14.7196 104.785 16.0196V18.8496H104.065V16.1196C104.065 15.2396 103.445 14.8096 102.765 14.8096C102.075 14.8096 101.475 15.2396 101.475 16.1196V18.8496H100.755V14.2496H101.475V14.8696C101.825 14.3896 102.385 14.1796 102.955 14.1796ZM110.22 14.8196H109.12V17.6496C109.12 18.1396 109.42 18.2596 109.76 18.2596H110.17V18.8496H109.5C108.8 18.8496 108.39 18.4496 108.39 17.7496V14.8196H107.75V14.2496H108.39V12.8496H109.12V14.2496H110.22V14.8196ZM113.414 14.1796C114.334 14.1796 115.244 14.7196 115.244 16.0196V18.8496H114.524V16.1196C114.524 15.2396 113.904 14.8096 113.224 14.8096C112.534 14.8096 111.934 15.2396 111.934 16.1196V18.8496H111.214V12.3496H111.934V14.8696C112.284 14.3896 112.844 14.1796 113.414 14.1796ZM118.637 14.1696C119.957 14.1696 120.837 15.1796 120.837 16.5496V16.7796H117.067C117.157 17.6996 117.787 18.3096 118.697 18.3096C119.377 18.3096 119.847 17.9996 120.107 17.6096L120.617 17.9796C120.217 18.5696 119.537 18.9396 118.697 18.9396C117.297 18.9396 116.367 17.9196 116.367 16.5496C116.367 15.1796 117.257 14.1696 118.637 14.1696ZM118.637 14.7696C117.737 14.7696 117.167 15.3796 117.067 16.2796H120.167C120.067 15.4096 119.497 14.7696 118.637 14.7696Z" fill="white"/>
<path d="M60.4718 40.0007L59.3018 37.1207H53.8658L52.6958 40.0007H51.2558L56.0618 28.3007H57.1058L61.9118 40.0007H60.4718ZM54.3698 35.8607H58.7798L56.5658 30.4067L54.3698 35.8607ZM67.8417 31.5947C70.1997 31.5947 71.8917 33.4127 71.8917 35.8787C71.8917 38.3627 70.1997 40.1447 67.8417 40.1447C66.4377 40.1447 65.3937 39.5147 64.7637 38.5067V43.3127H63.4677V31.7207H64.7637V33.2327C65.3937 32.2247 66.4377 31.5947 67.8417 31.5947ZM67.6797 38.9027C69.4437 38.9027 70.6137 37.6427 70.6137 35.8787C70.6137 34.1147 69.4437 32.8367 67.6797 32.8367C65.9157 32.8367 64.7637 34.1147 64.7637 35.8787C64.7637 37.6427 65.9157 38.9027 67.6797 38.9027ZM78.2655 31.5947C80.6235 31.5947 82.3155 33.4127 82.3155 35.8787C82.3155 38.3627 80.6235 40.1447 78.2655 40.1447C76.8615 40.1447 75.8175 39.5147 75.1875 38.5067V43.3127H73.8915V31.7207H75.1875V33.2327C75.8175 32.2247 76.8615 31.5947 78.2655 31.5947ZM78.1035 38.9027C79.8675 38.9027 81.0375 37.6427 81.0375 35.8787C81.0375 34.1147 79.8675 32.8367 78.1035 32.8367C76.3395 32.8367 75.1875 34.1147 75.1875 35.8787C75.1875 37.6427 76.3395 38.9027 78.1035 38.9027ZM87.5588 37.4987L88.6748 36.7607C89.0888 37.8587 90.5288 38.8487 92.4728 38.8487C94.4888 38.8487 95.3348 38.0927 95.3348 36.7427C95.3348 35.2127 93.0488 34.8527 91.9868 34.5467C90.8528 34.2407 87.9728 33.7547 87.9728 31.3427C87.9728 29.1467 89.8448 28.1027 92.3468 28.1027C94.5068 28.1027 96.2348 29.1467 96.6668 30.4247L95.5508 31.0907C95.2268 30.2267 93.8948 29.4527 92.2028 29.4527C90.4568 29.4527 89.5028 30.1367 89.5028 31.2887C89.5028 32.7287 91.5908 33.0347 92.7428 33.3407C93.7868 33.6467 96.8288 34.2587 96.8288 36.6887C96.8288 38.9927 95.1548 40.1987 92.3468 40.1987C89.8268 40.1987 88.1168 39.0287 87.5588 37.4987ZM102.635 32.7467H100.655V37.8407C100.655 38.7227 101.195 38.9387 101.807 38.9387H102.545V40.0007H101.339C100.079 40.0007 99.3414 39.2807 99.3414 38.0207V32.7467H98.1894V31.7207H99.3414V29.2007H100.655V31.7207H102.635V32.7467ZM107.963 40.1627C105.479 40.1627 103.751 38.3267 103.751 35.8607C103.751 33.3767 105.479 31.5767 107.963 31.5767C110.447 31.5767 112.175 33.3767 112.175 35.8607C112.175 38.3267 110.447 40.1627 107.963 40.1627ZM107.963 38.9027C109.709 38.9027 110.861 37.6067 110.861 35.8607C110.861 34.1147 109.709 32.8367 107.963 32.8367C106.217 32.8367 105.047 34.1147 105.047 35.8607C105.047 37.6067 106.217 38.9027 107.963 38.9027ZM115.477 33.2507C116.107 32.1167 117.223 31.6127 118.393 31.5947V32.8367C117.115 32.8547 115.477 33.5207 115.477 35.5367V40.0007H114.181V31.7207H115.477V33.2507ZM123.323 31.5767C125.699 31.5767 127.283 33.3947 127.283 35.8607V36.2747H120.497C120.659 37.9307 121.793 39.0287 123.431 39.0287C124.655 39.0287 125.501 38.4707 125.969 37.7687L126.887 38.4347C126.167 39.4967 124.943 40.1627 123.431 40.1627C120.911 40.1627 119.237 38.3267 119.237 35.8607C119.237 33.3947 120.839 31.5767 123.323 31.5767ZM123.323 32.6567C121.703 32.6567 120.677 33.7547 120.497 35.3747H126.077C125.897 33.8087 124.871 32.6567 123.323 32.6567Z" fill="white"/>
<path d="M26.9333 10.7375H11.0293C9.72638 10.7375 8.67059 11.7933 8.67059 13.0962V40.0073C8.67059 41.3102 9.72638 42.366 11.0293 42.366H26.9333C28.2362 42.366 29.292 41.3102 29.292 40.0073V13.0962C29.292 11.8158 28.2138 10.7375 26.9333 10.7375Z" fill="white"/>
<path d="M28.1464 14.5339H9.79376V36.7278H28.1464V14.5339Z" fill="#404040"/>
<path d="M22.7328 12.1523H15.2075C14.9155 12.1523 14.6459 12.3994 14.6459 12.7139C14.6459 13.0284 14.893 13.2755 15.2075 13.2755H22.7328C23.0248 13.2755 23.2944 13.0284 23.2944 12.7139C23.2944 12.4219 23.0473 12.1523 22.7328 12.1523Z" fill="#6639A6"/>
<path d="M17.1845 39.4008C17.1845 38.4124 17.9932 37.5813 18.9816 37.5813C19.97 37.5813 20.8011 38.39 20.8011 39.4008C20.8011 40.3892 19.9924 41.1979 18.9816 41.1979C17.9932 41.2203 17.1845 40.4117 17.1845 39.4008Z" fill="#6639A6"/>
</svg>
