<svg width="38" height="38" viewBox="0 0 38 38" fill="none" xmlns="http://www.w3.org/2000/svg">
<rect x="0.983994" width="37.024" height="37.024" rx="10.68" fill="#F6F6F6"/>
<path d="M28.3464 14.9947C28.3577 15.1529 28.3577 15.311 28.3577 15.4691C28.3577 20.2918 24.687 25.8487 17.9781 25.8487C15.9113 25.8487 13.9912 25.25 12.3761 24.211C12.6698 24.2449 12.9521 24.2562 13.2571 24.2562C14.9625 24.2562 16.5324 23.6802 17.7861 22.6976C16.1823 22.6637 14.8383 21.6133 14.3752 20.1676C14.6011 20.2015 14.827 20.2241 15.0642 20.2241C15.3917 20.2241 15.7193 20.1789 16.0242 20.0998C14.3526 19.761 13.0989 18.2927 13.0989 16.5195V16.4743C13.5846 16.7454 14.1493 16.9148 14.7479 16.9374C13.7653 16.2823 13.1215 15.1642 13.1215 13.8992C13.1215 13.2215 13.3022 12.6003 13.6185 12.0582C15.4143 14.2719 18.1137 15.7176 21.1405 15.8757C21.0841 15.6046 21.0502 15.3223 21.0502 15.0399C21.0502 13.0295 22.6766 11.3918 24.6983 11.3918C25.7486 11.3918 26.6974 11.8323 27.3637 12.5439C28.1882 12.3858 28.9788 12.0808 29.6791 11.6629C29.408 12.51 28.832 13.2216 28.0753 13.6733C28.8094 13.5943 29.521 13.3909 30.176 13.1086C29.6792 13.8314 29.0579 14.4752 28.3464 14.9947Z" fill="#2A2F2F"/>
</svg>
