<svg width="44" height="44" viewBox="0 0 44 44" fill="none" xmlns="http://www.w3.org/2000/svg">
<rect width="44" height="44" rx="8" fill="#F6F6F6"/>
<path d="M14.5 15.3333H15.0053C15.8558 15.3333 16.5699 15.9738 16.6621 16.8193L17.3379 23.0141C17.4301 23.8596 18.1442 24.5 18.9947 24.5H26.205C26.9669 24.5 27.6317 23.9834 27.82 23.2452L28.9699 18.7359C29.2387 17.6821 28.4425 16.6574 27.355 16.6574H17.5M17.5206 27.5208H18.1456M17.5206 28.1458H18.1456M26.6873 27.5208H27.3123M26.6873 28.1458H27.3123M18.6667 27.8333C18.6667 28.2936 18.2936 28.6667 17.8333 28.6667C17.3731 28.6667 17 28.2936 17 27.8333C17 27.3731 17.3731 27 17.8333 27C18.2936 27 18.6667 27.3731 18.6667 27.8333ZM27.8333 27.8333C27.8333 28.2936 27.4602 28.6667 27 28.6667C26.5398 28.6667 26.1667 28.2936 26.1667 27.8333C26.1667 27.3731 26.5398 27 27 27C27.4602 27 27.8333 27.3731 27.8333 27.8333Z" stroke="#807D7E" stroke-width="1.5" stroke-linecap="round"/>
</svg>
