<svg width="93" height="45" viewBox="0 0 93 45" fill="none" xmlns="http://www.w3.org/2000/svg">
<path d="M3.89234 27.3907C4.15846 27.3408 4.45785 27.3076 4.7905 27.3076C4.8404 25.5611 5.83835 22.6671 6.90284 19.6732C5.90488 19.5235 5.05662 19.5235 4.54101 19.8728C4.17509 18.4257 5.5556 18.143 7.45171 18.1763C8.43304 15.3986 9.3811 12.6875 9.58069 10.8745C8.00059 10.7747 6.60345 10.9411 5.72192 11.939C5.43917 12.2384 4.67407 8.46282 8.13365 7.83078C10.9446 7.31517 16.9323 9.61047 18.8118 6.96588C19.0945 6.58333 19.3274 10.0429 17.4479 10.9743C16.2504 11.5565 14.6703 11.49 13.0236 11.2904C12.7908 12.8871 11.9259 15.5317 11.0277 18.4091C12.9904 18.5422 14.7202 18.5255 15.0861 17.5941C15.6682 21.0703 13.19 20.9539 10.429 20.3884C9.66385 22.9498 8.94865 25.5445 8.68253 27.6568C11.0943 27.9396 13.506 28.0394 14.5705 26.5258C14.8532 26.1433 15.0861 29.6029 13.2066 30.5177C9.91334 32.1476 3.84244 28.8211 1.48061 31.4823C1.19785 31.7817 0.432754 28.0061 3.89234 27.3907ZM17.9136 17.1617C17.897 17.0951 21.5894 16.7625 21.5229 18.8915C21.473 20.2553 18.2795 27.241 18.9448 29.4864C20.5748 27.4074 24.916 17.1617 24.916 17.1617C24.8993 17.0951 28.5918 16.7625 28.5086 18.8915C28.4587 20.272 25.6644 25.8439 25.9472 29.5862C27.2279 28.239 28.7747 24.5299 29.0575 23.8313C29.0907 23.7648 29.1573 23.7316 29.2238 23.7316C29.3569 23.7316 29.44 23.848 29.4068 23.9644C29.0076 25.1952 27.3443 30.2682 26.4794 30.7838C25.4815 31.3992 22.7703 30.368 22.5209 29.2369C22.0385 27.1412 24.0677 22.1515 24.7496 19.141C23.419 22.6172 20.342 30.4179 19.2775 30.8836C18.2962 31.2994 15.635 30.4511 15.4187 29.1205C15.0196 26.7088 18.4292 19.0911 17.9136 17.1617ZM25.3151 38.9171C24.6332 34.7257 30.9869 20.6213 30.3215 17.1284C30.3049 17.0619 34.147 17.1284 33.9142 19.2407C33.698 21.2533 30.8372 29.187 29.4899 35.0916C31.9016 26.1433 36.5421 17.6773 37.2573 17.2615C37.906 16.8789 39.9019 17.4444 40.7169 18.8748C41.8147 20.8042 39.4861 30.1185 35.6273 30.9002C34.7625 31.0832 32.7166 29.8025 32.3008 29.2868C30.8704 32.9626 29.5398 37.0709 28.9078 40.8631C28.8246 41.2623 25.5979 40.6469 25.3151 38.9171ZM37.6066 18.3093C37.3904 18.2262 34.829 22.8667 32.4838 28.8045C35.5608 30.5343 38.3884 18.6253 37.6066 18.3093ZM40.3843 28.9875C39.7023 24.7794 46.1392 10.1926 45.7067 7.08231C45.6901 7.01578 49.2162 7.19874 48.9833 9.31108C48.7505 11.49 45.3741 20.6712 44.243 26.6589C45.8564 22.6671 48.6673 16.9621 50.2807 17.1118C51.2121 17.1949 53.0916 18.0765 53.2579 18.642C53.7236 20.2054 50.4636 27.3408 50.3971 29.7027C51.6944 28.4552 53.3244 24.5465 53.6072 23.8313C53.6405 23.7648 53.707 23.7316 53.7735 23.7316C53.9066 23.7316 53.9897 23.848 53.9565 23.9644C53.5573 25.1952 51.7277 30.8337 50.9959 30.9335C49.5488 31.1331 47.1038 30.0852 46.9043 28.7712C46.6548 26.9915 49.4989 21.22 49.7817 18.4257C48.9501 18.2927 43.9437 28.3055 43.9769 30.8836C44.0767 31.3493 40.6837 30.7505 40.3843 28.9875ZM53.4076 28.7546C52.4263 25.977 54.6551 19.0245 57.1666 17.4112C58.0315 16.8457 60.3767 16.9953 61.1251 17.4943C61.7738 17.9101 61.358 18.3093 61.358 18.3093C58.6469 17.0452 55.4534 28.8211 56.7009 29.9688C58.1479 31.2994 61.5909 20.405 59.5118 19.9726C59.5118 19.9726 60.4765 18.6087 61.3081 18.7085C64.1855 19.0911 62.0067 28.871 57.9816 30.7671C56.8838 31.2828 54.2725 31.183 53.4076 28.7546ZM62.1231 29.1538C61.6906 26.5092 64.9673 19.0578 64.435 17.1284C64.4184 17.0619 68.3104 16.7625 68.2439 18.8915C68.194 20.089 66.0817 24.4468 65.7157 28.0228C66.9798 24.0975 69.8739 16.9454 71.6702 17.1118C72.6016 17.1949 74.2316 17.96 74.398 18.5089C74.6142 19.2407 72.3854 22.7336 72.9842 24.8958C68.0277 24.6796 71.2378 19.0744 71.1712 18.4257C70.3396 18.2927 65.8821 28.2057 65.8987 30.8004C65.9153 30.9002 65.7989 30.9667 65.7157 30.9501C65.0005 30.8669 62.3393 30.4844 62.1231 29.1538ZM79.3545 16.8623C74.5975 16.2302 77.6247 13.5524 77.4251 11.7893C82.5812 12.621 78.9387 14.4007 79.3545 16.8623ZM72.9676 29.1538C72.5018 26.609 75.9282 19.0578 75.4125 17.1284C75.3959 17.0619 79.2547 16.7625 79.1881 18.8915C79.1383 20.272 76.3772 25.7607 76.6101 29.5031C77.8742 28.0893 79.3711 24.5133 79.6539 23.8313C79.6705 23.7648 79.737 23.7316 79.8202 23.7316C79.9366 23.7316 80.0198 23.848 79.9865 23.9644C79.604 25.1952 77.791 30.5177 76.9926 30.9002C76.1776 31.2661 73.1838 30.4012 72.9676 29.1538ZM82.9139 30.8836C82.3151 31.2994 79.6206 30.5676 79.0052 29.4532C78.2068 28.0228 80.2027 20.7709 82.0323 18.4257C83.4627 16.6128 86.5564 17.0619 87.2882 17.4943C87.4712 17.5941 87.5377 17.6939 87.4379 17.9767C87.3215 18.2927 87.0886 18.2262 86.7227 18.1264C84.8599 17.644 82.0656 27.8564 82.2486 29.9355L88.1864 17.2947C88.386 16.7459 91.9121 17.6606 91.5794 18.3592C91.2468 19.0578 88.8184 27.3408 88.7519 29.7027C90.0492 28.4552 91.6959 24.5465 91.9786 23.8313C92.0119 23.7648 92.0784 23.7316 92.145 23.7316C92.2614 23.7316 92.3612 23.848 92.3113 23.9644C91.9287 25.1952 90.0991 30.8337 89.3673 30.9335C87.9036 31.1331 85.4586 30.0852 85.2757 28.7712C85.1094 27.6568 86.0242 24.2139 86.8724 21.3864C85.4087 25.1786 83.2465 30.6507 82.9139 30.8836Z" fill="#3C4242"/>
<path d="M1 33.6259H23.4033" stroke="#333333" stroke-width="0.420324" stroke-miterlimit="10" stroke-linecap="round" stroke-linejoin="round"/>
<path d="M32.9857 33.6259H92.0361" stroke="#3C4242" stroke-width="0.420324" stroke-miterlimit="10" stroke-linecap="round" stroke-linejoin="round"/>
<path d="M40.9504 41.2617C40.7868 41.2617 40.5979 41.1972 40.382 41.0689C40.1669 40.9398 39.938 40.7693 39.6968 40.5565C39.4556 40.3438 39.2183 40.1126 38.984 39.8621C38.7505 39.6125 38.5347 39.3636 38.338 39.1155C38.1414 38.8682 37.9762 38.6477 37.8426 38.4549L36.7626 40.7862C36.7103 40.8999 36.6289 40.9805 36.5175 41.0274C36.4061 41.0743 36.2856 41.1027 36.1557 41.1127C36.0259 41.1227 35.8976 41.1273 35.7717 41.1273C35.8677 40.989 35.9668 40.83 36.0666 40.6518C36.1673 40.4736 36.2856 40.2585 36.423 40.0058C36.5605 39.7531 36.7219 39.4466 36.9077 39.0848C37.0936 38.7238 37.3141 38.2913 37.5706 37.789C37.8264 37.2866 38.1291 36.6967 38.4786 36.0184C38.5009 35.9785 38.5308 35.9232 38.5677 35.8517C38.6046 35.7803 38.6238 35.7142 38.6238 35.6551C38.6238 35.6005 38.6053 35.5575 38.5677 35.5253C38.5308 35.493 38.4601 35.4769 38.3564 35.4769C38.1782 35.4769 38.0054 35.5253 37.8387 35.6213C37.672 35.7173 37.523 35.8402 37.3932 35.9892C37.2634 36.1375 37.1612 36.2911 37.0867 36.4493C37.0122 36.6076 36.9753 36.7489 36.9753 36.8726C36.9753 36.967 36.9938 37.0508 37.0306 37.1253C36.7856 37.1253 36.6128 37.0846 36.5129 37.0032C36.4123 36.9217 36.3624 36.8211 36.3624 36.702C36.3624 36.5338 36.4361 36.3656 36.5851 36.1974C36.7334 36.0292 36.9246 35.874 37.1589 35.7334C37.3932 35.5921 37.6382 35.4799 37.894 35.3954C38.1498 35.3117 38.3818 35.2695 38.59 35.2695C38.7904 35.2695 38.9256 35.3063 38.9963 35.3809C39.067 35.4554 39.1023 35.5368 39.1023 35.6259C39.1023 35.6804 39.0931 35.735 39.0747 35.7895C39.0562 35.844 39.0355 35.8963 39.0132 35.9454L38.0776 37.9649C38.1813 37.8658 38.3173 37.7744 38.484 37.6899C38.6506 37.6061 38.835 37.5094 39.0355 37.4003C39.3696 37.2221 39.7276 37.0139 40.1101 36.7766C40.4926 36.5392 40.8583 36.2888 41.207 36.0268C41.5557 35.7641 41.8453 35.5122 42.0758 35.2695C42.1126 35.2994 42.1387 35.3509 42.1541 35.4254C42.1687 35.4999 42.1764 35.5568 42.1764 35.5959C42.1764 35.7496 42.0819 35.9178 41.8922 36.1006C41.7024 36.2834 41.4559 36.4731 41.1517 36.6682C40.8475 36.8641 40.5134 37.0569 40.1493 37.2474C39.7852 37.4379 39.4272 37.6177 39.0747 37.7859C38.7221 37.9541 38.4041 38.1 38.1222 38.2237C38.3449 38.4764 38.5623 38.7161 38.7735 38.9442C38.9848 39.1716 39.2152 39.3944 39.4641 39.6125C39.713 39.8307 40.0041 40.0534 40.3382 40.2808C40.6724 40.5081 41.0772 40.7532 41.5519 41.0159C41.4997 41.0804 41.4182 41.1372 41.3068 41.1864C41.1955 41.2371 41.0764 41.2617 40.9504 41.2617Z" fill="#3C4242"/>
<path d="M46.9091 40.9796C46.4559 40.9796 46.1203 40.8882 45.9013 40.7046C45.6824 40.5218 45.5726 40.3013 45.5726 40.044C45.253 40.3259 44.8859 40.5464 44.4703 40.7046C44.0547 40.8628 43.6346 40.9419 43.2121 40.9419C42.7589 40.9419 42.4194 40.859 42.1928 40.6931C41.9662 40.5272 41.8533 40.3228 41.8533 40.0809C41.8533 39.8581 41.937 39.6231 42.1037 39.3757C42.2711 39.1284 42.4939 38.8956 42.772 38.6775C43.05 38.4601 43.3565 38.2827 43.6906 38.1467C44.0248 38.0107 44.3551 37.9424 44.6823 37.9424C44.8528 37.9424 45.0111 37.9723 45.1555 38.0315C45.3007 38.0906 45.3729 38.212 45.3729 38.3956C45.3729 38.5838 45.2891 38.7604 45.1224 38.9264C44.9558 39.0923 44.7361 39.2398 44.4657 39.368C44.1945 39.4971 43.8973 39.6016 43.5747 39.6837C43.252 39.7659 42.9302 39.8159 42.6114 39.8358C42.5968 39.8858 42.5853 39.9326 42.5776 39.9772C42.5699 40.0217 42.5661 40.064 42.5661 40.1031C42.5661 40.2022 42.5922 40.2998 42.6444 40.3966C42.6959 40.4934 42.785 40.5725 42.9118 40.6339C43.0377 40.6961 43.2159 40.7269 43.4464 40.7269C43.8397 40.7269 44.2299 40.6339 44.6162 40.4488C45.0018 40.2629 45.3398 40.034 45.6294 39.7621C45.6962 39.5593 45.8153 39.3565 45.9858 39.153C46.1564 38.9502 46.363 38.7658 46.6042 38.5999C46.8454 38.434 47.1073 38.3003 47.3892 38.1989C47.6711 38.0975 47.9576 38.0468 48.2472 38.0468C48.4177 38.0468 48.576 38.0768 48.7204 38.136C48.8648 38.1951 48.9378 38.3165 48.9378 38.5C48.9378 38.7528 48.8095 38.974 48.5537 39.1645C48.2979 39.355 47.9692 39.5071 47.5682 39.6215C47.1672 39.7352 46.7555 39.8074 46.3323 39.8366C46.3177 39.8865 46.3061 39.9334 46.2985 39.9779C46.2908 40.0225 46.2869 40.0647 46.2869 40.1039C46.2869 40.203 46.3108 40.3044 46.3591 40.4081C46.4075 40.5118 46.4928 40.5971 46.6149 40.6639C46.7378 40.7307 46.9137 40.7637 47.1442 40.7637C47.4637 40.7637 47.7825 40.7008 48.102 40.5748C48.4216 40.4488 48.7181 40.2829 48.9931 40.077C49.2681 39.8719 49.4977 39.6499 49.6836 39.4126L49.8173 39.4794C49.6168 39.7767 49.3587 40.0379 49.043 40.2629C48.7273 40.488 48.3863 40.6639 48.0183 40.7899C47.6496 40.9166 47.2801 40.9796 46.9091 40.9796ZM42.6659 39.6945C42.8664 39.6499 43.093 39.5847 43.345 39.4979C43.5977 39.4111 43.8404 39.3089 44.0747 39.1898C44.309 39.0708 44.5018 38.9402 44.6539 38.7965C44.806 38.6529 44.882 38.5024 44.882 38.3434C44.882 38.2888 44.8674 38.2466 44.8375 38.2174C44.8075 38.1874 44.7445 38.1728 44.6485 38.1728C44.4703 38.1728 44.2806 38.2189 44.0801 38.3103C43.8796 38.4017 43.6868 38.5216 43.5009 38.6706C43.315 38.8188 43.1483 38.9824 42.9993 39.1606C42.8511 39.3381 42.7397 39.5163 42.6659 39.6945ZM46.386 39.6945C46.5865 39.6499 46.8054 39.5908 47.0436 39.5163C47.2809 39.4418 47.5075 39.3542 47.7234 39.2528C47.9384 39.1514 48.1166 39.0354 48.258 38.9041C48.3985 38.7727 48.4692 38.6283 48.4692 38.4701C48.4692 38.4156 48.4508 38.3695 48.4131 38.3326C48.3763 38.2957 48.3094 38.2773 48.2127 38.2773C47.9753 38.2773 47.7356 38.3464 47.4944 38.4855C47.2533 38.6237 47.0343 38.8012 46.8369 39.0162C46.6403 39.2305 46.4897 39.4571 46.386 39.6945Z" fill="#3C4242"/>
<path d="M48.7477 42.6948C48.6885 42.6948 48.6309 42.6741 48.5748 42.6319C48.5188 42.5896 48.4765 42.5451 48.4466 42.4982C48.4166 42.4513 48.402 42.4229 48.402 42.4129C48.5057 42.1702 48.6079 41.9536 48.7085 41.7631C48.8091 41.5726 48.909 41.3767 49.0096 41.1762C49.1095 40.9758 49.2086 40.7407 49.3046 40.4711C49.4014 40.2015 49.5012 39.8658 49.6057 39.4648C49.7094 39.0639 49.8138 38.5661 49.9175 37.9724C49.9252 37.9278 49.9398 37.8955 49.9621 37.8756C49.9844 37.8556 50.0397 37.8456 50.1288 37.8456C50.3216 37.8456 50.4591 37.8817 50.5413 37.9532C50.6227 38.0246 50.6634 38.1029 50.6634 38.1867C50.6634 38.2558 50.6411 38.3795 50.5966 38.5577C50.552 38.7359 50.489 38.9463 50.4076 39.1891C50.5336 39.0255 50.6918 38.8596 50.8808 38.6913C51.0697 38.5231 51.2871 38.3818 51.5322 38.2681C51.7772 38.1544 52.0445 38.0976 52.3341 38.0976C52.6605 38.0976 52.9302 38.1759 53.1414 38.3311C53.3526 38.487 53.4586 38.6913 53.4586 38.944C53.4586 39.1368 53.3933 39.3412 53.2635 39.5562C53.1337 39.7713 52.9517 39.9749 52.7182 40.1654C52.4846 40.3559 52.2073 40.511 51.8886 40.6293C51.569 40.7484 51.2165 40.8075 50.8309 40.8075C50.6373 40.8075 50.4821 40.7929 50.3631 40.763C50.244 40.733 50.1848 40.7038 50.1848 40.6739C50.1848 40.6539 50.2125 40.6432 50.2686 40.6401C50.3247 40.6378 50.3892 40.6362 50.4637 40.6362C50.7609 40.6362 51.0444 40.5879 51.3155 40.4911C51.5867 40.3943 51.8294 40.2668 52.0453 40.1085C52.2604 39.9503 52.4293 39.7744 52.5522 39.5816C52.6744 39.3888 52.7358 39.1983 52.7358 39.0101C52.7358 38.8519 52.6859 38.7167 52.5853 38.6053C52.4854 38.4939 52.3233 38.4386 52.1006 38.4386C51.9078 38.4386 51.7165 38.4793 51.5268 38.5607C51.3371 38.6422 51.1588 38.7466 50.9922 38.8726C50.8247 38.9986 50.6765 39.1299 50.5466 39.2659C50.4168 39.4019 50.3185 39.5248 50.2517 39.6331C50.118 40.0041 49.9844 40.362 49.8507 40.7061C49.7171 41.0503 49.5888 41.3621 49.4666 41.6417C49.3437 41.9213 49.2331 42.1502 49.1325 42.3284C49.0327 42.5067 48.9489 42.6157 48.8821 42.6549C48.8437 42.6826 48.7991 42.6948 48.7477 42.6948Z" fill="#3C4242"/>
<path d="M57.5019 40.8083C57.2124 40.8083 56.9965 40.7476 56.8559 40.6263C56.7146 40.5049 56.6447 40.3574 56.6447 40.1846C56.6447 40.0709 56.6762 39.9273 56.7392 39.7537C56.8022 39.5808 56.8859 39.3988 56.9896 39.2083C57.0933 39.0178 57.2139 38.838 57.3514 38.6698C57.4889 38.5016 57.6356 38.3641 57.7915 38.2573C57.9475 38.1513 58.0996 38.0976 58.2486 38.0976C58.3154 38.0976 58.373 38.1114 58.4214 38.1383C58.4698 38.1652 58.4936 38.2066 58.4936 38.2604C58.4936 38.3196 58.436 38.4163 58.3208 38.55C58.2056 38.6836 58.0704 38.8373 57.9144 39.0101C57.7585 39.1837 57.6233 39.365 57.5081 39.5555C57.3929 39.746 57.3353 39.928 57.3353 40.1016C57.3353 40.2798 57.3798 40.3989 57.4689 40.458C57.558 40.5172 57.6955 40.5471 57.8814 40.5471C58.1341 40.5471 58.403 40.4634 58.6887 40.2944C58.9745 40.1262 59.2771 39.832 59.5966 39.4111L59.6965 39.4856C59.4814 39.9111 59.1711 40.2383 58.7663 40.4657C58.3607 40.6946 57.9398 40.8083 57.5019 40.8083ZM58.8377 37.4078C58.7187 37.4078 58.6134 37.3878 58.5205 37.3486C58.4275 37.3087 58.3815 37.2472 58.3815 37.1627C58.3815 37.059 58.4721 36.9684 58.6541 36.8916C58.8362 36.8148 59.0159 36.7764 59.1941 36.7764C59.3055 36.7764 59.3946 36.794 59.4615 36.8286C59.5283 36.8632 59.5613 36.9231 59.5613 37.0068C59.5613 37.1005 59.4853 37.1912 59.3332 37.278C59.1819 37.3648 59.0167 37.4078 58.8377 37.4078Z" fill="#3C4242"/>
<path d="M60.3299 40.9573C60.0104 40.9573 59.7653 40.8951 59.5948 40.7714C59.4243 40.6478 59.339 40.4649 59.339 40.2222C59.339 40.0048 59.4005 39.736 59.5226 39.4164C59.6447 39.0969 59.7991 38.7697 59.985 38.4325C59.9105 38.4225 59.8406 38.414 59.7738 38.4063C59.707 38.3987 59.644 38.3879 59.5848 38.3733V38.2396C59.644 38.2443 59.7146 38.2496 59.7961 38.2542C59.8775 38.2589 59.9704 38.2642 60.0741 38.2688C60.2301 38.0015 60.3975 37.7427 60.5749 37.493C60.7532 37.2434 60.9298 37.0206 61.1042 36.8247C61.2786 36.6296 61.446 36.4729 61.6058 36.357C61.7656 36.241 61.9007 36.1826 62.0121 36.1826C62.0713 36.1826 62.125 36.1964 62.1734 36.2233C62.2218 36.2502 62.2456 36.2917 62.2456 36.3454C62.2456 36.4299 62.1681 36.5667 62.0121 36.7579C61.8562 36.9484 61.6634 37.175 61.433 37.4369C61.2025 37.6996 60.9797 37.9839 60.7647 38.2911C60.8315 38.2911 60.8999 38.2911 60.9705 38.2911C61.0412 38.2911 61.1096 38.2911 61.1764 38.2911C61.4214 38.2911 61.6795 38.2888 61.9507 38.2834C62.2218 38.2788 62.4945 38.2658 62.7695 38.2466V38.3802C62.3609 38.4102 61.9952 38.4325 61.6726 38.447C61.35 38.4616 61.0619 38.4693 60.8092 38.4693C60.7793 38.4693 60.7516 38.4693 60.7255 38.4693C60.6994 38.4693 60.6717 38.4693 60.6418 38.4693C60.4712 38.732 60.3261 39.0016 60.2078 39.2789C60.0887 39.5562 60.0296 39.8258 60.0296 40.0885C60.0296 40.3013 60.078 40.4534 60.174 40.5448C60.27 40.6362 60.4298 40.6823 60.6533 40.6823C61.0397 40.6823 61.4184 40.5686 61.7894 40.3405C62.1604 40.1131 62.4868 39.8036 62.7695 39.4126L62.9139 39.4871C62.7357 39.7644 62.5106 40.014 62.2403 40.2368C61.9691 40.4596 61.6703 40.6355 61.3438 40.7637C61.0166 40.8928 60.6794 40.9573 60.3299 40.9573Z" fill="#3C4242"/>
<path d="M66.6455 41.0311C66.289 41.0311 65.9918 40.952 65.7544 40.7937C65.5171 40.6355 65.398 40.3981 65.398 40.0809C65.398 39.8336 65.4702 39.5924 65.6154 39.3565C65.7598 39.1215 65.9511 38.9103 66.1892 38.7221C66.4265 38.5339 66.69 38.3841 66.9796 38.2727C67.2692 38.1613 67.5549 38.106 67.8376 38.106C68.1418 38.106 68.3499 38.1652 68.4613 38.2842C68.5727 38.4033 68.628 38.527 68.628 38.6552C68.628 38.7989 68.5781 38.9249 68.4775 39.0339C68.3776 39.143 68.2416 39.1975 68.0711 39.1975C67.9451 39.1975 67.8376 39.1607 67.7477 39.0862C67.8591 39.047 67.9559 38.9663 68.0373 38.845C68.1187 38.7236 68.1602 38.6084 68.1602 38.4993C68.1602 38.4402 68.1433 38.3941 68.1103 38.3618C68.0765 38.3295 68.012 38.3134 67.9152 38.3134C67.7147 38.3134 67.5088 38.3726 67.2968 38.4916C67.0856 38.6107 66.8882 38.7635 66.7069 38.9517C66.5249 39.1399 66.3766 39.3381 66.2614 39.5455C66.1462 39.7537 66.0886 39.9488 66.0886 40.1324C66.0886 40.286 66.1446 40.4266 66.256 40.5556C66.3674 40.6839 66.5825 40.7484 66.902 40.7484C67.1993 40.7484 67.4981 40.6939 67.7984 40.5848C68.0988 40.4757 68.3791 40.3198 68.6395 40.117C68.8992 39.9142 69.1073 39.6761 69.2633 39.4042L69.4077 39.4787C69.2371 39.7759 69.0029 40.0417 68.7064 40.2768C68.4091 40.5118 68.0826 40.6962 67.7262 40.8298C67.369 40.9642 67.0088 41.0311 66.6455 41.0311Z" fill="#3C4242"/>
<path d="M69.9757 40.8383C69.6561 40.8383 69.428 40.7653 69.2905 40.6193C69.153 40.4734 69.0846 40.2914 69.0846 40.074C69.0846 39.8366 69.1515 39.5539 69.2851 39.2275C69.4188 38.901 69.5955 38.5569 69.8144 38.1951C70.0333 37.8341 70.2729 37.4815 70.5326 37.1366C70.7922 36.7925 71.0518 36.4799 71.3122 36.1972C71.5719 35.9153 71.8115 35.6895 72.0304 35.5212C72.2494 35.353 72.4222 35.2685 72.5482 35.2685C72.6296 35.2685 72.6964 35.2993 72.7486 35.3615C72.8009 35.4237 72.8416 35.4974 72.8715 35.5842C72.9007 35.671 72.9161 35.7486 72.9161 35.8177C72.9161 35.9514 72.8662 36.1258 72.7655 36.3416C72.6657 36.5567 72.5243 36.7971 72.3423 37.0621C72.1603 37.3271 71.9452 37.5944 71.6963 37.864C71.4474 38.1337 71.1763 38.3925 70.8836 38.6399C70.5902 38.8872 70.2806 39.1 69.9534 39.2782C69.9089 39.4118 69.8735 39.5417 69.8474 39.6684C69.8213 39.7944 69.8082 39.915 69.8082 40.0287C69.8082 40.2215 69.8489 40.3651 69.9304 40.4596C70.0118 40.5533 70.1347 40.6009 70.2983 40.6009C70.4988 40.6009 70.6977 40.5418 70.8944 40.4227C71.091 40.3036 71.2769 40.1539 71.4513 39.9733C71.6256 39.7928 71.7762 39.6062 71.9022 39.4126L72.0688 39.4718C71.7716 39.8927 71.449 40.2253 71.0995 40.4703C70.7515 40.7161 70.3766 40.8383 69.9757 40.8383ZM70.054 39.0262C70.3137 38.8526 70.5664 38.6537 70.8114 38.4286C71.0564 38.2036 71.2846 37.9693 71.4966 37.7273C71.7086 37.4846 71.896 37.2495 72.0589 37.0222C72.2217 36.7948 72.3484 36.5905 72.4375 36.41C72.5267 36.2295 72.5712 36.0897 72.5712 35.9906C72.5712 35.9414 72.562 35.9091 72.5436 35.8938C72.5251 35.8792 72.5082 35.8715 72.4936 35.8715C72.4345 35.8715 72.3323 35.9345 72.1871 36.0605C72.0427 36.1864 71.8737 36.3562 71.6802 36.569C71.4874 36.7817 71.2907 37.0245 71.0902 37.2964C70.8898 37.5683 70.6985 37.8533 70.5164 38.1506C70.3336 38.4471 70.18 38.7397 70.054 39.0262Z" fill="#3C4242"/>
<path d="M72.2143 40.9643C71.9839 40.9643 71.7888 40.9136 71.6298 40.8122C71.47 40.7108 71.3901 40.5564 71.3901 40.3482C71.3901 40.17 71.4492 39.978 71.5683 39.7729C71.6866 39.5678 71.8502 39.3642 72.0584 39.1637C72.2665 38.9633 72.5024 38.7804 72.7658 38.6145C73.0293 38.4486 73.3074 38.3165 73.6016 38.2174C73.895 38.1183 74.1861 38.0692 74.4757 38.0692C74.7653 38.0692 75.0065 38.1198 75.1993 38.2212C75.3921 38.3226 75.4889 38.4578 75.4889 38.6261C75.4889 38.7497 75.4389 38.8342 75.3383 38.8788C75.2377 38.9233 75.1063 38.9456 74.9427 38.9456C74.9573 38.9056 74.9704 38.8626 74.9819 38.8158C74.9934 38.7689 74.9988 38.7259 74.9988 38.686C74.9988 38.5723 74.9581 38.4747 74.8767 38.3925C74.7945 38.3111 74.6539 38.2704 74.4534 38.2704C74.2453 38.2704 74.034 38.3188 73.8182 38.4148C73.6031 38.5116 73.3949 38.6399 73.1945 38.8012C72.994 38.9625 72.8158 39.1369 72.6598 39.3251C72.5039 39.5132 72.3818 39.6991 72.2919 39.8819C72.2028 40.0648 72.1582 40.2284 72.1582 40.372C72.1582 40.5648 72.2581 40.6616 72.4593 40.6616C72.6299 40.6616 72.8158 40.6086 73.0162 40.5018C73.2167 40.3958 73.4226 40.2591 73.6346 40.0932C73.8458 39.9273 74.0486 39.7552 74.2414 39.577C74.4342 39.3988 74.6055 39.2352 74.7538 39.0869C74.783 39.057 74.8022 39.0424 74.8091 39.0424C74.8536 39.047 74.9112 39.057 74.9819 39.0723C75.0526 39.0869 75.114 39.1069 75.1655 39.1315C75.2177 39.1561 75.2438 39.1883 75.2438 39.2283C75.2438 39.2728 75.21 39.3335 75.1432 39.4103C75.0764 39.4871 75.0019 39.5747 74.9205 39.6738C74.8383 39.7729 74.7645 39.8735 74.6977 39.9749C74.6309 40.0763 74.5978 40.1715 74.5978 40.2606C74.5978 40.3351 74.627 40.4081 74.6869 40.4796C74.7461 40.5518 74.8429 40.5871 74.9765 40.5871C75.177 40.5871 75.4405 40.4895 75.7669 40.2937C76.0934 40.0986 76.4245 39.8051 76.7586 39.4134L76.87 39.4879C76.714 39.7552 76.5136 39.9903 76.2685 40.193C76.0235 40.3958 75.7616 40.5548 75.4835 40.6685C75.2054 40.7822 74.932 40.839 74.6647 40.839C74.3897 40.839 74.1877 40.7845 74.0578 40.6754C73.928 40.5664 73.8627 40.4481 73.8627 40.319C73.8627 40.2891 73.8666 40.256 73.8743 40.2192C73.8812 40.1823 73.8888 40.1439 73.8965 40.1039C73.577 40.3912 73.2859 40.6063 73.0224 40.7499C72.7582 40.8928 72.4885 40.9643 72.2143 40.9643Z" fill="#3C4242"/>
<path d="M77.7052 40.9942C77.3565 40.9942 77.0799 40.9435 76.8756 40.8421C76.6713 40.7407 76.5269 40.6155 76.4408 40.4673C76.3556 40.319 76.3126 40.17 76.3126 40.0217C76.3126 39.8735 76.3425 39.759 76.4017 39.6799C76.4616 39.6008 76.5338 39.5417 76.6191 39.5017C76.7043 39.4618 76.7857 39.4326 76.8641 39.4126C76.9424 39.3926 76.9954 39.3727 77.0254 39.3535C77.2482 39.1899 77.4525 39.0193 77.6384 38.8411C77.8243 38.6629 77.9871 38.4747 78.1284 38.2765V38.1874C78.1284 38.0046 78.1745 37.874 78.2675 37.7972C78.3604 37.7204 78.4587 37.682 78.5624 37.682C78.6216 37.682 78.6661 37.692 78.6961 37.712C78.726 37.7319 78.7406 37.7542 78.7406 37.7788C78.7406 37.8034 78.7299 37.8433 78.7076 37.8979C78.6853 37.9524 78.6738 38.0215 78.6738 38.106C78.6738 38.2696 78.7222 38.4463 78.8182 38.6368C78.915 38.8273 79.011 39.0278 79.1078 39.2382C79.2038 39.4487 79.2522 39.6676 79.2522 39.895C79.2522 39.9595 79.2468 40.0225 79.2353 40.084C79.2246 40.1462 79.2077 40.2038 79.1854 40.2583C79.445 40.2284 79.6901 40.1508 79.9205 40.0248C80.1509 39.8988 80.3737 39.6968 80.5888 39.4195L80.6886 39.494C80.5473 39.766 80.3361 39.9726 80.0542 40.1139C79.7723 40.2553 79.4635 40.3428 79.1293 40.3774C79.0103 40.5902 78.8228 40.7461 78.567 40.8452C78.312 40.945 78.024 40.9942 77.7052 40.9942ZM77.7275 40.7346C77.8166 40.7346 77.9356 40.7146 78.0839 40.6754C78.2321 40.6355 78.3474 40.5341 78.4296 40.3712C78.1177 40.3321 77.8412 40.2499 77.6 40.1262C77.3588 40.0025 77.1783 39.8789 77.06 39.7552C76.8964 39.7606 76.8149 39.8466 76.8149 40.0148C76.8149 40.193 76.8948 40.3574 77.0546 40.5087C77.2128 40.6585 77.4379 40.7346 77.7275 40.7346ZM78.4849 40.2514C78.4994 40.2023 78.511 40.15 78.5179 40.0955C78.5256 40.041 78.5294 39.9764 78.5294 39.9027C78.5294 39.6699 78.4864 39.4387 78.4011 39.2083C78.3159 38.9778 78.2437 38.7612 78.1837 38.5585C78.0132 38.7466 77.8327 38.9264 77.6438 39.0969C77.4548 39.2674 77.2743 39.4103 77.1038 39.524C77.2151 39.6822 77.388 39.8312 77.6215 39.9695C77.8558 40.1085 78.143 40.2023 78.4849 40.2514Z" fill="#3C4242"/>
<path d="M81.5472 40.9942C81.1985 40.9942 80.922 40.9435 80.7176 40.8421C80.5133 40.7407 80.3689 40.6155 80.2829 40.4673C80.1976 40.319 80.1546 40.17 80.1546 40.0217C80.1546 39.8735 80.1846 39.759 80.2437 39.6799C80.3036 39.6008 80.3758 39.5417 80.4611 39.5017C80.5463 39.4618 80.6278 39.4326 80.7061 39.4126C80.7845 39.3926 80.8375 39.3727 80.8674 39.3535C81.0902 39.1899 81.2945 39.0193 81.4804 38.8411C81.6663 38.6629 81.8291 38.4747 81.9705 38.2765V38.1874C81.9705 38.0046 82.0166 37.874 82.1095 37.7972C82.2024 37.7204 82.3008 37.682 82.4045 37.682C82.4636 37.682 82.5082 37.692 82.5381 37.712C82.5681 37.7319 82.5827 37.7542 82.5827 37.7788C82.5827 37.8034 82.5719 37.8433 82.5496 37.8979C82.5274 37.9524 82.5158 38.0215 82.5158 38.106C82.5158 38.2696 82.5642 38.4463 82.6603 38.6368C82.757 38.8273 82.8531 39.0278 82.9498 39.2382C83.0459 39.4487 83.0943 39.6676 83.0943 39.895C83.0943 39.9595 83.0889 40.0225 83.0773 40.084C83.0666 40.1462 83.0497 40.2038 83.0274 40.2583C83.2871 40.2284 83.5321 40.1508 83.7625 40.0248C83.993 39.8988 84.2157 39.6968 84.4308 39.4195L84.5307 39.494C84.3893 39.766 84.1781 39.9726 83.8962 40.1139C83.6143 40.2553 83.3055 40.3428 82.9713 40.3774C82.8523 40.5902 82.6649 40.7461 82.4091 40.8452C82.1548 40.945 81.8668 40.9942 81.5472 40.9942ZM81.5695 40.7346C81.6586 40.7346 81.7777 40.7146 81.9259 40.6754C82.0742 40.6355 82.1894 40.5341 82.2716 40.3712C81.9597 40.3321 81.6832 40.2499 81.442 40.1262C81.2008 40.0025 81.0203 39.8789 80.902 39.7552C80.7384 39.7606 80.657 39.8466 80.657 40.0148C80.657 40.193 80.7368 40.3574 80.8966 40.5087C81.0556 40.6585 81.2799 40.7346 81.5695 40.7346ZM82.3269 40.2514C82.3415 40.2023 82.353 40.15 82.3599 40.0955C82.3676 40.041 82.3714 39.9764 82.3714 39.9027C82.3714 39.6699 82.3284 39.4387 82.2432 39.2083C82.1579 38.9778 82.0857 38.7612 82.0258 38.5585C81.8553 38.7466 81.6747 38.9264 81.4858 39.0969C81.2968 39.2674 81.1163 39.4103 80.9458 39.524C81.0572 39.6822 81.23 39.8312 81.4635 39.9695C81.6978 40.1085 81.9858 40.2023 82.3269 40.2514Z" fill="#3C4242"/>
<path d="M84.6999 42.6949C84.514 42.6949 84.3512 42.6618 84.2098 42.595C84.0685 42.5282 83.9978 42.4306 83.9978 42.3016C83.9978 42.1433 84.0577 42.002 84.176 41.8783C84.2943 41.7547 84.4541 41.641 84.6553 41.5365C84.8558 41.4328 85.0855 41.3337 85.3459 41.2392C85.6055 41.1455 85.8767 41.0511 86.1586 40.9573C86.2623 40.7745 86.3683 40.5702 86.4758 40.3451C86.5834 40.1201 86.6855 39.8712 86.7823 39.5993C86.545 39.8566 86.2907 40.0778 86.0196 40.2637C85.7484 40.4496 85.4604 40.5418 85.1562 40.5418C85.0148 40.5418 84.8758 40.521 84.7383 40.4788C84.6008 40.4365 84.4879 40.3713 84.3988 40.2822C84.3097 40.193 84.2651 40.0794 84.2651 39.9403C84.2651 39.8021 84.3005 39.6408 84.3711 39.4579C84.4418 39.2751 84.5286 39.0969 84.6331 38.9233C84.7368 38.7505 84.8443 38.6068 84.9565 38.4924C85.0686 38.3779 85.1646 38.3219 85.246 38.3219C85.276 38.3219 85.3298 38.3295 85.4074 38.3441C85.4857 38.3587 85.5594 38.3802 85.6301 38.4071C85.7008 38.4348 85.7361 38.4632 85.7361 38.4924C85.6693 38.5569 85.5948 38.6483 85.5134 38.7674C85.4312 38.8864 85.352 39.0186 85.2737 39.1645C85.1961 39.3105 85.1308 39.4526 85.0786 39.5916C85.0264 39.7299 85.001 39.8489 85.001 39.948C85.001 40.0371 85.0302 40.1085 85.0901 40.1631C85.1493 40.2176 85.2537 40.2445 85.402 40.2445C85.5425 40.2445 85.7008 40.1992 85.8751 40.107C86.0495 40.0156 86.2239 39.8981 86.399 39.7544C86.5734 39.6108 86.7347 39.4572 86.8837 39.2943C86.906 39.2398 86.926 39.1845 86.9452 39.1276C86.9636 39.0708 86.9805 39.0124 86.9951 38.9533C87.0174 38.8841 87.0711 38.8035 87.1564 38.7121C87.2417 38.6207 87.3776 38.5746 87.5627 38.5746C87.5996 38.5746 87.6365 38.5761 87.6741 38.5784C87.711 38.5807 87.7517 38.5869 87.7963 38.5969C87.7963 38.676 87.7609 38.8235 87.6902 39.0385C87.6196 39.2536 87.519 39.5056 87.3891 39.7921C87.2593 40.0794 87.1049 40.3736 86.9267 40.6754C87.2755 40.5863 87.6173 40.4388 87.9514 40.2338C88.2856 40.0287 88.5567 39.7544 88.7641 39.4134L88.9085 39.4879C88.7971 39.7253 88.6281 39.9319 88.4015 40.1078C88.1749 40.2837 87.9207 40.4342 87.6388 40.561C87.3569 40.687 87.078 40.7922 86.803 40.8767C86.6102 41.1932 86.4006 41.4904 86.174 41.7677C85.9474 42.045 85.71 42.2693 85.4611 42.4398C85.2138 42.6096 84.9595 42.6949 84.6999 42.6949ZM84.6438 42.4567C84.7552 42.4567 84.9426 42.3592 85.2061 42.1633C85.4696 41.9674 85.7499 41.6248 86.0472 41.1348C85.743 41.2439 85.4604 41.3514 85.2007 41.4582C84.9411 41.5642 84.7329 41.6794 84.577 41.8038C84.4211 41.9275 84.3435 42.0711 84.3435 42.2347C84.3435 42.2747 84.3658 42.3215 84.4103 42.3761C84.4549 42.4299 84.5324 42.4567 84.6438 42.4567Z" fill="#3C4242"/>
<path d="M88.9984 40.69C88.9016 40.69 88.8187 40.6739 88.748 40.6416C88.6773 40.6094 88.642 40.5587 88.642 40.4895C88.642 40.435 88.675 40.3843 88.7418 40.3375C88.8087 40.2906 88.8924 40.253 88.9922 40.2261C89.0921 40.1992 89.1904 40.1854 89.2872 40.1854C89.3763 40.1854 89.447 40.1977 89.4985 40.2222C89.5499 40.2468 89.576 40.2944 89.576 40.3636C89.576 40.4135 89.5484 40.4627 89.4923 40.5118C89.4362 40.561 89.364 40.6032 89.2749 40.6378C89.1858 40.6724 89.0952 40.69 88.9984 40.69Z" fill="#3C4242"/>
</svg>
