<svg width="28" height="28" viewBox="0 0 28 28" fill="none" xmlns="http://www.w3.org/2000/svg">
<g filter="url(#filter0_d_14_25)">
<circle cx="13.2007" cy="13.2611" r="10.5838" fill="white"/>
</g>
<path fill-rule="evenodd" clip-rule="evenodd" d="M17.2026 16.3158C16.9444 16.5127 16.5754 16.4629 16.3786 16.2047L13.4446 12.3566C13.3716 12.3082 13.2649 12.3082 13.1919 12.3566L10.258 16.2047C10.0611 16.4629 9.69212 16.5127 9.43388 16.3158C9.17565 16.1189 9.12591 15.7499 9.3228 15.4917L12.2669 11.6303C12.3012 11.5853 12.3532 11.5229 12.4252 11.4632C12.9383 11.0381 13.6982 11.0381 14.2113 11.4632C14.2833 11.5229 14.3353 11.5853 14.3697 11.6303L17.3137 15.4917C17.5106 15.7499 17.4609 16.1189 17.2026 16.3158Z" fill="#3C4242"/>
<defs>
<filter id="filter0_d_14_25" x="0.348918" y="0.409379" width="27.2155" height="27.2155" filterUnits="userSpaceOnUse" color-interpolation-filters="sRGB">
<feFlood flood-opacity="0" result="BackgroundImageFix"/>
<feColorMatrix in="SourceAlpha" type="matrix" values="0 0 0 0 0 0 0 0 0 0 0 0 0 0 0 0 0 0 127 0" result="hardAlpha"/>
<feOffset dx="0.755986" dy="0.755986"/>
<feGaussianBlur stdDeviation="1.51197"/>
<feComposite in2="hardAlpha" operator="out"/>
<feColorMatrix type="matrix" values="0 0 0 0 0 0 0 0 0 0 0 0 0 0 0 0 0 0 0.04 0"/>
<feBlend mode="normal" in2="BackgroundImageFix" result="effect1_dropShadow_14_25"/>
<feBlend mode="normal" in="SourceGraphic" in2="effect1_dropShadow_14_25" result="shape"/>
</filter>
</defs>
</svg>
