<svg width="28" height="28" viewBox="0 0 28 28" fill="none" xmlns="http://www.w3.org/2000/svg">
<g filter="url(#filter0_d_14_26)">
<circle cx="13.2007" cy="13.5963" r="10.5838" transform="rotate(180 13.2007 13.5963)" fill="#3C4242"/>
</g>
<path fill-rule="evenodd" clip-rule="evenodd" d="M9.19869 11.6C9.45693 11.4031 9.82588 11.4529 10.0228 11.7111L12.9567 15.5592C13.0297 15.6076 13.1364 15.6076 13.2094 15.5592L16.1434 11.7111C16.3403 11.4529 16.7092 11.4031 16.9674 11.6C17.2257 11.7969 17.2754 12.1658 17.0785 12.4241L14.1345 16.2855C14.1001 16.3305 14.0481 16.3929 13.9761 16.4526C13.463 16.8777 12.7031 16.8777 12.19 16.4526C12.118 16.3929 12.066 16.3305 12.0317 16.2855L9.08761 12.4241C8.89073 12.1658 8.94046 11.7969 9.19869 11.6Z" fill="white"/>
<defs>
<filter id="filter0_d_14_26" x="0.348902" y="0.744507" width="27.2155" height="27.2155" filterUnits="userSpaceOnUse" color-interpolation-filters="sRGB">
<feFlood flood-opacity="0" result="BackgroundImageFix"/>
<feColorMatrix in="SourceAlpha" type="matrix" values="0 0 0 0 0 0 0 0 0 0 0 0 0 0 0 0 0 0 127 0" result="hardAlpha"/>
<feOffset dx="0.755986" dy="0.755986"/>
<feGaussianBlur stdDeviation="1.51197"/>
<feComposite in2="hardAlpha" operator="out"/>
<feColorMatrix type="matrix" values="0 0 0 0 0 0 0 0 0 0 0 0 0 0 0 0 0 0 0.04 0"/>
<feBlend mode="normal" in2="BackgroundImageFix" result="effect1_dropShadow_14_26"/>
<feBlend mode="normal" in="SourceGraphic" in2="effect1_dropShadow_14_26" result="shape"/>
</filter>
</defs>
</svg>
