<svg width="150" height="22" viewBox="0 0 150 22" fill="none" xmlns="http://www.w3.org/2000/svg">
<path d="M11 0L13.4697 7.60081H21.4616L14.996 12.2984L17.4656 19.8992L11 15.2016L4.53436 19.8992L7.00402 12.2984L0.538379 7.60081H8.53035L11 0Z" fill="#EDD146"/>
<path d="M43 0L45.4697 7.60081H53.4616L46.996 12.2984L49.4656 19.8992L43 15.2016L36.5344 19.8992L39.004 12.2984L32.5384 7.60081H40.5303L43 0Z" fill="#EDD146"/>
<path d="M75 0L77.4697 7.60081H85.4616L78.996 12.2984L81.4656 19.8992L75 15.2016L68.5344 19.8992L71.004 12.2984L64.5384 7.60081H72.5303L75 0Z" fill="#EDD146"/>
<path d="M107 0L109.47 7.60081H117.462L110.996 12.2984L113.466 19.8992L107 15.2016L100.534 19.8992L103.004 12.2984L96.5384 7.60081H104.53L107 0Z" fill="#EDD146"/>
<path d="M139 0L141.47 7.60081H149.462L142.996 12.2984L145.466 19.8992L139 15.2016L132.534 19.8992L135.004 12.2984L128.538 7.60081H136.53L139 0Z" fill="#EDD146"/>
</svg>
