<svg width="18" height="24" viewBox="0 0 18 24" fill="none" xmlns="http://www.w3.org/2000/svg">
<path d="M8.76493 1C4.47804 1 1 4.25865 1 8.27211C1 12.8902 6.17662 20.2085 8.07741 22.7362C8.15631 22.8429 8.25972 22.9297 8.37921 22.9896C8.49869 23.0494 8.63086 23.0806 8.76493 23.0806C8.899 23.0806 9.03117 23.0494 9.15066 22.9896C9.27014 22.9297 9.37355 22.8429 9.45245 22.7362C11.3532 20.2095 16.5299 12.8939 16.5299 8.27211C16.5299 4.25865 13.0518 1 8.76493 1Z" stroke="#40DDB6" stroke-width="1.5" stroke-linecap="round" stroke-linejoin="round"/>
<path d="M8.76515 12.6475C10.4805 12.6475 11.8711 11.2569 11.8711 9.54152C11.8711 7.82614 10.4805 6.43555 8.76515 6.43555C7.04977 6.43555 5.65918 7.82614 5.65918 9.54152C5.65918 11.2569 7.04977 12.6475 8.76515 12.6475Z" stroke="#40DDB6" stroke-width="1.5" stroke-linecap="round" stroke-linejoin="round"/>
</svg>
