<svg width="42" height="42" viewBox="0 0 42 42" fill="none" xmlns="http://www.w3.org/2000/svg">
<path d="M40.6286 11.743L38.2683 14.8006L37.7749 18.6327L33.9432 19.1257L30.8856 21.4861L27.828 19.1257L23.9963 18.6327L23.5029 14.8006L21.1426 11.743L23.5029 8.68585L23.9963 4.85373L27.828 4.36077L30.8856 2L33.9432 4.36077L37.7749 4.85373L38.2683 8.68585L40.6286 11.743Z" stroke="#40DDB6" stroke-width="2" stroke-miterlimit="10"/>
<path d="M36.1852 18.3203V29.8355L30.8851 26.2841L25.585 29.8355V18.3203" stroke="#40DDB6" stroke-width="2" stroke-miterlimit="10"/>
<path d="M23.0052 21.5669C21.4035 23.8274 18.7679 25.2879 15.8131 25.2879C11.2148 25.2879 7.39016 21.7511 7.03047 17.167L5.99609 3.96826H21.907" stroke="#40DDB6" stroke-width="2" stroke-miterlimit="10"/>
<path d="M6.78963 17.1896H4.58176C3.50185 17.1896 2.59239 16.3817 2.46539 15.3093L1.13231 8.99438C0.981917 7.72689 1.97243 6.6123 3.24869 6.6123H6.19432" stroke="#40DDB6" stroke-width="2" stroke-miterlimit="10"/>
<path d="M17.9834 24.854C17.9834 24.854 18.4463 30.2089 21.2227 32.5884" stroke="#40DDB6" stroke-width="2" stroke-miterlimit="10"/>
<path d="M13.796 24.854C13.796 24.854 13.3331 30.2089 10.5566 32.5884" stroke="#40DDB6" stroke-width="2" stroke-miterlimit="10"/>
<path d="M24.088 36.8744H7.69336V34.4614C7.69336 33.2743 8.5811 32.3123 9.67647 32.3123H22.1045C23.1998 32.3123 24.0876 33.2743 24.0876 34.4614V36.8744H24.088Z" stroke="#40DDB6" stroke-width="2" stroke-miterlimit="10"/>
<path d="M25.9604 40.1697H5.81934V39.0234C5.81934 37.8363 6.70708 36.8743 7.80245 36.8743H23.9773C25.0727 36.8743 25.9604 37.8363 25.9604 39.0234V40.1697V40.1697Z" stroke="#40DDB6" stroke-width="2" stroke-miterlimit="10"/>
<path d="M5.81983 40.1697H25.9609V39.0234C25.9609 37.8363 25.0732 36.8743 23.9778 36.8743H7.80295C6.70758 36.8743 5.81983 37.8363 5.81983 39.0234V40.1697V40.1697Z" stroke="#40DDB6" stroke-width="2" stroke-miterlimit="10"/>
<path d="M26.7539 13.8181L29.2659 15.6692L35.2817 8.00073" stroke="#40DDB6" stroke-width="2" stroke-miterlimit="10"/>
</svg>
