<svg width="72" height="72" viewBox="0 0 72 72" fill="none" xmlns="http://www.w3.org/2000/svg">
<circle cx="36" cy="36" r="36" fill="#40DDB6"/>
<path d="M17.625 50.4375H54.375" stroke="white" stroke-width="2" stroke-linecap="round" stroke-linejoin="round"/>
<path d="M38.625 50.4375V21.5625C38.625 21.2144 38.4867 20.8806 38.2406 20.6344C37.9944 20.3883 37.6606 20.25 37.3125 20.25H21.5625C21.2144 20.25 20.8806 20.3883 20.6344 20.6344C20.3883 20.8806 20.25 21.2144 20.25 21.5625V50.4375" stroke="white" stroke-width="2" stroke-linecap="round" stroke-linejoin="round"/>
<path d="M51.75 50.4375V32.0625C51.75 31.7144 51.6117 31.3806 51.3656 31.1344C51.1194 30.8883 50.7856 30.75 50.4375 30.75H38.625" stroke="white" stroke-width="2" stroke-linecap="round" stroke-linejoin="round"/>
<path d="M25.5 26.8125H30.75" stroke="white" stroke-width="2" stroke-linecap="round" stroke-linejoin="round"/>
<path d="M28.125 37.3125H33.375" stroke="white" stroke-width="2" stroke-linecap="round" stroke-linejoin="round"/>
<path d="M25.5 43.875H30.75" stroke="white" stroke-width="2" stroke-linecap="round" stroke-linejoin="round"/>
<path d="M43.875 43.875H46.5" stroke="white" stroke-width="2" stroke-linecap="round" stroke-linejoin="round"/>
<path d="M43.875 37.3125H46.5" stroke="white" stroke-width="2" stroke-linecap="round" stroke-linejoin="round"/>
</svg>
