<svg width="18" height="18" viewBox="0 0 18 18" fill="none" xmlns="http://www.w3.org/2000/svg">
<path d="M9.16687 0.36084C4.37266 0.36084 0.485352 4.24641 0.485352 9.03849C0.485352 12.5909 2.62473 15.6436 5.68264 16.9878C5.65938 16.3835 5.67876 15.6552 5.83379 14.9966C6.00044 14.2916 6.94999 10.2665 6.94999 10.2665C6.94999 10.2665 6.67094 9.71255 6.67094 8.89515C6.67094 7.609 7.41507 6.64826 8.34523 6.64826C9.13587 6.64826 9.51568 7.24097 9.51568 7.94991C9.51568 8.74407 9.00797 9.9295 8.7483 11.0297C8.53126 11.9517 9.20951 12.6994 10.1203 12.6994C11.7636 12.6994 12.872 10.5881 12.872 8.0855C12.872 6.18339 11.5892 4.76165 9.25989 4.76165C6.6283 4.76165 4.98501 6.72574 4.98501 8.9184C4.98501 9.67381 5.2098 10.2084 5.55862 10.6191C5.71752 10.8089 5.74077 10.8864 5.68264 11.1033C5.64001 11.2621 5.54699 11.6457 5.50436 11.8006C5.44622 12.0214 5.26794 12.0989 5.07028 12.0176C3.85719 11.5217 3.29134 10.1968 3.29134 8.70145C3.29134 6.23762 5.37258 3.2818 9.49631 3.2818C12.81 3.2818 14.992 5.67977 14.992 8.25208C14.992 11.6573 13.0968 14.1986 10.3063 14.1986C9.36841 14.1986 8.48863 13.6911 8.18633 13.1178C8.18633 13.1178 7.68249 15.1167 7.57397 15.5041C7.39181 16.1743 7.03137 16.8406 6.70194 17.3636C7.50106 17.5992 8.32983 17.7193 9.163 17.72C13.9572 17.72 17.8445 13.8344 17.8445 9.04236C17.8445 4.25029 13.9611 0.36084 9.16687 0.36084Z" fill="white"/>
</svg>
