<svg width="200" height="39" viewBox="0 0 200 39" fill="none" xmlns="http://www.w3.org/2000/svg">
<path d="M71.5 10.825L67.275 28.5H61.975L59.15 16.675L56.3 28.5H51L46.775 10.825H51.425L53.7 23.625L56.8 10.825H61.475L64.575 23.625L66.875 10.825H71.5ZM82.5945 14.4C84.1945 14.4 85.4612 14.9333 86.3945 16C87.3445 17.0667 87.8195 18.5333 87.8195 20.4V28.5H83.5445V20.9C83.5445 19.9667 83.2945 19.2417 82.7945 18.725C82.3112 18.1917 81.6612 17.925 80.8445 17.925C79.9779 17.925 79.2862 18.2 78.7695 18.75C78.2695 19.3 78.0195 20.0833 78.0195 21.1V28.5H73.7445V10H78.0195V17.1C78.4195 16.2667 79.0112 15.6083 79.7945 15.125C80.5945 14.6417 81.5279 14.4 82.5945 14.4ZM90.2391 10.625C90.2391 9.975 90.4724 9.44167 90.9391 9.025C91.4057 8.59167 92.0224 8.375 92.7891 8.375C93.5557 8.375 94.1724 8.59167 94.6391 9.025C95.1057 9.44167 95.3391 9.975 95.3391 10.625C95.3391 11.2583 95.1057 11.7917 94.6391 12.225C94.1724 12.6417 93.5557 12.85 92.7891 12.85C92.0224 12.85 91.4057 12.6417 90.9391 12.225C90.4724 11.7917 90.2391 11.2583 90.2391 10.625ZM94.9141 14.55V28.5H90.6391V14.55H94.9141ZM105.766 24.825V28.5H103.841C102.207 28.5 100.932 28.1 100.016 27.3C99.1156 26.4833 98.6656 25.1417 98.6656 23.275V18.15H96.7906V14.55H98.6656V11.125H102.941V14.55H105.741V18.15H102.941V23.35C102.941 23.9 103.049 24.2833 103.266 24.5C103.499 24.7167 103.882 24.825 104.416 24.825H105.766ZM121.418 21.15C121.418 21.5 121.377 21.8833 121.293 22.3H111.618C111.668 23.35 111.935 24.1083 112.418 24.575C112.902 25.025 113.518 25.25 114.268 25.25C114.902 25.25 115.427 25.0917 115.843 24.775C116.26 24.4583 116.535 24.05 116.668 23.55H121.193C121.01 24.5333 120.61 25.4167 119.993 26.2C119.377 26.9667 118.593 27.575 117.643 28.025C116.693 28.4583 115.635 28.675 114.468 28.675C113.102 28.675 111.885 28.3917 110.818 27.825C109.768 27.2417 108.943 26.4083 108.343 25.325C107.743 24.2417 107.443 22.975 107.443 21.525C107.443 20.0583 107.735 18.7917 108.318 17.725C108.918 16.6417 109.752 15.8167 110.818 15.25C111.885 14.6667 113.102 14.375 114.468 14.375C115.852 14.375 117.068 14.6583 118.118 15.225C119.168 15.7917 119.977 16.5917 120.543 17.625C121.127 18.6417 121.418 19.8167 121.418 21.15ZM117.093 20.5C117.11 19.5833 116.86 18.9 116.343 18.45C115.843 17.9833 115.218 17.75 114.468 17.75C113.685 17.75 113.035 17.9833 112.518 18.45C112.002 18.9167 111.71 19.6 111.643 20.5H117.093ZM131.722 10.65C133.972 10.65 135.83 11.2417 137.297 12.425C138.78 13.6083 139.739 15.2083 140.172 17.225H135.647C135.314 16.4083 134.797 15.7667 134.097 15.3C133.414 14.8333 132.597 14.6 131.647 14.6C130.397 14.6 129.389 15.0583 128.622 15.975C127.855 16.8917 127.472 18.1167 127.472 19.65C127.472 21.1833 127.855 22.4083 128.622 23.325C129.389 24.225 130.397 24.675 131.647 24.675C132.597 24.675 133.414 24.4417 134.097 23.975C134.797 23.5083 135.314 22.875 135.647 22.075H140.172C139.739 24.075 138.78 25.675 137.297 26.875C135.83 28.0583 133.972 28.65 131.722 28.65C130.005 28.65 128.497 28.275 127.197 27.525C125.897 26.7583 124.889 25.6917 124.172 24.325C123.472 22.9583 123.122 21.4 123.122 19.65C123.122 17.9 123.472 16.3417 124.172 14.975C124.889 13.6083 125.897 12.55 127.197 11.8C128.497 11.0333 130.005 10.65 131.722 10.65ZM149.093 14.375C150.476 14.375 151.709 14.6667 152.793 15.25C153.893 15.8167 154.751 16.6417 155.368 17.725C156.001 18.8083 156.318 20.075 156.318 21.525C156.318 22.975 156.001 24.2417 155.368 25.325C154.751 26.4083 153.893 27.2417 152.793 27.825C151.709 28.3917 150.476 28.675 149.093 28.675C147.709 28.675 146.468 28.3917 145.368 27.825C144.268 27.2417 143.401 26.4083 142.768 25.325C142.151 24.2417 141.843 22.975 141.843 21.525C141.843 20.075 142.151 18.8083 142.768 17.725C143.401 16.6417 144.268 15.8167 145.368 15.25C146.468 14.6667 147.709 14.375 149.093 14.375ZM149.093 18.075C148.276 18.075 147.584 18.375 147.018 18.975C146.468 19.5583 146.193 20.4083 146.193 21.525C146.193 22.6417 146.468 23.4917 147.018 24.075C147.584 24.6583 148.276 24.95 149.093 24.95C149.909 24.95 150.593 24.6583 151.143 24.075C151.693 23.4917 151.968 22.6417 151.968 21.525C151.968 20.4083 151.693 19.5583 151.143 18.975C150.593 18.375 149.909 18.075 149.093 18.075ZM178.288 14.375C179.354 14.375 180.271 14.6167 181.038 15.1C181.804 15.5833 182.371 16.2417 182.738 17.075V14.55H186.988V28.5H182.738V25.975C182.371 26.8083 181.804 27.4667 181.038 27.95C180.271 28.4333 179.354 28.675 178.288 28.675C177.138 28.675 176.104 28.3917 175.188 27.825C174.288 27.2417 173.571 26.4083 173.038 25.325C172.521 24.2417 172.263 22.975 172.263 21.525C172.263 20.0583 172.521 18.7917 173.038 17.725C173.571 16.6417 174.288 15.8167 175.188 15.25C176.104 14.6667 177.138 14.375 178.288 14.375ZM179.663 18.125C178.746 18.125 178.004 18.425 177.438 19.025C176.888 19.625 176.613 20.4583 176.613 21.525C176.613 22.5917 176.888 23.425 177.438 24.025C178.004 24.625 178.746 24.925 179.663 24.925C180.563 24.925 181.296 24.6167 181.863 24C182.446 23.3833 182.738 22.5583 182.738 21.525C182.738 20.475 182.446 19.65 181.863 19.05C181.296 18.4333 180.563 18.125 179.663 18.125ZM194.206 17.175C194.739 16.325 195.423 15.65 196.256 15.15C197.106 14.65 198.023 14.4 199.006 14.4V18.975H197.781C196.648 18.975 195.764 19.2167 195.131 19.7C194.514 20.1833 194.206 21 194.206 22.15V28.5H189.931V14.55H194.206V17.175Z" fill="#37393F"/>
<path d="M162.81 10V28.5H158.535V10H162.81ZM170.036 10V28.5H165.761V10H170.036Z" fill="#6B77E5"/>
<path d="M14.3756 6.5H8.49649L25.2608 35.5L28.2003 30.4152L14.3756 6.5Z" fill="#40DDB6"/>
<path d="M5.8791 6.5H0L16.5506 35.1299L19.4084 29.9051L5.8791 6.5Z" fill="#40DDB6"/>
<path d="M32.5307 23.1948L36.3049 16.6629H30.4274L29.5911 18.11L25.433 10.9196H39.62L42.1706 6.5H17L29.5945 28.2863L32.5324 23.1981L32.5307 23.1948Z" fill="#6B77E5"/>
</svg>
