<svg width="171" height="45" viewBox="0 0 171 45" fill="none" xmlns="http://www.w3.org/2000/svg">
<path d="M36.5734 44.5753H8.59466C3.99679 44.5753 0.270508 40.8863 0.270508 36.3344V8.63545C0.270508 4.08356 3.99679 0.394531 8.59466 0.394531H36.5734C41.1713 0.394531 44.8976 4.08356 44.8976 8.63545V36.3344C44.8976 40.8863 41.1713 44.5753 36.5734 44.5753Z" fill="#40DDB6"/>
<path d="M30.6234 22.8914C31.4191 23.8793 31.8234 25.0298 31.8234 26.3304C31.8234 28.2436 31.1792 29.7443 29.8908 30.8072C28.6023 31.8701 26.7581 32.4204 24.3581 32.4204H13.874V10.0986H24.1055C26.4045 10.0986 28.1729 10.5988 29.4234 11.5868C30.6739 12.5747 31.3055 13.9877 31.3055 15.8135C31.3055 17.1641 30.9392 18.277 30.2192 19.1774C29.4992 20.0778 28.5518 20.653 27.3771 20.9281C28.7539 21.2533 29.8276 21.9035 30.6234 22.8914ZM19.3182 19.2274H22.8929C24.7876 19.2274 25.735 18.4271 25.735 16.8264C25.735 15.2258 24.7624 14.4254 22.8298 14.4254H19.3182V19.2274ZM26.2402 25.5801C26.2402 24.7797 25.975 24.1545 25.4445 23.7043C24.914 23.2541 24.1561 23.029 23.1834 23.029H19.3308V28.0436H23.2213C25.2297 28.0311 26.2402 27.2182 26.2402 25.5801Z" fill="white"/>
<path d="M70.754 32.4204L65.8783 23.9919H64.6404V32.4204H59.1836V10.0986H68.493C70.274 10.0986 71.7898 10.3988 73.0151 11.0115C74.253 11.6243 75.1751 12.4621 75.794 13.525C76.4129 14.588 76.7161 15.801 76.7161 17.1766C76.7161 18.8022 76.2614 20.1778 75.3645 21.3158C74.4551 22.4538 73.154 23.2291 71.4235 23.6543L76.7793 32.4329H70.754V32.4204ZM64.6404 20.3029H68.013C69.0993 20.3029 69.8951 20.0653 70.4004 19.5901C70.9056 19.1149 71.1709 18.4146 71.1709 17.4892C71.1709 16.6013 70.9056 15.9135 70.3877 15.4008C69.8698 14.9006 69.074 14.638 68.013 14.638H64.6404V20.3029Z" fill="#37393F"/>
<path d="M101.398 28.3559H92.9474L91.5453 32.4326H85.8105L94.0716 10.2734H100.349L108.61 32.4326H102.813L101.398 28.3559ZM99.9957 24.2417L97.1915 16.0383L94.3495 24.2417H99.9957Z" fill="#37393F"/>
<path d="M138.711 32.4204H133.254L124.135 18.7147V32.4204H118.678V10.0986H124.135L133.254 23.9294V10.0986H138.711V32.4204Z" fill="#37393F"/>
<path d="M169.305 27.0431C168.358 28.7313 166.994 30.0568 165.225 31.0072C163.444 31.9576 161.36 32.4328 158.96 32.4328H150.446V10.1111H158.96C161.385 10.1111 163.482 10.5738 165.238 11.4992C167.006 12.4245 168.358 13.7251 169.305 15.4133C170.252 17.1015 170.72 19.0273 170.72 21.2282C170.72 23.4041 170.24 25.3424 169.305 27.0431ZM163.431 25.9176C164.606 24.8047 165.2 23.229 165.2 21.2157C165.2 19.1898 164.606 17.6267 163.431 16.5137C162.257 15.4008 160.602 14.838 158.467 14.838H155.89V27.5933H158.467C160.602 27.5933 162.257 27.0431 163.431 25.9176Z" fill="#37393F"/>
</svg>
