<svg width="137" height="45" viewBox="0 0 137 45" fill="none" xmlns="http://www.w3.org/2000/svg">
<path d="M12.1372 0.605957V0.797622L11.333 0.989284V9.48143L12.1372 9.6731V9.86476H8.32476V9.6731L9.12895 9.48143V2.24247L5.9718 9.99745H5.56968L1.47432 2.24247V9.27503L2.54656 9.6731V9.86476H0V9.6731L1.07224 9.27503V0.989284L0.268049 0.797622V0.605957H1.93597C2.18914 0.605957 2.41253 0.635443 2.59124 0.694416C2.76994 0.753389 2.94867 0.827106 3.0827 0.930309C3.23163 1.03351 3.35076 1.15146 3.45501 1.28415C3.55926 1.41684 3.64861 1.57902 3.73797 1.74119L6.65683 7.26994L8.89067 1.74119C8.96513 1.54953 9.03961 1.38735 9.14386 1.25466C9.23321 1.12197 9.35232 1.00403 9.48635 0.900825C9.62038 0.797621 9.78422 0.723902 9.97782 0.679672C10.1714 0.635443 10.4097 0.605957 10.7075 0.605957H12.1372Z" fill="#40DDB6"/>
<path d="M16.9028 3.06787C17.4538 3.06787 17.9601 3.14159 18.392 3.30376C18.8239 3.46594 19.1962 3.70183 19.5089 3.9967C19.8216 4.30631 20.045 4.67489 20.2088 5.10245C20.3727 5.53 20.4471 6.03128 20.4471 6.57678C20.4471 7.12228 20.3727 7.62355 20.2088 8.05111C20.045 8.47867 19.8067 8.84725 19.5089 9.15686C19.1962 9.46647 18.8239 9.68762 18.392 9.8498C17.9601 10.012 17.4538 10.0857 16.9028 10.0857C16.3517 10.0857 15.8454 10.012 15.4135 9.8498C14.9817 9.68762 14.6094 9.45173 14.2966 9.15686C13.9839 8.84725 13.7605 8.47867 13.5967 8.05111C13.4329 7.62355 13.3584 7.12228 13.3584 6.57678C13.3584 6.03128 13.4329 5.53 13.5967 5.10245C13.7605 4.67489 13.9988 4.30631 14.2966 3.9967C14.6094 3.68709 14.9817 3.46594 15.4135 3.30376C15.8454 3.14159 16.3369 3.06787 16.9028 3.06787ZM16.9028 9.83505C17.0517 9.83505 17.2006 9.79082 17.3644 9.68762C17.5133 9.58442 17.6474 9.42224 17.7665 9.1716C17.8856 8.92097 17.9899 8.59661 18.0644 8.1838C18.1388 7.75625 18.1835 7.22549 18.1835 6.59152C18.1835 5.94282 18.1388 5.41206 18.0644 4.99924C17.9899 4.58643 17.8856 4.24734 17.7665 4.01144C17.6474 3.77555 17.5133 3.59863 17.3644 3.49543C17.2155 3.39223 17.0666 3.34799 16.9028 3.34799C16.7538 3.34799 16.6049 3.39223 16.4411 3.49543C16.2922 3.59863 16.1581 3.76081 16.039 4.01144C15.9198 4.26208 15.8156 4.58643 15.7412 4.99924C15.6667 5.4268 15.622 5.95756 15.622 6.59152C15.622 7.24023 15.6667 7.77099 15.7412 8.1838C15.8156 8.59661 15.9198 8.93571 16.039 9.1716C16.1581 9.4075 16.2922 9.58442 16.4411 9.68762C16.59 9.77608 16.7389 9.83505 16.9028 9.83505Z" fill="#40DDB6"/>
<path d="M26.9547 0.605957C27.7589 0.605957 28.161 1.00403 28.161 1.80016V9.49618L28.9652 9.68784V9.8795H27.7589C27.4313 9.8795 27.1781 9.83527 26.9845 9.73207C26.7909 9.62887 26.6271 9.51092 26.5228 9.39297C26.3888 9.24554 26.2846 9.06862 26.225 8.8917C26.1059 9.12759 25.9569 9.31926 25.7782 9.49618C25.6293 9.64361 25.4208 9.7763 25.1676 9.90899C24.9145 10.0417 24.6166 10.1007 24.2741 10.1007C23.8869 10.1007 23.5295 10.0269 23.2018 9.8795C22.8593 9.73207 22.5764 9.51092 22.3381 9.21605C22.0998 8.92119 21.8914 8.55261 21.7573 8.12505C21.6084 7.68275 21.5488 7.18148 21.5488 6.59174C21.5488 6.00201 21.6233 5.50074 21.7573 5.05844C21.9063 4.61614 22.0998 4.2623 22.3679 3.96743C22.6211 3.67257 22.9338 3.45142 23.2912 3.30398C23.6487 3.15655 24.0507 3.08283 24.4975 3.08283C24.7358 3.08283 24.9443 3.11232 25.1379 3.15655C25.3315 3.21552 25.4953 3.2745 25.6293 3.34821C25.7931 3.42193 25.9271 3.51039 26.0463 3.61359V1.03351L25.2421 0.84185V0.650188H26.9547V0.605957ZM26.0165 3.99692C25.9123 3.89372 25.8229 3.80526 25.7038 3.73154C25.5995 3.65782 25.4953 3.59885 25.3761 3.53988C25.257 3.4809 25.1379 3.46616 25.0038 3.46616C24.84 3.46616 24.6762 3.51039 24.5273 3.59885C24.3784 3.68731 24.2592 3.83474 24.1401 4.05589C24.0358 4.27704 23.9465 4.6014 23.8869 4.99946C23.8274 5.41228 23.7976 5.92829 23.7976 6.577C23.7976 7.21096 23.8274 7.71224 23.8869 8.11031C23.9465 8.50837 24.021 8.81798 24.1252 9.03913C24.2146 9.26028 24.3188 9.42246 24.4528 9.49618C24.572 9.56989 24.6911 9.61412 24.8102 9.61412C25.0187 9.61412 25.1974 9.55515 25.3463 9.45195C25.4953 9.34874 25.6144 9.21605 25.7186 9.08336C25.8378 8.92119 25.9421 8.74427 26.0314 8.5526V3.99692H26.0165Z" fill="#40DDB6"/>
<path d="M33.4479 10.1003C32.3012 10.1003 31.4077 9.79073 30.7822 9.17151C30.1419 8.55229 29.8291 7.68243 29.8291 6.59143C29.8291 6.04593 29.9036 5.54465 30.0674 5.1171C30.2312 4.68954 30.4546 4.32096 30.7376 4.01135C31.0205 3.70174 31.363 3.48059 31.78 3.31841C32.1821 3.15624 32.6288 3.08252 33.1203 3.08252C33.6266 3.08252 34.0734 3.15624 34.4606 3.28893C34.8627 3.43636 35.1903 3.62802 35.4733 3.86392C35.7562 4.09981 35.9647 4.37993 36.1136 4.70429C36.2626 5.02864 36.337 5.36773 36.337 5.73632C36.337 5.85426 36.337 5.97221 36.3221 6.06067C36.3072 6.14913 36.2924 6.23759 36.2775 6.31131C36.2477 6.39977 36.2328 6.47348 36.203 6.53246C35.8158 6.60617 35.3988 6.67989 34.952 6.72412C34.5797 6.78309 34.1479 6.82732 33.6564 6.85681C33.165 6.88629 32.6586 6.91578 32.1225 6.91578C32.1225 7.46129 32.1672 7.91833 32.2416 8.28691C32.3161 8.65549 32.4352 8.95036 32.5693 9.15676C32.7182 9.37791 32.882 9.52535 33.0756 9.61381C33.2692 9.70227 33.4926 9.7465 33.716 9.7465C33.9841 9.7465 34.2372 9.70227 34.4755 9.59907C34.7137 9.49586 34.9222 9.37792 35.0861 9.21574C35.2648 9.05356 35.3988 8.8619 35.503 8.65549C35.6073 8.44909 35.652 8.24268 35.652 8.02153H35.9796C35.9796 8.28691 35.92 8.53755 35.8009 8.78818C35.6818 9.03882 35.5031 9.25997 35.2797 9.45163C35.0563 9.6433 34.7882 9.79073 34.4755 9.90867C34.1776 10.0414 33.8351 10.1003 33.4479 10.1003ZM32.1076 6.57668C32.4055 6.57668 32.6735 6.57669 32.9118 6.56194C33.1501 6.5472 33.3437 6.53246 33.5075 6.51771C33.7011 6.50297 33.85 6.47348 33.984 6.45874C33.9989 6.37028 34.0287 6.26708 34.0436 6.16387C34.0585 6.06067 34.0734 5.95746 34.0883 5.83952C34.1032 5.72157 34.1032 5.58888 34.1032 5.45619C34.1032 5.05812 34.0734 4.71903 34.0138 4.45365C33.9542 4.18827 33.8798 3.96712 33.7755 3.7902C33.6862 3.62802 33.5819 3.49533 33.4479 3.43636C33.3139 3.37739 33.2096 3.33316 33.0905 3.33316C32.9714 3.33316 32.8522 3.37739 32.7331 3.46585C32.614 3.55431 32.5097 3.71648 32.4055 3.93763C32.3161 4.17352 32.2268 4.49788 32.1672 4.92543C32.1076 5.35299 32.1076 5.89849 32.1076 6.57668Z" fill="#40DDB6"/>
<path d="M41.9664 3.52504C41.6984 3.52504 41.4601 3.58401 41.2516 3.68721C41.0431 3.79042 40.8644 3.92311 40.7155 4.0558C40.5517 4.21797 40.4176 4.39489 40.2836 4.58656V9.49608L41.0878 9.68774V9.87941H37.335V9.68774L38.1392 9.49608V3.65773L37.335 3.46606V3.2744H38.5412C38.854 3.2744 39.1071 3.33337 39.3156 3.43658C39.5092 3.53978 39.673 3.65773 39.7922 3.77567C39.9262 3.92311 40.0305 4.08528 40.09 4.2622C40.2241 4.07054 40.3879 3.89362 40.5815 3.73144C40.7453 3.59875 40.9538 3.48081 41.207 3.36286C41.4601 3.24491 41.7431 3.20068 42.0856 3.20068C42.5621 3.20068 42.9196 3.31863 43.1578 3.52504C43.3961 3.74619 43.5003 4.0558 43.5003 4.45387C43.5003 4.74873 43.411 4.99937 43.2323 5.17629C43.0536 5.35321 42.8004 5.44167 42.5026 5.44167C42.4281 5.44167 42.3685 5.44167 42.2941 5.44167C42.2196 5.44167 42.1749 5.42692 42.1303 5.42692C42.0707 5.41218 42.0111 5.41218 41.9664 5.38269V3.52504Z" fill="#40DDB6"/>
<path d="M49.2633 5.25022C49.2633 4.95535 49.2335 4.68998 49.1739 4.46883C49.1143 4.24768 49.0399 4.07076 48.9357 3.93807C48.8463 3.79063 48.7421 3.68743 48.608 3.62846C48.4889 3.56948 48.3697 3.52525 48.2506 3.52525C48.0421 3.52525 47.8634 3.58423 47.7145 3.68743C47.5656 3.79063 47.4316 3.92332 47.3422 4.05601C47.2231 4.21819 47.1337 4.39511 47.0443 4.58677V9.4963L47.8485 9.68796V9.87962H44.0957V9.68796L44.8999 9.4963V3.65794L44.0957 3.46628V3.27462H45.302C45.6147 3.27462 45.8679 3.33359 46.0764 3.43679C46.27 3.54 46.4338 3.65794 46.5529 3.77589C46.6869 3.92332 46.7912 4.0855 46.8507 4.26242C46.9699 4.04127 47.1188 3.83486 47.2975 3.65794C47.4464 3.51051 47.6549 3.37782 47.8932 3.24513C48.1315 3.11244 48.4442 3.05347 48.8016 3.05347C49.1888 3.05347 49.5463 3.11244 49.859 3.24513C50.1866 3.36308 50.4547 3.54 50.678 3.73166C50.9014 3.93807 51.0802 4.15922 51.2142 4.4246C51.3482 4.68998 51.4078 4.95535 51.4078 5.23548V9.48155L52.2119 9.67322V9.86488H50.4696C49.6654 9.86488 49.2633 9.46681 49.2633 8.67067V5.25022Z" fill="#40DDB6"/>
<path d="M1.41504 19.1974V18.6519H11.7651V19.1974L9.59086 19.7429V30.8741H17.3944V19.7429L15.2201 19.1974V18.6519H25.5703V19.1974L23.396 19.7429V42.7424L25.5703 43.2879V43.8334H15.2201V43.2732L17.3944 42.7277V31.7734H9.59086V42.7277L11.7651 43.2732V43.8187H1.41504V43.2732L3.58929 42.7277V19.7281L1.41504 19.1974Z" fill="#37393F"/>
<path d="M38.4368 25.301C39.9409 25.301 41.2812 25.5222 42.4726 25.9497C43.6639 26.3773 44.6617 27.0113 45.4957 27.8369C46.3297 28.6625 46.97 29.665 47.4019 30.8445C47.8338 32.024 48.0572 33.3509 48.0572 34.84C48.0572 36.329 47.8338 37.6559 47.4019 38.8354C46.97 40.0149 46.3297 41.0027 45.4957 41.8283C44.6617 42.6539 43.6491 43.2879 42.4726 43.7154C41.2812 44.143 39.9409 44.3641 38.4368 44.3641C36.9327 44.3641 35.5924 44.143 34.401 43.7154C33.2096 43.2879 32.2118 42.6539 31.3779 41.8283C30.5439 41.0027 29.9035 40.0001 29.4717 38.8354C29.0398 37.6559 28.8164 36.329 28.8164 34.84C28.8164 33.3509 29.0398 32.024 29.4717 30.8445C29.9035 29.665 30.5439 28.6772 31.3779 27.8369C32.2118 26.9965 33.2245 26.3773 34.401 25.9497C35.5924 25.5222 36.9327 25.301 38.4368 25.301ZM38.4368 43.627C38.8538 43.627 39.2559 43.4943 39.6729 43.2289C40.0898 42.9635 40.4472 42.5065 40.7749 41.843C41.1025 41.1796 41.3706 40.2802 41.5791 39.145C41.7876 38.0098 41.8918 36.5649 41.8918 34.8105C41.8918 33.056 41.7876 31.6112 41.5791 30.4759C41.3706 29.3407 41.1025 28.4414 40.7749 27.7779C40.4472 27.1145 40.075 26.6574 39.6729 26.392C39.2708 26.1267 38.8538 25.994 38.4368 25.994C38.0198 25.994 37.6177 26.1267 37.2007 26.392C36.7838 26.6574 36.4263 27.1145 36.0987 27.7779C35.7711 28.4414 35.503 29.3407 35.2945 30.4759C35.086 31.6112 34.9818 33.056 34.9818 34.8105C34.9818 36.5649 35.086 38.0098 35.2945 39.145C35.503 40.2802 35.7711 41.1796 36.0987 41.843C36.4263 42.5065 36.7987 42.9635 37.2007 43.2289C37.6177 43.4943 38.0198 43.627 38.4368 43.627Z" fill="#37393F"/>
<path d="M75.2653 31.2283C75.2653 30.3732 75.1909 29.636 75.042 29.061C74.893 28.486 74.7143 27.9995 74.4761 27.6309C74.2378 27.2623 73.9846 26.9969 73.7165 26.82C73.4336 26.6578 73.1655 26.5694 72.8975 26.5694C72.4358 26.5694 72.0337 26.7168 71.6763 27.0117C71.3189 27.3066 71.0211 27.6457 70.753 27.9995C70.47 28.427 70.202 28.9136 69.9935 29.4296V42.7281L72.1826 43.2736V43.8191H62.0261V43.2736L64.2004 42.7281V31.2283C64.2004 30.3732 64.1259 29.636 63.977 29.061C63.8281 28.486 63.6494 27.9995 63.4111 27.6309C63.1728 27.2623 62.9197 26.9969 62.6516 26.82C62.3687 26.6578 62.1006 26.5694 61.8325 26.5694C61.3709 26.5694 60.9688 26.7168 60.6114 27.0117C60.254 27.3066 59.9561 27.6457 59.688 27.9995C59.3902 28.427 59.137 28.9136 58.9286 29.4296V42.7281L61.1028 43.2736V43.8191H50.9463V43.2736L53.1206 42.7281V26.9232L50.9463 26.3777V25.8322H54.2077C55.0566 25.8322 55.7565 25.9797 56.2926 26.2598C56.8436 26.5399 57.2606 26.8642 57.5883 27.1886C57.9457 27.6014 58.2137 28.0437 58.3924 28.5155C58.7051 27.911 59.0923 27.3803 59.554 26.8937C59.971 26.4809 60.4774 26.1123 61.073 25.7732C61.6836 25.4341 62.4133 25.272 63.292 25.272C64.7365 25.272 66.0023 25.5963 67.0448 26.2303C68.1021 26.8643 68.9064 27.6899 69.4574 28.6924C69.7701 28.0732 70.1573 27.513 70.619 26.9969C71.036 26.5694 71.5423 26.1713 72.138 25.8175C72.7485 25.4636 73.4783 25.272 74.3569 25.272C75.3547 25.272 76.2482 25.4341 77.0822 25.7438C77.9013 26.0534 78.6161 26.4809 79.2118 27.0264C79.8075 27.5719 80.2691 28.1912 80.5967 28.9136C80.9244 29.636 81.0882 30.4026 81.0882 31.2135V42.7133L83.2625 43.2588V43.8043H78.5416C76.3673 43.8043 75.2802 42.7281 75.2802 40.5755V31.2283H75.2653Z" fill="#37393F"/>
<path d="M95.2356 44.3497C92.1381 44.3497 89.7255 43.5094 88.0129 41.8139C86.3003 40.1184 85.4365 37.8037 85.4365 34.8255C85.4365 33.3365 85.6599 32.0096 86.0918 30.8301C86.5237 29.6506 87.1342 28.6628 87.9086 27.8225C88.683 26.9968 89.6213 26.3629 90.7233 25.9353C91.8253 25.5078 93.0316 25.2866 94.3272 25.2866C95.6824 25.2866 96.9036 25.4783 97.9758 25.8616C99.0481 26.2449 99.9714 26.761 100.716 27.4097C101.461 28.0584 102.041 28.825 102.443 29.6949C102.846 30.5647 103.039 31.4936 103.039 32.4814C103.039 32.8205 103.024 33.1153 102.98 33.366C102.935 33.6166 102.905 33.8377 102.846 34.0294C102.771 34.2653 102.712 34.4717 102.667 34.6339C101.595 34.855 100.478 35.032 99.2863 35.1794C98.2737 35.3268 97.0972 35.4448 95.7717 35.5627C94.4463 35.6659 93.0465 35.7249 91.6019 35.7249C91.6019 37.214 91.7062 38.4524 91.9296 39.4402C92.1529 40.428 92.4508 41.2241 92.838 41.8139C93.2252 42.4036 93.6868 42.8164 94.2229 43.0671C94.7591 43.3177 95.3399 43.4504 95.9653 43.4504C96.6951 43.4504 97.3801 43.3177 98.0205 43.0523C98.6609 42.7869 99.2119 42.4331 99.6884 41.9908C100.165 41.5485 100.537 41.0472 100.82 40.487C101.103 39.9267 101.237 39.3517 101.237 38.7768H102.146C102.146 39.4992 101.982 40.1921 101.654 40.8556C101.327 41.5338 100.865 42.1235 100.254 42.6395C99.6437 43.1555 98.9289 43.5683 98.0801 43.8779C97.2163 44.1875 96.2632 44.3497 95.2356 44.3497ZM91.6019 34.8255C92.421 34.8255 93.1507 34.8108 93.7762 34.7666C94.4017 34.7223 94.9378 34.6929 95.3697 34.6486C95.876 34.6044 96.3079 34.5454 96.6802 34.4717C96.7249 34.2358 96.7844 33.9704 96.8589 33.6756C96.9036 33.4102 96.9482 33.1153 96.978 32.791C97.0078 32.4666 97.0376 32.1275 97.0376 31.7737C97.0376 30.6974 96.9482 29.7981 96.7844 29.0609C96.6206 28.3237 96.3972 27.734 96.144 27.277C95.8909 26.8199 95.5931 26.4956 95.2803 26.3039C94.9527 26.1122 94.625 26.009 94.3123 26.009C93.9995 26.009 93.6719 26.127 93.3443 26.3481C93.0167 26.584 92.7337 27.0116 92.4806 27.6455C92.2274 28.2795 92.0189 29.1789 91.8402 30.3288C91.6913 31.4788 91.6019 32.9826 91.6019 34.8255Z" fill="#37393F"/>
<path d="M120.865 43.45V28.8689L107.85 18.6665V43.45H120.865Z" fill="#6B77E5"/>
<path d="M136.964 43.45V28.8689L124.156 18.6665V43.45H136.964Z" fill="#6B77E5"/>
</svg>
