<svg width="121" height="73" viewBox="0 0 121 73" fill="none" xmlns="http://www.w3.org/2000/svg">
<path d="M62.1666 61.6057C48.4501 75.5819 25.9236 75.7968 11.9474 62.0713C11.3386 61.4714 10.7477 60.8537 10.1836 60.218L11.5266 59.0361C12.0638 59.636 12.6189 60.2359 13.2009 60.7999C26.4697 73.827 47.8682 73.6301 60.8953 60.3523L62.1666 61.6057Z" fill="#40DDB6"/>
<path d="M64.1539 14.0549L62.775 15.2009C62.0409 14.3235 61.253 13.464 60.4382 12.6582C47.1694 -0.368921 25.7709 -0.162994 12.7438 13.1058C11.8574 14.0101 11.0069 14.9771 10.2279 15.9709L8.82227 14.8697C9.63702 13.8221 10.5324 12.8104 11.4725 11.8524C25.189 -2.12377 47.7155 -2.33865 61.6917 11.3779C62.5602 12.2284 63.3839 13.1327 64.1539 14.0549Z" fill="#40DDB6"/>
<path d="M111.571 12.7835L110.228 13.9653C109.69 13.3654 109.135 12.7656 108.553 12.2015C96.332 0.212991 77.0734 -0.736062 63.7687 10.0079L62.6406 8.61122C76.6526 -2.7058 96.9229 -1.71198 109.798 10.9212C110.416 11.53 111.007 12.1478 111.571 12.7835Z" fill="#40DDB6"/>
<path d="M110.273 61.1586C98.3916 73.2635 79.518 75.278 65.3896 65.9486L66.3745 64.4534C79.7866 73.3082 97.7112 71.3922 108.992 59.9051C109.879 59.0008 110.729 58.0339 111.508 57.04L112.914 58.1413C112.099 59.1888 111.213 60.2006 110.273 61.1586Z" fill="#40DDB6"/>
<path d="M5.48242 55.1603L5.90323 54.9006L6.73589 56.2436L7.66704 55.6617L7.01344 54.6141L7.43425 54.3545L8.08784 55.402L9.47561 54.5425L9.79793 55.0618L6.62845 57.0315L5.48242 55.1603Z" fill="#37393F"/>
<path d="M6.584 50.0482L6.10052 48.8843L6.55714 48.6963L7.28236 50.4243L3.83533 51.8568L3.60254 51.2928L6.584 50.0482Z" fill="#37393F"/>
<path d="M5.22282 45.1325C5.12433 45.4548 4.95422 45.7323 4.70353 45.9562C4.45283 46.189 4.15737 46.3412 3.79924 46.4217C3.44111 46.5023 3.10088 46.4934 2.78751 46.3859C2.47415 46.2785 2.19659 46.1084 1.97276 45.8577C1.74893 45.607 1.59672 45.3115 1.52509 44.9713C1.44451 44.6311 1.45347 44.2998 1.55195 43.9775C1.65044 43.6552 1.82055 43.3866 2.06229 43.1538C2.31299 42.9299 2.60845 42.7777 2.96658 42.6972C3.32471 42.6166 3.66494 42.6255 3.98726 42.733C4.30958 42.8315 4.57818 43.0016 4.80201 43.2523C5.02585 43.503 5.17805 43.7984 5.24968 44.1386C5.33026 44.4789 5.31235 44.8101 5.22282 45.1325ZM4.42597 43.6462C4.27377 43.4851 4.08575 43.3687 3.85296 43.306C3.62017 43.2433 3.37843 43.2433 3.10983 43.306C2.84123 43.3687 2.6174 43.4761 2.43833 43.6283C2.25927 43.7805 2.13392 43.9596 2.07125 44.1745C2.00857 44.3893 1.99962 44.6132 2.05334 44.8549C2.10706 45.0966 2.20555 45.3026 2.35775 45.4637C2.50996 45.6249 2.69798 45.7413 2.92181 45.804C3.14565 45.8666 3.39634 45.8666 3.66494 45.804C3.93354 45.7413 4.15737 45.6339 4.33644 45.4816C4.51551 45.3294 4.64085 45.1504 4.71248 44.9355C4.78411 44.7206 4.78411 44.4968 4.73039 44.255C4.67667 44.0133 4.57818 43.8163 4.42597 43.6462Z" fill="#37393F"/>
<path d="M4.39042 37.2266L2.93103 38.1398L2.94893 38.6054L4.44414 38.5517L4.46205 39.1605L0.728508 39.2859L0.683742 38.0055C0.674788 37.719 0.719555 37.4773 0.809088 37.2714C0.898622 37.0654 1.03292 36.9132 1.19408 36.8148C1.35524 36.7073 1.54326 36.6536 1.74919 36.6446C1.99093 36.6357 2.21476 36.6984 2.42069 36.8327C2.62661 36.967 2.76987 37.1818 2.85045 37.4683L4.36356 36.4924L4.39042 37.2266ZM2.4565 38.6233L2.42964 37.9429C2.42069 37.7101 2.35801 37.54 2.24162 37.4325C2.12523 37.3161 1.96407 37.2714 1.77605 37.2714C1.58803 37.2803 1.43582 37.343 1.32838 37.4594C1.22094 37.5758 1.17617 37.7549 1.18513 37.9876L1.21199 38.6591L2.4565 38.6233Z" fill="#37393F"/>
<path d="M4.0863 30.9061L3.87142 32.455L4.58769 32.831L4.49815 33.4667L0.979492 31.6223L1.07798 30.924L4.96373 30.1182L4.87419 30.7538L4.0863 30.9061ZM3.56701 31.0045L1.76739 31.3627L3.40585 32.2043L3.56701 31.0045Z" fill="#37393F"/>
<path d="M5.41071 26.3393L5.7778 25.1306L6.25232 25.2739L5.70617 27.0645L2.13379 25.9812L2.31286 25.3992L5.41071 26.3393Z" fill="#37393F"/>
<path d="M7.49745 21.8806C7.32734 22.0238 7.14827 22.1133 6.96025 22.1492C6.76328 22.185 6.57526 22.1581 6.37828 22.0596L6.66479 21.4687C6.817 21.5224 6.96025 21.5224 7.1035 21.4687C7.24676 21.415 7.36315 21.2896 7.45268 21.1106C7.54222 20.9226 7.56908 20.7524 7.52431 20.6002C7.4885 20.448 7.39001 20.3406 7.24676 20.269C7.13036 20.2152 7.02292 20.2063 6.92444 20.2331C6.82595 20.269 6.72746 20.3227 6.63793 20.4033C6.55735 20.4838 6.44991 20.6002 6.31561 20.7524C6.15445 20.9405 6.0112 21.0927 5.88585 21.2001C5.7605 21.3075 5.6083 21.3792 5.43818 21.415C5.26807 21.4508 5.0711 21.415 4.86517 21.3165C4.6682 21.227 4.52494 21.0927 4.42646 20.9315C4.32797 20.7614 4.2832 20.5734 4.2832 20.3674C4.29216 20.1526 4.34588 19.9377 4.45332 19.7049C4.60552 19.3826 4.8204 19.1498 5.08005 19.0155C5.3397 18.8812 5.61725 18.8812 5.91271 18.9886L5.61725 19.5975C5.4919 19.5527 5.36656 19.5616 5.2233 19.6243C5.089 19.687 4.97261 19.8123 4.89203 19.9825C4.8204 20.1436 4.79354 20.2869 4.82936 20.4301C4.86517 20.5734 4.9547 20.6719 5.10691 20.7435C5.21435 20.7972 5.31284 20.8062 5.40237 20.7703C5.50086 20.7435 5.59039 20.6808 5.67097 20.6092C5.75155 20.5286 5.85899 20.4212 5.98434 20.269C6.15445 20.072 6.2977 19.9198 6.432 19.8123C6.55735 19.7049 6.70956 19.6243 6.88862 19.5885C7.06769 19.5527 7.25571 19.5796 7.47059 19.687C7.6407 19.7676 7.78396 19.8929 7.8914 20.0541C7.99884 20.2152 8.05256 20.4122 8.06151 20.6271C8.07046 20.8509 8.01674 21.0748 7.90035 21.3165C7.80186 21.5493 7.66756 21.7373 7.49745 21.8806Z" fill="#37393F"/>
<path d="M116.155 18.4868L115.725 18.7375L114.928 17.3676L113.979 17.9227L114.597 18.9882L114.167 19.2389L113.549 18.1734L112.134 18.9971L111.83 18.4689L115.062 16.5977L116.155 18.4868Z" fill="#37393F"/>
<path d="M114.91 23.563L115.358 24.7448L114.901 24.9239L114.229 23.169L117.712 21.835L117.927 22.408L114.91 23.563Z" fill="#37393F"/>
<path d="M116.128 28.5228C116.235 28.2005 116.414 27.9319 116.665 27.717C116.916 27.5021 117.229 27.3499 117.587 27.2783C117.945 27.2066 118.286 27.2335 118.599 27.3409C118.912 27.4573 119.181 27.6364 119.396 27.896C119.611 28.1557 119.754 28.4511 119.817 28.7914C119.879 29.1316 119.861 29.4629 119.754 29.7852C119.647 30.0986 119.468 30.3672 119.217 30.591C118.966 30.8148 118.662 30.9581 118.304 31.0208C117.945 31.0924 117.605 31.0655 117.292 30.9581C116.97 30.8506 116.71 30.6626 116.495 30.4119C116.28 30.1523 116.137 29.8568 116.074 29.5076C116.003 29.1674 116.021 28.8361 116.128 28.5228ZM116.88 30.0269C117.032 30.197 117.211 30.3134 117.444 30.3851C117.677 30.4567 117.919 30.4567 118.187 30.4119C118.456 30.3582 118.68 30.2597 118.868 30.1165C119.047 29.9732 119.181 29.7941 119.253 29.5793C119.324 29.3644 119.333 29.1406 119.288 28.8988C119.244 28.6571 119.145 28.4511 119.002 28.281C118.859 28.1109 118.671 27.9945 118.447 27.9229C118.223 27.8513 117.972 27.8513 117.704 27.896C117.435 27.9498 117.202 28.0482 117.023 28.1915C116.844 28.3348 116.71 28.5138 116.638 28.7287C116.567 28.9436 116.549 29.1674 116.594 29.4091C116.638 29.6509 116.737 29.8568 116.88 30.0269Z" fill="#37393F"/>
<path d="M116.728 36.4472L118.214 35.5787V35.1131L116.719 35.1221V34.5133L120.452 34.4954L120.461 35.7846C120.461 36.0712 120.416 36.3129 120.318 36.5099C120.219 36.7068 120.085 36.859 119.915 36.9575C119.745 37.056 119.557 37.1097 119.351 37.1097C119.109 37.1097 118.885 37.0381 118.688 36.9038C118.492 36.7695 118.348 36.5457 118.277 36.2502L116.737 37.1814L116.728 36.4472ZM118.697 35.1042V35.7846C118.697 36.0174 118.76 36.1875 118.876 36.3039C118.993 36.4203 119.145 36.4741 119.342 36.4741C119.539 36.4741 119.682 36.4114 119.799 36.3039C119.906 36.1875 119.96 36.0174 119.96 35.7846V35.1042H118.697Z" fill="#37393F"/>
<path d="M116.844 42.7678L117.103 41.2279L116.396 40.8339L116.504 40.1982L119.968 42.1411L119.852 42.8395L115.939 43.5378L116.047 42.9021L116.844 42.7678ZM117.372 42.6873L119.181 42.3739L117.569 41.4786L117.372 42.6873Z" fill="#37393F"/>
<path d="M115.394 47.2988L114.991 48.4985L114.525 48.3374L115.116 46.5557L118.662 47.7375L118.465 48.3195L115.394 47.2988Z" fill="#37393F"/>
<path d="M113.182 51.6946C113.352 51.5603 113.531 51.4708 113.728 51.4439C113.925 51.4171 114.113 51.4529 114.31 51.5514L114.014 52.1333C113.862 52.0707 113.719 52.0707 113.576 52.1244C113.432 52.1781 113.316 52.2945 113.218 52.4736C113.119 52.6616 113.092 52.8317 113.128 52.9839C113.164 53.1361 113.253 53.2525 113.397 53.3241C113.504 53.3779 113.612 53.3958 113.719 53.3689C113.826 53.342 113.916 53.2883 114.005 53.2077C114.095 53.1272 114.202 53.0197 114.337 52.8675C114.507 52.6795 114.65 52.5362 114.784 52.4288C114.91 52.3214 115.062 52.2587 115.232 52.2229C115.402 52.1871 115.599 52.2318 115.805 52.3393C115.993 52.4378 116.136 52.5721 116.235 52.7422C116.333 52.9123 116.369 53.1003 116.36 53.3152C116.351 53.5301 116.28 53.7449 116.163 53.9688C116.002 54.2911 115.778 54.5149 115.519 54.6403C115.25 54.7656 114.972 54.7656 114.677 54.6403L114.99 54.0404C115.116 54.0941 115.25 54.0852 115.393 54.0314C115.536 53.9688 115.644 53.8524 115.733 53.6823C115.814 53.5301 115.841 53.3779 115.814 53.2346C115.787 53.0913 115.698 52.9839 115.545 52.9123C115.447 52.8586 115.348 52.8496 115.25 52.8765C115.151 52.9033 115.062 52.957 114.972 53.0287C114.883 53.1003 114.775 53.2167 114.65 53.3599C114.48 53.548 114.328 53.7002 114.193 53.8076C114.059 53.9151 113.907 53.9867 113.737 54.0225C113.558 54.0583 113.37 54.0135 113.155 53.9061C112.985 53.8166 112.85 53.6912 112.752 53.5211C112.645 53.351 112.6 53.163 112.591 52.9391C112.591 52.7153 112.653 52.4915 112.77 52.2587C112.868 52.0169 113.012 51.8379 113.182 51.6946Z" fill="#37393F"/>
<path d="M34.2233 28.7025C35.2977 28.7025 36.1124 28.5771 36.6765 28.3354C37.2316 28.0847 37.5987 27.8967 37.7688 27.7713C37.7688 28.031 37.7151 28.3443 37.6076 28.7025C37.5002 29.0696 37.3032 29.4187 37.0257 29.7679C36.7481 30.1081 36.381 30.4036 35.9333 30.6364C35.4857 30.8692 34.9127 30.9945 34.2233 30.9945C33.3458 30.9945 32.4953 30.8244 31.6805 30.4931C30.8658 30.1619 30.06 29.8037 29.2631 29.4098C28.4663 29.0248 27.6873 28.6667 26.9084 28.3264C26.1295 27.9862 25.3416 27.825 24.5268 27.825C23.6494 27.825 22.8704 27.9683 22.2079 28.2459C21.5453 28.5234 20.9813 28.8994 20.5157 29.3561C20.0501 29.8216 19.6741 30.3409 19.3697 30.9319C19.0653 31.5228 18.8235 32.1226 18.6445 32.7404C18.4654 33.3493 18.3401 33.9491 18.2774 34.5311C18.2147 35.1131 18.1789 35.6234 18.1789 36.08C18.1789 36.7068 18.2326 37.1902 18.34 37.5484C18.4475 37.9065 18.5191 38.1303 18.5639 38.2378V38.2736C18.1162 38.1482 17.7044 37.9602 17.3373 37.7274C17.0329 37.5126 16.7643 37.226 16.5136 36.859C16.2629 36.4919 16.1465 36.0173 16.1465 35.4443C16.1465 34.54 16.3435 33.6089 16.7464 32.6419C17.1403 31.675 17.6954 30.7976 18.4027 30.0007C19.11 29.2039 19.9696 28.5503 20.9813 28.031C21.993 27.5117 23.1122 27.261 24.3298 27.261C25.0371 27.261 25.825 27.3326 26.6846 27.4848C27.5441 27.637 28.4215 27.7982 29.3079 27.9862C30.2032 28.1653 31.0717 28.3354 31.9223 28.4876C32.7639 28.6308 33.5339 28.7025 34.2233 28.7025ZM22.1005 45.2124C22.1005 44.9975 22.1631 44.6394 22.2795 44.138C22.3959 43.6366 22.5571 43.0368 22.763 42.3384C22.9689 41.64 23.2017 40.8611 23.4703 40.0016C23.7389 39.1421 24.0165 38.2557 24.294 37.3335C23.7121 37.4588 23.2286 37.5215 22.8436 37.5215C22.5839 37.5215 22.3691 37.4767 22.1989 37.3962C22.0288 37.3156 21.8856 37.2171 21.7781 37.1007C21.6707 36.9843 21.5991 36.8769 21.5543 36.7694C21.5095 36.662 21.4916 36.5814 21.4916 36.5098C21.5543 36.5725 21.6796 36.6441 21.8587 36.7157C22.0378 36.7873 22.2437 36.8321 22.4586 36.8321C22.6914 36.8321 22.9958 36.7963 23.3629 36.7157C23.73 36.6441 24.1239 36.5456 24.5537 36.4382C24.7685 35.6592 24.9834 34.8892 25.1983 34.1282C25.4132 33.3582 25.6012 32.6509 25.7624 32.0063C25.9235 31.3616 26.0489 30.8065 26.1474 30.3409C26.2458 29.8754 26.2906 29.5441 26.2906 29.3561C26.2906 29.2665 26.2906 29.1949 26.2906 29.1322C26.2906 29.0696 26.2817 28.9621 26.2548 28.8099C26.407 28.8547 26.6219 28.9263 26.8994 29.0337C27.177 29.1412 27.4456 29.2665 27.7052 29.4008C27.9649 29.5441 28.1887 29.6784 28.3857 29.8037C28.5827 29.9291 28.6722 30.0276 28.6722 30.0902C28.6722 30.4305 28.5289 31.1109 28.2335 32.1226C27.947 33.1344 27.5799 34.3252 27.1501 35.704C27.7769 35.5339 28.2782 35.3727 28.6632 35.2384C29.0482 35.0952 29.4064 34.9967 29.7287 34.934C29.7287 34.7639 29.7108 34.6296 29.666 34.549C29.9436 34.5938 30.2301 34.6385 30.5166 34.6743C30.8031 34.7191 31.0717 34.7728 31.3224 34.8355C31.5731 34.8982 31.77 34.9788 31.9223 35.0772C32.0745 35.1757 32.1461 35.2832 32.1461 35.4175C32.1461 35.6144 32.1013 35.8383 32.0207 36.0979C31.9312 36.3576 31.8417 36.6262 31.7342 36.9037C31.6268 37.1813 31.5373 37.4588 31.4567 37.7453C31.3761 38.0318 31.3582 38.2915 31.3761 38.5511C31.2239 38.5511 31.009 38.5511 30.7315 38.5511C30.4539 38.5511 30.1764 38.5422 29.9078 38.5153C29.6392 38.4974 29.4064 38.4437 29.2004 38.3721C28.9945 38.3004 28.896 38.1751 28.896 38.005C28.896 37.8796 28.9318 37.7095 29.0124 37.5036C29.084 37.2977 29.1736 37.0828 29.2721 36.8411C29.3706 36.6083 29.4601 36.3665 29.5496 36.1337C29.6392 35.901 29.7018 35.695 29.7466 35.5249C29.3795 35.6324 28.9856 35.7846 28.5558 35.9726C28.126 36.1696 27.5888 36.3665 26.9442 36.5814C26.6666 37.5305 26.3801 38.4885 26.0936 39.4644C25.8071 40.4403 25.5385 41.3714 25.3057 42.2489C25.073 43.1263 24.867 43.9231 24.7059 44.6215C24.5447 45.3199 24.4552 45.875 24.4283 46.2779C24.3388 46.26 24.1687 46.2062 23.909 46.1167C23.6494 46.0272 23.3897 45.9376 23.1211 45.8392C22.8525 45.7407 22.6197 45.6422 22.4138 45.5347C22.2079 45.4273 22.1005 45.3199 22.1005 45.2124Z" fill="#6B77E5"/>
<path d="M92.7871 42.4553C92.9393 41.9002 93.1811 41.0228 93.5124 39.8409C93.8436 38.6591 94.2555 37.3429 94.739 35.8925C95.2224 34.4421 95.7775 32.9469 96.4132 31.4158C97.0489 29.8759 97.7204 28.4791 98.4456 27.2078C99.1619 25.9364 99.9319 24.8978 100.738 24.0831C101.543 23.2683 102.376 22.8564 103.236 22.8564C103.558 22.8564 103.862 22.9639 104.158 23.1788C104.444 23.3936 104.713 23.6264 104.946 23.8861C105.205 24.1905 105.447 24.5307 105.689 24.9157C105.626 24.8978 105.546 24.8709 105.465 24.853C105.402 24.8351 105.322 24.8083 105.241 24.7904C105.152 24.7725 105.071 24.7546 104.982 24.7546C103.889 24.7546 102.851 25.1395 101.884 25.9185C100.917 26.6885 100.012 27.6733 99.1798 28.8641C98.3382 30.0549 97.5861 31.38 96.9057 32.8305C96.2252 34.2809 95.6343 35.6866 95.115 37.0385C94.5957 38.3905 94.166 39.6171 93.8078 40.7094C93.4497 41.8017 93.199 42.5985 93.0468 43.091C93.1721 43.3506 93.3064 43.5118 93.4318 43.5745C92.9572 43.6371 92.5185 43.6461 92.1067 43.5924C91.6948 43.5386 91.3367 43.3864 91.0144 43.1447C90.6921 42.894 90.4324 42.5448 90.2444 42.0793C90.0474 41.6137 89.94 41.0317 89.9221 40.3244C89.9042 39.6619 89.8773 38.8113 89.8594 37.7906C89.8415 36.7699 89.8146 35.7492 89.7967 34.7286C89.7788 33.7079 89.7609 32.7946 89.752 31.9888C89.743 31.183 89.734 30.6727 89.734 30.4578V29.9385C89.5639 30.4578 89.2685 31.2815 88.8656 32.4186C88.4537 33.5557 87.9523 34.836 87.3525 36.2506C86.7526 37.6653 86.0811 39.1246 85.338 40.6199C84.5948 42.1151 83.8159 43.4849 83.0011 44.7294C82.1864 45.9739 81.3448 46.9946 80.4853 47.7915C79.6257 48.5883 78.7752 48.9823 77.9425 48.9823C77.6202 48.9823 77.3516 48.8659 77.1367 48.6241C76.9218 48.3914 76.7517 48.1227 76.6174 47.8183C76.4652 47.4781 76.3399 47.0752 76.2324 46.6275C76.322 46.6723 76.4025 46.6992 76.4921 46.726C76.6622 46.7708 76.8144 46.7887 76.9397 46.7887C77.9962 46.7887 79.0169 46.4216 80.0018 45.6964C80.9866 44.9712 81.9178 44.0221 82.7863 42.8761C83.6547 41.7301 84.4695 40.4587 85.2216 39.0709C85.9736 37.6832 86.6451 36.3312 87.2361 35.0061C87.827 33.681 88.3284 32.4723 88.7492 31.38C89.17 30.2877 89.4834 29.464 89.6982 28.9268C89.6087 28.6672 89.5729 28.4881 89.5729 28.3807C89.8325 28.3807 90.119 28.3896 90.4235 28.4165C90.7368 28.4344 91.0323 28.5239 91.3098 28.6761C91.5874 28.8283 91.8291 29.0432 92.0172 29.3387C92.2141 29.6252 92.3037 30.046 92.3037 30.5832C92.3037 30.8607 92.3126 31.2726 92.3395 31.8098C92.3574 32.347 92.3753 32.9468 92.3842 33.6004C92.3932 34.254 92.4111 34.9345 92.429 35.6508C92.4469 36.3581 92.4648 37.0385 92.4738 37.6832C92.4827 38.3278 92.4917 38.9008 92.5096 39.3933C92.5185 39.8857 92.5275 40.2528 92.5275 40.4856C92.5544 41.2376 92.6349 41.8912 92.7871 42.4553Z" fill="#6B77E5"/>
<path d="M62.6498 30.2785C62.4976 34.1284 60.9218 36.7159 59.1043 36.6443C57.2867 36.5726 55.9258 33.8687 56.078 30.0188C56.2302 26.1689 59.6683 22.7129 59.6683 22.7129C59.6683 22.7129 62.802 26.4285 62.6498 30.2785Z" fill="#37393F"/>
<path d="M66.9748 29.007C66.9569 29.1592 66.5092 32.7584 64.2709 34.8714C63.2054 35.8832 62.0504 36.6263 61.0298 36.9576C59.9375 37.3157 59.0421 37.1993 58.5049 36.6263C57.4574 35.525 58.3527 33.0718 60.5731 30.9588C62.8115 28.8458 66.4197 28.5951 66.5808 28.5862L67.0285 28.5593L66.9748 29.007ZM59.0511 36.107C59.3734 36.4562 60.0001 36.5009 60.797 36.2413C61.7102 35.9458 62.7667 35.2654 63.7516 34.3253C65.3363 32.8301 65.9451 30.4127 66.1421 29.392C65.1214 29.5352 62.6682 30.0098 61.0924 31.505C59.6778 32.848 58.8004 34.3253 58.8004 35.3639C58.8004 35.6772 58.8899 35.9279 59.0511 36.107Z" fill="#37393F"/>
<path d="M59.6686 36.6707C59.3284 36.9752 58.8628 37.1274 58.3256 37.1005C57.0811 37.0378 55.4785 36.053 54.0549 34.4682C51.9956 32.1762 51.8345 28.559 51.8255 28.4068L51.8076 27.9502L52.2553 28.0129C52.4075 28.0308 55.9888 28.5769 58.0481 30.86C59.4359 32.4 60.2238 33.9937 60.2238 35.2382C60.2417 35.8381 60.0447 36.3395 59.6686 36.6707ZM54.619 33.9579C55.8993 35.3725 57.3318 36.2947 58.3704 36.3484C58.7106 36.3663 58.9792 36.2857 59.1673 36.1156C59.3732 35.9276 59.4806 35.6322 59.4806 35.2472C59.4806 34.1996 58.7375 32.7581 57.5019 31.3704C56.0425 29.7498 53.6431 29.0783 52.6313 28.8545C52.7477 29.8752 53.1596 32.3284 54.619 33.9579Z" fill="#37393F"/>
<path d="M59.7135 28.9084C59.7135 28.7472 59.5881 28.6129 59.418 28.6039C59.2479 28.595 59.1136 28.7293 59.1046 28.8904L58.2988 48.9011C58.2988 48.9101 58.2988 48.9101 58.2988 48.9101C58.2988 49.0713 58.4242 49.2056 58.5943 49.2145C58.7644 49.2235 58.8987 49.0892 58.9077 48.9191L59.7135 28.9084C59.7135 28.9173 59.7135 28.9173 59.7135 28.9084Z" fill="#37393F"/>
<path d="M71.5587 34.2003C71.5587 34.1734 71.5587 34.1555 71.5497 34.1286C71.5139 33.9675 71.3438 33.869 71.1827 33.9048C71.0573 33.9317 58.7733 37.0295 58.3525 47.7198C58.3525 47.7287 58.3525 47.7288 58.3525 47.7288C58.3525 47.8899 58.4779 48.0242 58.639 48.0332C58.8092 48.0421 58.9435 47.9078 58.9524 47.7377C59.3643 37.4951 71.2006 34.5136 71.317 34.4868C71.4692 34.4599 71.5587 34.3346 71.5587 34.2003Z" fill="#37393F"/>
<path d="M67.8784 40.6911C67.8784 40.6821 67.8784 40.6642 67.8784 40.6463C67.8515 40.4762 67.6993 40.3598 67.5382 40.3867C67.4486 40.3956 58.6027 41.6759 58.3252 48.5163V48.5252C58.3252 48.6864 58.4505 48.8207 58.6207 48.8297C58.7908 48.8386 58.9251 48.7043 58.934 48.5342C59.1847 42.2042 67.5382 40.9955 67.6188 40.9865C67.771 40.9686 67.8784 40.8433 67.8784 40.6911Z" fill="#37393F"/>
<path d="M58.9702 47.191C58.9702 36.9126 47.3935 32.991 47.2771 32.9463C47.116 32.8926 46.9459 32.9821 46.8921 33.1433C46.8474 33.3044 46.928 33.4745 47.0891 33.5282C47.2055 33.5641 58.7822 37.4856 58.3614 47.7282C58.3614 47.7372 58.3614 47.7372 58.3614 47.7372C58.3614 47.8983 58.4867 48.0326 58.6479 48.0416C58.818 48.0506 58.9523 47.9163 58.9612 47.7461C58.9702 47.5581 58.9702 47.3701 58.9702 47.191Z" fill="#37393F"/>
<path d="M58.9339 48.2297C58.9339 41.64 50.4819 39.724 50.3924 39.7061C50.2312 39.6703 50.0701 39.7777 50.0342 39.9389C49.9984 40.109 50.1059 40.2612 50.267 40.297C50.3476 40.3149 58.5489 42.1683 58.325 48.5162V48.5252C58.325 48.6863 58.4504 48.8206 58.6205 48.8296C58.7906 48.8385 58.9249 48.7042 58.9339 48.5341C58.9339 48.4356 58.9339 48.3282 58.9339 48.2297Z" fill="#37393F"/>
<path d="M73.4202 34.2898C73.3754 35.4806 72.3637 36.4118 71.1729 36.367C70.0089 36.3223 69.0957 35.3732 69.0957 34.1197C69.1405 32.9289 70.1522 31.9978 71.343 32.0426C72.5069 32.0873 73.4202 33.0364 73.4202 34.2093V34.2898ZM71.1997 35.5344C71.9339 35.5612 72.5517 34.9882 72.5875 34.254L73.0083 34.2003H72.5875C72.5875 33.4841 72.0234 32.9021 71.3072 32.8663C70.573 32.8394 69.9552 33.4124 69.9194 34.2003C69.9194 34.9166 70.4835 35.5075 71.1997 35.5344Z" fill="#37393F"/>
<path d="M49.3451 33.3226C49.3183 33.9046 49.0765 34.4328 48.6468 34.8268C48.226 35.2207 47.6709 35.4177 47.0889 35.3998C45.925 35.355 45.0117 34.406 45.0117 33.1525C45.0386 32.5705 45.2803 32.0423 45.7101 31.6484C46.1309 31.2544 46.686 31.0574 47.268 31.0753C48.4319 31.1201 49.3451 32.0692 49.3451 33.242V33.3226ZM47.1247 34.5671C47.4828 34.585 47.8231 34.4597 48.0827 34.218C48.3424 33.9762 48.4946 33.6449 48.5125 33.2868L48.9333 33.2331H48.5214C48.5214 32.5168 47.9574 31.9349 47.2411 31.899C46.883 31.8811 46.5427 32.0065 46.2831 32.2482C46.0234 32.49 45.8712 32.8212 45.8533 33.2331C45.8444 33.9494 46.4084 34.5403 47.1247 34.5671Z" fill="#37393F"/>
<path d="M69.3199 40.7628C69.2841 41.7297 68.4693 42.4818 67.5023 42.4371C66.5354 42.4012 65.7833 41.5865 65.8281 40.6195C65.8639 39.6526 66.6786 38.9005 67.6456 38.9453C68.6126 38.9811 69.3557 39.7958 69.3199 40.7628Z" fill="#37393F"/>
<path d="M52.0757 40.0733C52.0399 41.0403 51.2252 41.7924 50.2582 41.7476C49.2912 41.7118 48.5392 40.897 48.5839 39.9301C48.6197 38.9631 49.4345 38.211 50.4015 38.2558C51.3684 38.2916 52.1115 39.1064 52.0757 40.0733Z" fill="#37393F"/>
</svg>
