<svg width="93" height="45" viewBox="0 0 93 45" fill="none" xmlns="http://www.w3.org/2000/svg">
<path d="M3.8923 27.3907C4.15842 27.3408 4.45781 27.3076 4.79046 27.3076C4.84036 25.5611 5.83831 22.6671 6.9028 19.6732C5.90484 19.5235 5.05658 19.5235 4.54097 19.8728C4.17505 18.4257 5.55556 18.143 7.45168 18.1763C8.433 15.3986 9.38106 12.6875 9.58065 10.8745C8.00055 10.7747 6.60341 10.9411 5.72189 11.939C5.43913 12.2384 4.67403 8.46282 8.13361 7.83078C10.9445 7.31517 16.9323 9.61047 18.8117 6.96588C19.0945 6.58333 19.3274 10.0429 17.4479 10.9743C16.2503 11.5565 14.6702 11.49 13.0236 11.2904C12.7907 12.8871 11.9258 15.5317 11.0277 18.4091C12.9903 18.5422 14.7201 18.5255 15.086 17.5941C15.6682 21.0703 13.1899 20.9539 10.4289 20.3884C9.66381 22.9498 8.94861 25.5445 8.68249 27.6568C11.0942 27.9396 13.5059 28.0394 14.5704 26.5258C14.8532 26.1433 15.086 29.6029 13.2066 30.5177C9.9133 32.1476 3.8424 28.8211 1.48057 31.4823C1.19782 31.7817 0.432716 28.0061 3.8923 27.3907ZM17.9136 17.1617C17.897 17.0951 21.5894 16.7625 21.5229 18.8915C21.473 20.2553 18.2795 27.241 18.9448 29.4864C20.5748 27.4074 24.9159 17.1617 24.9159 17.1617C24.8993 17.0951 28.5917 16.7625 28.5086 18.8915C28.4587 20.272 25.6644 25.8439 25.9471 29.5862C27.2278 28.239 28.7747 24.5299 29.0574 23.8313C29.0907 23.7648 29.1572 23.7316 29.2238 23.7316C29.3568 23.7316 29.44 23.848 29.4067 23.9644C29.0075 25.1952 27.3443 30.2682 26.4794 30.7838C25.4814 31.3992 22.7703 30.368 22.5208 29.2369C22.0385 27.1412 24.0677 22.1515 24.7496 19.141C23.419 22.6172 20.3419 30.4179 19.2775 30.8836C18.2961 31.2994 15.6349 30.4511 15.4187 29.1205C15.0195 26.7088 18.4292 19.0911 17.9136 17.1617ZM25.3151 38.9171C24.6332 34.7257 30.9868 20.6213 30.3215 17.1284C30.3049 17.0619 34.147 17.1284 33.9142 19.2407C33.6979 21.2533 30.8371 29.187 29.4899 35.0916C31.9016 26.1433 36.5421 17.6773 37.2573 17.2615C37.906 16.8789 39.9019 17.4444 40.7169 18.8748C41.8146 20.8042 39.4861 30.1185 35.6273 30.9002C34.7624 31.0832 32.7166 29.8025 32.3008 29.2868C30.8704 32.9626 29.5398 37.0709 28.9077 40.8631C28.8246 41.2623 25.5978 40.6469 25.3151 38.9171ZM37.6066 18.3093C37.3904 18.2262 34.8289 22.8667 32.4837 28.8045C35.5608 30.5343 38.3883 18.6253 37.6066 18.3093ZM40.3842 28.9875C39.7023 24.7794 46.1391 10.1926 45.7067 7.08231C45.69 7.01578 49.2162 7.19874 48.9833 9.31108C48.7504 11.49 45.374 20.6712 44.243 26.6589C45.8564 22.6671 48.6673 16.9621 50.2806 17.1118C51.2121 17.1949 53.0915 18.0765 53.2579 18.642C53.7236 20.2054 50.4636 27.3408 50.3971 29.7027C51.6944 28.4552 53.3244 24.5465 53.6072 23.8313C53.6404 23.7648 53.707 23.7316 53.7735 23.7316C53.9065 23.7316 53.9897 23.848 53.9564 23.9644C53.5573 25.1952 51.7277 30.8337 50.9958 30.9335C49.5488 31.1331 47.1038 30.0852 46.9042 28.7712C46.6547 26.9915 49.4989 21.22 49.7817 18.4257C48.95 18.2927 43.9436 28.3055 43.9769 30.8836C44.0767 31.3493 40.6836 30.7505 40.3842 28.9875ZM53.4076 28.7546C52.4262 25.977 54.655 19.0245 57.1665 17.4112C58.0314 16.8457 60.3766 16.9953 61.1251 17.4943C61.7738 17.9101 61.358 18.3093 61.358 18.3093C58.6468 17.0452 55.4534 28.8211 56.7008 29.9688C58.1479 31.2994 61.5908 20.405 59.5117 19.9726C59.5117 19.9726 60.4764 18.6087 61.3081 18.7085C64.1855 19.0911 62.0066 28.871 57.9815 30.7671C56.8838 31.2828 54.2725 31.183 53.4076 28.7546ZM62.1231 29.1538C61.6906 26.5092 64.9672 19.0578 64.435 17.1284C64.4184 17.0619 68.3104 16.7625 68.2439 18.8915C68.194 20.089 66.0816 24.4468 65.7157 28.0228C66.9798 24.0975 69.8739 16.9454 71.6702 17.1118C72.6016 17.1949 74.2316 17.96 74.3979 18.5089C74.6141 19.2407 72.3854 22.7336 72.9841 24.8958C68.0276 24.6796 71.2377 19.0744 71.1712 18.4257C70.3396 18.2927 65.882 28.2057 65.8987 30.8004C65.9153 30.9002 65.7989 30.9667 65.7157 30.9501C65.0005 30.8669 62.3393 30.4844 62.1231 29.1538ZM79.3544 16.8623C74.5975 16.2302 77.6246 13.5524 77.4251 11.7893C82.5812 12.621 78.9386 14.4007 79.3544 16.8623ZM72.9675 29.1538C72.5018 26.609 75.9281 19.0578 75.4125 17.1284C75.3959 17.0619 79.2546 16.7625 79.1881 18.8915C79.1382 20.272 76.3772 25.7607 76.6101 29.5031C77.8741 28.0893 79.3711 24.5133 79.6538 23.8313C79.6705 23.7648 79.737 23.7316 79.8201 23.7316C79.9366 23.7316 80.0197 23.848 79.9865 23.9644C79.6039 25.1952 77.791 30.5177 76.9926 30.9002C76.1776 31.2661 73.1837 30.4012 72.9675 29.1538ZM82.9138 30.8836C82.315 31.2994 79.6206 30.5676 79.0052 29.4532C78.2068 28.0228 80.2027 20.7709 82.0323 18.4257C83.4627 16.6128 86.5564 17.0619 87.2882 17.4943C87.4712 17.5941 87.5377 17.6939 87.4379 17.9767C87.3215 18.2927 87.0886 18.2262 86.7227 18.1264C84.8598 17.644 82.0656 27.8564 82.2485 29.9355L88.1864 17.2947C88.3859 16.7459 91.9121 17.6606 91.5794 18.3592C91.2468 19.0578 88.8184 27.3408 88.7519 29.7027C90.0492 28.4552 91.6958 24.5465 91.9786 23.8313C92.0119 23.7648 92.0784 23.7316 92.1449 23.7316C92.2613 23.7316 92.3611 23.848 92.3112 23.9644C91.9287 25.1952 90.0991 30.8337 89.3673 30.9335C87.9036 31.1331 85.4586 30.0852 85.2756 28.7712C85.1093 27.6568 86.0241 24.2139 86.8724 21.3864C85.4087 25.1786 83.2465 30.6507 82.9138 30.8836Z" fill="#3C4242"/>
<path d="M1 33.6259H23.4033" stroke="#333333" stroke-width="0.420324" stroke-miterlimit="10" stroke-linecap="round" stroke-linejoin="round"/>
<path d="M32.9858 33.6259H92.0363" stroke="#3C4242" stroke-width="0.420324" stroke-miterlimit="10" stroke-linecap="round" stroke-linejoin="round"/>
<path d="M40.9502 41.2617C40.7866 41.2617 40.5977 41.1972 40.3818 41.0689C40.1667 40.9398 39.9378 40.7693 39.6967 40.5565C39.4555 40.3438 39.2181 40.1126 38.9838 39.8621C38.7503 39.6125 38.5345 39.3636 38.3378 39.1155C38.1412 38.8682 37.976 38.6477 37.8424 38.4549L36.7624 40.7862C36.7101 40.8999 36.6287 40.9805 36.5173 41.0274C36.406 41.0743 36.2854 41.1027 36.1556 41.1127C36.0257 41.1227 35.8975 41.1273 35.7715 41.1273C35.8675 40.989 35.9666 40.83 36.0664 40.6518C36.1671 40.4736 36.2854 40.2585 36.4229 40.0058C36.5604 39.7531 36.7217 39.4466 36.9076 39.0848C37.0934 38.7238 37.3139 38.2913 37.5705 37.789C37.8262 37.2866 38.1289 36.6967 38.4784 36.0184C38.5007 35.9785 38.5306 35.9232 38.5675 35.8517C38.6044 35.7803 38.6236 35.7142 38.6236 35.6551C38.6236 35.6005 38.6051 35.5575 38.5675 35.5253C38.5306 35.493 38.46 35.4769 38.3563 35.4769C38.178 35.4769 38.0052 35.5253 37.8385 35.6213C37.6718 35.7173 37.5228 35.8402 37.393 35.9892C37.2632 36.1375 37.161 36.2911 37.0865 36.4493C37.012 36.6076 36.9752 36.7489 36.9752 36.8726C36.9752 36.967 36.9936 37.0508 37.0305 37.1253C36.7854 37.1253 36.6126 37.0846 36.5127 37.0032C36.4121 36.9217 36.3622 36.8211 36.3622 36.702C36.3622 36.5338 36.4359 36.3656 36.5849 36.1974C36.7332 36.0292 36.9245 35.874 37.1587 35.7334C37.393 35.5921 37.6381 35.4799 37.8938 35.3954C38.1496 35.3117 38.3816 35.2695 38.5898 35.2695C38.7903 35.2695 38.9254 35.3063 38.9961 35.3809C39.0668 35.4554 39.1021 35.5368 39.1021 35.6259C39.1021 35.6804 39.0929 35.735 39.0745 35.7895C39.056 35.844 39.0353 35.8963 39.013 35.9454L38.0774 37.9649C38.1811 37.8658 38.3171 37.7744 38.4838 37.6899C38.6505 37.6061 38.8348 37.5094 39.0353 37.4003C39.3694 37.2221 39.7274 37.0139 40.1099 36.7766C40.4924 36.5392 40.8581 36.2888 41.2068 36.0268C41.5555 35.7641 41.8451 35.5122 42.0756 35.2695C42.1124 35.2994 42.1386 35.3509 42.1539 35.4254C42.1685 35.4999 42.1762 35.5568 42.1762 35.5959C42.1762 35.7496 42.0817 35.9178 41.892 36.1006C41.7023 36.2834 41.4557 36.4731 41.1515 36.6682C40.8473 36.8641 40.5132 37.0569 40.1491 37.2474C39.785 37.4379 39.427 37.6177 39.0745 37.7859C38.7219 37.9541 38.4039 38.1 38.122 38.2237C38.3447 38.4764 38.5621 38.7161 38.7734 38.9442C38.9846 39.1716 39.215 39.3944 39.4639 39.6125C39.7128 39.8307 40.0039 40.0534 40.338 40.2808C40.6722 40.5081 41.077 40.7532 41.5517 41.0159C41.4995 41.0804 41.418 41.1372 41.3067 41.1864C41.1953 41.2371 41.0762 41.2617 40.9502 41.2617Z" fill="#3C4242"/>
<path d="M46.9089 40.9796C46.4557 40.9796 46.12 40.8882 45.9011 40.7046C45.6822 40.5218 45.5723 40.3013 45.5723 40.044C45.2528 40.3259 44.8856 40.5464 44.4701 40.7046C44.0545 40.8628 43.6343 40.9419 43.2119 40.9419C42.7587 40.9419 42.4191 40.859 42.1925 40.6931C41.9659 40.5272 41.853 40.3228 41.853 40.0809C41.853 39.8581 41.9368 39.6231 42.1034 39.3757C42.2709 39.1284 42.4937 38.8956 42.7717 38.6775C43.0498 38.4601 43.3563 38.2827 43.6904 38.1467C44.0245 38.0107 44.3548 37.9424 44.6821 37.9424C44.8526 37.9424 45.0108 37.9723 45.1552 38.0315C45.3004 38.0906 45.3726 38.212 45.3726 38.3956C45.3726 38.5838 45.2889 38.7604 45.1222 38.9264C44.9555 39.0923 44.7358 39.2398 44.4655 39.368C44.1943 39.4971 43.897 39.6016 43.5744 39.6837C43.2518 39.7659 42.93 39.8159 42.6112 39.8358C42.5966 39.8858 42.5851 39.9326 42.5774 39.9772C42.5697 40.0217 42.5659 40.064 42.5659 40.1031C42.5659 40.2022 42.592 40.2998 42.6442 40.3966C42.6957 40.4934 42.7848 40.5725 42.9115 40.6339C43.0375 40.6961 43.2157 40.7269 43.4461 40.7269C43.8394 40.7269 44.2296 40.6339 44.616 40.4488C45.0016 40.2629 45.3396 40.034 45.6292 39.7621C45.696 39.5593 45.8151 39.3565 45.9856 39.153C46.1561 38.9502 46.3627 38.7658 46.6039 38.5999C46.8451 38.434 47.1071 38.3003 47.389 38.1989C47.6709 38.0975 47.9574 38.0468 48.247 38.0468C48.4175 38.0468 48.5757 38.0768 48.7202 38.136C48.8646 38.1951 48.9375 38.3165 48.9375 38.5C48.9375 38.7528 48.8093 38.974 48.5535 39.1645C48.2977 39.355 47.9689 39.5071 47.5679 39.6215C47.167 39.7352 46.7553 39.8074 46.332 39.8366C46.3174 39.8865 46.3059 39.9334 46.2982 39.9779C46.2905 40.0225 46.2867 40.0647 46.2867 40.1039C46.2867 40.203 46.3105 40.3044 46.3589 40.4081C46.4073 40.5118 46.4926 40.5971 46.6147 40.6639C46.7376 40.7307 46.9135 40.7637 47.1439 40.7637C47.4635 40.7637 47.7823 40.7008 48.1018 40.5748C48.4213 40.4488 48.7178 40.2829 48.9928 40.077C49.2678 39.8719 49.4975 39.6499 49.6834 39.4126L49.817 39.4794C49.6166 39.7767 49.3585 40.0379 49.0428 40.2629C48.7271 40.488 48.386 40.6639 48.0181 40.7899C47.6494 40.9166 47.2799 40.9796 46.9089 40.9796ZM42.6657 39.6945C42.8662 39.6499 43.0928 39.5847 43.3447 39.4979C43.5975 39.4111 43.8402 39.3089 44.0745 39.1898C44.3088 39.0708 44.5016 38.9402 44.6536 38.7965C44.8057 38.6529 44.8818 38.5024 44.8818 38.3434C44.8818 38.2888 44.8672 38.2466 44.8372 38.2174C44.8073 38.1874 44.7443 38.1728 44.6483 38.1728C44.4701 38.1728 44.2803 38.2189 44.0799 38.3103C43.8794 38.4017 43.6866 38.5216 43.5007 38.6706C43.3148 38.8188 43.1481 38.9824 42.9991 39.1606C42.8508 39.3381 42.7395 39.5163 42.6657 39.6945ZM46.3858 39.6945C46.5863 39.6499 46.8052 39.5908 47.0433 39.5163C47.2807 39.4418 47.5073 39.3542 47.7231 39.2528C47.9382 39.1514 48.1164 39.0354 48.2577 38.9041C48.3983 38.7727 48.469 38.6283 48.469 38.4701C48.469 38.4156 48.4505 38.3695 48.4129 38.3326C48.376 38.2957 48.3092 38.2773 48.2124 38.2773C47.9751 38.2773 47.7354 38.3464 47.4942 38.4855C47.253 38.6237 47.0341 38.8012 46.8367 39.0162C46.64 39.2305 46.4895 39.4571 46.3858 39.6945Z" fill="#3C4242"/>
<path d="M48.7475 42.6948C48.6884 42.6948 48.6308 42.6741 48.5747 42.6319C48.5186 42.5896 48.4764 42.5451 48.4464 42.4982C48.4164 42.4513 48.4019 42.4229 48.4019 42.4129C48.5056 42.1702 48.6077 41.9536 48.7083 41.7631C48.809 41.5726 48.9088 41.3767 49.0094 41.1762C49.1093 40.9758 49.2084 40.7407 49.3044 40.4711C49.4012 40.2015 49.5011 39.8658 49.6055 39.4648C49.7092 39.0639 49.8137 38.5661 49.9174 37.9724C49.9251 37.9278 49.9397 37.8955 49.9619 37.8756C49.9842 37.8556 50.0395 37.8456 50.1286 37.8456C50.3214 37.8456 50.4589 37.8817 50.5411 37.9532C50.6225 38.0246 50.6632 38.1029 50.6632 38.1867C50.6632 38.2558 50.641 38.3795 50.5964 38.5577C50.5519 38.7359 50.4889 38.9463 50.4075 39.1891C50.5334 39.0255 50.6917 38.8596 50.8806 38.6913C51.0696 38.5231 51.287 38.3818 51.532 38.2681C51.777 38.1544 52.0444 38.0976 52.3339 38.0976C52.6604 38.0976 52.93 38.1759 53.1412 38.3311C53.3525 38.487 53.4585 38.6913 53.4585 38.944C53.4585 39.1368 53.3932 39.3412 53.2634 39.5562C53.1336 39.7713 52.9515 39.9749 52.718 40.1654C52.4845 40.3559 52.2072 40.511 51.8884 40.6293C51.5689 40.7484 51.2163 40.8075 50.8307 40.8075C50.6371 40.8075 50.482 40.7929 50.3629 40.763C50.2438 40.733 50.1847 40.7038 50.1847 40.6739C50.1847 40.6539 50.2123 40.6432 50.2684 40.6401C50.3245 40.6378 50.389 40.6362 50.4635 40.6362C50.7608 40.6362 51.0442 40.5879 51.3154 40.4911C51.5865 40.3943 51.8293 40.2668 52.0451 40.1085C52.2602 39.9503 52.4292 39.7744 52.5521 39.5816C52.6742 39.3888 52.7357 39.1983 52.7357 39.0101C52.7357 38.8519 52.6857 38.7167 52.5851 38.6053C52.4853 38.4939 52.3232 38.4386 52.1004 38.4386C51.9076 38.4386 51.7164 38.4793 51.5266 38.5607C51.3369 38.6422 51.1587 38.7466 50.992 38.8726C50.8245 38.9986 50.6763 39.1299 50.5465 39.2659C50.4167 39.4019 50.3183 39.5248 50.2515 39.6331C50.1179 40.0041 49.9842 40.362 49.8506 40.7061C49.7169 41.0503 49.5886 41.3621 49.4665 41.6417C49.3436 41.9213 49.233 42.1502 49.1324 42.3284C49.0325 42.5067 48.9488 42.6157 48.8819 42.6549C48.8435 42.6826 48.799 42.6948 48.7475 42.6948Z" fill="#3C4242"/>
<path d="M57.5018 40.8083C57.2122 40.8083 56.9963 40.7476 56.8558 40.6263C56.7144 40.5049 56.6445 40.3574 56.6445 40.1846C56.6445 40.0709 56.676 39.9273 56.739 39.7537C56.802 39.5808 56.8857 39.3988 56.9894 39.2083C57.0931 39.0178 57.2137 38.838 57.3512 38.6698C57.4887 38.5016 57.6354 38.3641 57.7914 38.2573C57.9473 38.1513 58.0994 38.0976 58.2484 38.0976C58.3152 38.0976 58.3728 38.1114 58.4212 38.1383C58.4696 38.1652 58.4934 38.2066 58.4934 38.2604C58.4934 38.3196 58.4358 38.4163 58.3206 38.55C58.2054 38.6836 58.0702 38.8373 57.9143 39.0101C57.7583 39.1837 57.6231 39.365 57.5079 39.5555C57.3927 39.746 57.3351 39.928 57.3351 40.1016C57.3351 40.2798 57.3796 40.3989 57.4687 40.458C57.5578 40.5172 57.6953 40.5471 57.8812 40.5471C58.1339 40.5471 58.4028 40.4634 58.6885 40.2944C58.9743 40.1262 59.2769 39.832 59.5965 39.4111L59.6963 39.4856C59.4813 39.9111 59.1709 40.2383 58.7661 40.4657C58.3605 40.6946 57.9396 40.8083 57.5018 40.8083ZM58.8376 37.4078C58.7185 37.4078 58.6133 37.3878 58.5203 37.3486C58.4274 37.3087 58.3813 37.2472 58.3813 37.1627C58.3813 37.059 58.4719 36.9684 58.654 36.8916C58.836 36.8148 59.0158 36.7764 59.194 36.7764C59.3053 36.7764 59.3945 36.794 59.4613 36.8286C59.5281 36.8632 59.5611 36.9231 59.5611 37.0068C59.5611 37.1005 59.4851 37.1912 59.333 37.278C59.1817 37.3648 59.0165 37.4078 58.8376 37.4078Z" fill="#3C4242"/>
<path d="M60.3298 40.9573C60.0102 40.9573 59.7652 40.8951 59.5947 40.7714C59.4241 40.6478 59.3389 40.4649 59.3389 40.2222C59.3389 40.0048 59.4003 39.736 59.5225 39.4164C59.6446 39.0969 59.799 38.7697 59.9849 38.4325C59.9104 38.4225 59.8405 38.414 59.7736 38.4063C59.7068 38.3987 59.6438 38.3879 59.5847 38.3733V38.2396C59.6438 38.2443 59.7145 38.2496 59.7959 38.2542C59.8773 38.2589 59.9703 38.2642 60.074 38.2688C60.2299 38.0015 60.3974 37.7427 60.5748 37.493C60.753 37.2434 60.9297 37.0206 61.104 36.8247C61.2784 36.6296 61.4459 36.4729 61.6056 36.357C61.7654 36.241 61.9006 36.1826 62.012 36.1826C62.0711 36.1826 62.1249 36.1964 62.1733 36.2233C62.2217 36.2502 62.2455 36.2917 62.2455 36.3454C62.2455 36.4299 62.1679 36.5667 62.012 36.7579C61.856 36.9484 61.6632 37.175 61.4328 37.4369C61.2024 37.6996 60.9796 37.9839 60.7645 38.2911C60.8314 38.2911 60.8997 38.2911 60.9704 38.2911C61.0411 38.2911 61.1094 38.2911 61.1762 38.2911C61.4213 38.2911 61.6794 38.2888 61.9505 38.2834C62.2217 38.2788 62.4944 38.2658 62.7694 38.2466V38.3802C62.3607 38.4102 61.9951 38.4325 61.6725 38.447C61.3498 38.4616 61.0618 38.4693 60.8091 38.4693C60.7791 38.4693 60.7515 38.4693 60.7254 38.4693C60.6992 38.4693 60.6716 38.4693 60.6416 38.4693C60.4711 38.732 60.3259 39.0016 60.2076 39.2789C60.0886 39.5562 60.0294 39.8258 60.0294 40.0885C60.0294 40.3013 60.0778 40.4534 60.1738 40.5448C60.2699 40.6362 60.4296 40.6823 60.6531 40.6823C61.0395 40.6823 61.4182 40.5686 61.7892 40.3405C62.1602 40.1131 62.4867 39.8036 62.7694 39.4126L62.9138 39.4871C62.7356 39.7644 62.5105 40.014 62.2401 40.2368C61.969 40.4596 61.6702 40.6355 61.3437 40.7637C61.0165 40.8928 60.6793 40.9573 60.3298 40.9573Z" fill="#3C4242"/>
<path d="M66.6454 41.0311C66.289 41.0311 65.9917 40.952 65.7544 40.7937C65.517 40.6355 65.3979 40.3981 65.3979 40.0809C65.3979 39.8336 65.4702 39.5924 65.6153 39.3565C65.7597 39.1215 65.951 38.9103 66.1891 38.7221C66.4265 38.5339 66.69 38.3841 66.9795 38.2727C67.2691 38.1613 67.5549 38.106 67.8375 38.106C68.1417 38.106 68.3499 38.1652 68.4613 38.2842C68.5727 38.4033 68.628 38.527 68.628 38.6552C68.628 38.7989 68.578 38.9249 68.4774 39.0339C68.3775 39.143 68.2416 39.1975 68.0711 39.1975C67.9451 39.1975 67.8375 39.1607 67.7477 39.0862C67.8591 39.047 67.9558 38.9663 68.0373 38.845C68.1187 38.7236 68.1602 38.6084 68.1602 38.4993C68.1602 38.4402 68.1433 38.3941 68.1102 38.3618C68.0764 38.3295 68.0119 38.3134 67.9151 38.3134C67.7146 38.3134 67.5088 38.3726 67.2968 38.4916C67.0855 38.6107 66.8881 38.7635 66.7069 38.9517C66.5248 39.1399 66.3766 39.3381 66.2613 39.5455C66.1461 39.7537 66.0885 39.9488 66.0885 40.1324C66.0885 40.286 66.1446 40.4266 66.256 40.5556C66.3673 40.6839 66.5824 40.7484 66.902 40.7484C67.1992 40.7484 67.498 40.6939 67.7984 40.5848C68.0987 40.4757 68.3791 40.3198 68.6395 40.117C68.8991 39.9142 69.1073 39.6761 69.2632 39.4042L69.4076 39.4787C69.2371 39.7759 69.0028 40.0417 68.7063 40.2768C68.409 40.5118 68.0826 40.6962 67.7262 40.8298C67.369 40.9642 67.0087 41.0311 66.6454 41.0311Z" fill="#3C4242"/>
<path d="M69.9755 40.8383C69.656 40.8383 69.4278 40.7653 69.2903 40.6193C69.1528 40.4734 69.0845 40.2914 69.0845 40.074C69.0845 39.8366 69.1513 39.5539 69.285 39.2275C69.4186 38.901 69.5953 38.5569 69.8142 38.1951C70.0331 37.8341 70.2728 37.4815 70.5324 37.1366C70.792 36.7925 71.0517 36.4799 71.3121 36.1972C71.5717 35.9153 71.8113 35.6895 72.0303 35.5212C72.2492 35.353 72.422 35.2685 72.548 35.2685C72.6294 35.2685 72.6962 35.2993 72.7485 35.3615C72.8007 35.4237 72.8414 35.4974 72.8714 35.5842C72.9006 35.671 72.9159 35.7486 72.9159 35.8177C72.9159 35.9514 72.866 36.1258 72.7654 36.3416C72.6655 36.5567 72.5242 36.7971 72.3421 37.0621C72.1601 37.3271 71.945 37.5944 71.6961 37.864C71.4473 38.1337 71.1761 38.3925 70.8834 38.6399C70.59 38.8872 70.2805 39.1 69.9532 39.2782C69.9087 39.4118 69.8733 39.5417 69.8472 39.6684C69.8211 39.7944 69.8081 39.915 69.8081 40.0287C69.8081 40.2215 69.8488 40.3651 69.9302 40.4596C70.0116 40.5533 70.1345 40.6009 70.2981 40.6009C70.4986 40.6009 70.6976 40.5418 70.8942 40.4227C71.0908 40.3036 71.2767 40.1539 71.4511 39.9733C71.6255 39.7928 71.776 39.6062 71.902 39.4126L72.0687 39.4718C71.7714 39.8927 71.4488 40.2253 71.0993 40.4703C70.7513 40.7161 70.3765 40.8383 69.9755 40.8383ZM70.0539 39.0262C70.3135 38.8526 70.5662 38.6537 70.8112 38.4286C71.0563 38.2036 71.2844 37.9693 71.4964 37.7273C71.7084 37.4846 71.8958 37.2495 72.0587 37.0222C72.2215 36.7948 72.3483 36.5905 72.4374 36.41C72.5265 36.2295 72.571 36.0897 72.571 35.9906C72.571 35.9414 72.5618 35.9091 72.5434 35.8938C72.5249 35.8792 72.508 35.8715 72.4935 35.8715C72.4343 35.8715 72.3321 35.9345 72.187 36.0605C72.0426 36.1864 71.8736 36.3562 71.68 36.569C71.4872 36.7817 71.2906 37.0245 71.0901 37.2964C70.8896 37.5683 70.6983 37.8533 70.5163 38.1506C70.3335 38.4471 70.1798 38.7397 70.0539 39.0262Z" fill="#3C4242"/>
<path d="M72.2143 40.9643C71.9839 40.9643 71.7888 40.9136 71.6298 40.8122C71.47 40.7108 71.3901 40.5564 71.3901 40.3482C71.3901 40.17 71.4493 39.978 71.5683 39.7729C71.6866 39.5678 71.8503 39.3642 72.0584 39.1637C72.2666 38.9633 72.5024 38.7804 72.7659 38.6145C73.0293 38.4486 73.3074 38.3165 73.6016 38.2174C73.895 38.1183 74.1861 38.0692 74.4757 38.0692C74.7653 38.0692 75.0065 38.1198 75.1993 38.2212C75.3921 38.3226 75.4889 38.4578 75.4889 38.6261C75.4889 38.7497 75.439 38.8342 75.3384 38.8788C75.2377 38.9233 75.1064 38.9456 74.9428 38.9456C74.9574 38.9056 74.9704 38.8626 74.9819 38.8158C74.9935 38.7689 74.9988 38.7259 74.9988 38.686C74.9988 38.5723 74.9581 38.4747 74.8767 38.3925C74.7945 38.3111 74.6539 38.2704 74.4535 38.2704C74.2453 38.2704 74.0341 38.3188 73.8182 38.4148C73.6031 38.5116 73.395 38.6399 73.1945 38.8012C72.994 38.9625 72.8158 39.1369 72.6599 39.3251C72.5039 39.5132 72.3818 39.6991 72.2919 39.8819C72.2028 40.0648 72.1583 40.2284 72.1583 40.372C72.1583 40.5648 72.2581 40.6616 72.4594 40.6616C72.6299 40.6616 72.8158 40.6086 73.0163 40.5018C73.2168 40.3958 73.4226 40.2591 73.6346 40.0932C73.8459 39.9273 74.0487 39.7552 74.2415 39.577C74.4343 39.3988 74.6056 39.2352 74.7538 39.0869C74.783 39.057 74.8022 39.0424 74.8091 39.0424C74.8537 39.047 74.9113 39.057 74.9819 39.0723C75.0526 39.0869 75.1141 39.1069 75.1655 39.1315C75.2178 39.1561 75.2439 39.1883 75.2439 39.2283C75.2439 39.2728 75.2101 39.3335 75.1432 39.4103C75.0764 39.4871 75.0019 39.5747 74.9205 39.6738C74.8383 39.7729 74.7646 39.8735 74.6977 39.9749C74.6309 40.0763 74.5979 40.1715 74.5979 40.2606C74.5979 40.3351 74.6271 40.4081 74.687 40.4796C74.7461 40.5518 74.8429 40.5871 74.9766 40.5871C75.177 40.5871 75.4405 40.4895 75.767 40.2937C76.0934 40.0986 76.4245 39.8051 76.7586 39.4134L76.87 39.4879C76.7141 39.7552 76.5136 39.9903 76.2686 40.193C76.0235 40.3958 75.7616 40.5548 75.4835 40.6685C75.2055 40.7822 74.932 40.839 74.6647 40.839C74.3897 40.839 74.1877 40.7845 74.0579 40.6754C73.9281 40.5664 73.8628 40.4481 73.8628 40.319C73.8628 40.2891 73.8666 40.256 73.8743 40.2192C73.8812 40.1823 73.8889 40.1439 73.8966 40.1039C73.577 40.3912 73.2859 40.6063 73.0224 40.7499C72.7582 40.8928 72.4886 40.9643 72.2143 40.9643Z" fill="#3C4242"/>
<path d="M77.7051 40.9942C77.3564 40.9942 77.0799 40.9435 76.8755 40.8421C76.6712 40.7407 76.5268 40.6155 76.4408 40.4673C76.3555 40.319 76.3125 40.17 76.3125 40.0217C76.3125 39.8735 76.3425 39.759 76.4016 39.6799C76.4615 39.6008 76.5337 39.5417 76.619 39.5017C76.7042 39.4618 76.7857 39.4326 76.864 39.4126C76.9424 39.3926 76.9954 39.3727 77.0253 39.3535C77.2481 39.1899 77.4524 39.0193 77.6383 38.8411C77.8242 38.6629 77.987 38.4747 78.1284 38.2765V38.1874C78.1284 38.0046 78.1745 37.874 78.2674 37.7972C78.3603 37.7204 78.4587 37.682 78.5624 37.682C78.6215 37.682 78.6661 37.692 78.696 37.712C78.726 37.7319 78.7406 37.7542 78.7406 37.7788C78.7406 37.8034 78.7298 37.8433 78.7075 37.8979C78.6853 37.9524 78.6737 38.0215 78.6737 38.106C78.6737 38.2696 78.7221 38.4463 78.8182 38.6368C78.9149 38.8273 79.011 39.0278 79.1077 39.2382C79.2038 39.4487 79.2522 39.6676 79.2522 39.895C79.2522 39.9595 79.2468 40.0225 79.2353 40.084C79.2245 40.1462 79.2076 40.2038 79.1853 40.2583C79.445 40.2284 79.69 40.1508 79.9204 40.0248C80.1509 39.8988 80.3736 39.6968 80.5887 39.4195L80.6886 39.494C80.5472 39.766 80.336 39.9726 80.0541 40.1139C79.7722 40.2553 79.4634 40.3428 79.1292 40.3774C79.0102 40.5902 78.8228 40.7461 78.567 40.8452C78.312 40.945 78.0239 40.9942 77.7051 40.9942ZM77.7274 40.7346C77.8165 40.7346 77.9356 40.7146 78.0838 40.6754C78.2321 40.6355 78.3473 40.5341 78.4295 40.3712C78.1176 40.3321 77.8411 40.2499 77.5999 40.1262C77.3587 40.0025 77.1782 39.8789 77.0599 39.7552C76.8963 39.7606 76.8149 39.8466 76.8149 40.0148C76.8149 40.193 76.8947 40.3574 77.0545 40.5087C77.2128 40.6585 77.4378 40.7346 77.7274 40.7346ZM78.4848 40.2514C78.4994 40.2023 78.5109 40.15 78.5178 40.0955C78.5255 40.041 78.5293 39.9764 78.5293 39.9027C78.5293 39.6699 78.4863 39.4387 78.4011 39.2083C78.3158 38.9778 78.2436 38.7612 78.1837 38.5585C78.0131 38.7466 77.8326 38.9264 77.6437 39.0969C77.4547 39.2674 77.2742 39.4103 77.1037 39.524C77.2151 39.6822 77.3879 39.8312 77.6214 39.9695C77.8557 40.1085 78.143 40.2023 78.4848 40.2514Z" fill="#3C4242"/>
<path d="M81.5469 40.9942C81.1982 40.9942 80.9217 40.9435 80.7173 40.8421C80.513 40.7407 80.3686 40.6155 80.2826 40.4673C80.1973 40.319 80.1543 40.17 80.1543 40.0217C80.1543 39.8735 80.1843 39.759 80.2434 39.6799C80.3033 39.6008 80.3755 39.5417 80.4608 39.5017C80.546 39.4618 80.6275 39.4326 80.7058 39.4126C80.7842 39.3926 80.8372 39.3727 80.8671 39.3535C81.0899 39.1899 81.2942 39.0193 81.4801 38.8411C81.666 38.6629 81.8288 38.4747 81.9702 38.2765V38.1874C81.9702 38.0046 82.0163 37.874 82.1092 37.7972C82.2021 37.7204 82.3005 37.682 82.4042 37.682C82.4633 37.682 82.5079 37.692 82.5378 37.712C82.5678 37.7319 82.5824 37.7542 82.5824 37.7788C82.5824 37.8034 82.5716 37.8433 82.5493 37.8979C82.5271 37.9524 82.5155 38.0215 82.5155 38.106C82.5155 38.2696 82.5639 38.4463 82.66 38.6368C82.7567 38.8273 82.8528 39.0278 82.9495 39.2382C83.0456 39.4487 83.0939 39.6676 83.0939 39.895C83.0939 39.9595 83.0886 40.0225 83.077 40.084C83.0663 40.1462 83.0494 40.2038 83.0271 40.2583C83.2868 40.2284 83.5318 40.1508 83.7622 40.0248C83.9927 39.8988 84.2154 39.6968 84.4305 39.4195L84.5304 39.494C84.389 39.766 84.1778 39.9726 83.8959 40.1139C83.614 40.2553 83.3052 40.3428 82.971 40.3774C82.852 40.5902 82.6646 40.7461 82.4088 40.8452C82.1545 40.945 81.8665 40.9942 81.5469 40.9942ZM81.5692 40.7346C81.6583 40.7346 81.7774 40.7146 81.9256 40.6754C82.0739 40.6355 82.1891 40.5341 82.2713 40.3712C81.9594 40.3321 81.6829 40.2499 81.4417 40.1262C81.2005 40.0025 81.02 39.8789 80.9017 39.7552C80.7381 39.7606 80.6567 39.8466 80.6567 40.0148C80.6567 40.193 80.7365 40.3574 80.8963 40.5087C81.0553 40.6585 81.2796 40.7346 81.5692 40.7346ZM82.3266 40.2514C82.3412 40.2023 82.3527 40.15 82.3596 40.0955C82.3673 40.041 82.3711 39.9764 82.3711 39.9027C82.3711 39.6699 82.3281 39.4387 82.2429 39.2083C82.1576 38.9778 82.0854 38.7612 82.0255 38.5585C81.8549 38.7466 81.6744 38.9264 81.4855 39.0969C81.2965 39.2674 81.116 39.4103 80.9455 39.524C81.0569 39.6822 81.2297 39.8312 81.4632 39.9695C81.6975 40.1085 81.9855 40.2023 82.3266 40.2514Z" fill="#3C4242"/>
<path d="M84.6996 42.6949C84.5137 42.6949 84.3509 42.6618 84.2096 42.595C84.0682 42.5282 83.9976 42.4306 83.9976 42.3016C83.9976 42.1433 84.0575 42.002 84.1758 41.8783C84.2941 41.7547 84.4538 41.641 84.6551 41.5365C84.8556 41.4328 85.0852 41.3337 85.3456 41.2392C85.6053 41.1455 85.8764 41.0511 86.1583 40.9573C86.262 40.7745 86.368 40.5702 86.4756 40.3451C86.5831 40.1201 86.6853 39.8712 86.782 39.5993C86.5447 39.8566 86.2904 40.0778 86.0193 40.2637C85.7481 40.4496 85.4601 40.5418 85.1559 40.5418C85.0146 40.5418 84.8755 40.521 84.738 40.4788C84.6005 40.4365 84.4876 40.3713 84.3985 40.2822C84.3094 40.193 84.2649 40.0794 84.2649 39.9403C84.2649 39.8021 84.3002 39.6408 84.3709 39.4579C84.4415 39.2751 84.5283 39.0969 84.6328 38.9233C84.7365 38.7505 84.844 38.6068 84.9562 38.4924C85.0683 38.3779 85.1644 38.3219 85.2458 38.3219C85.2757 38.3219 85.3295 38.3295 85.4071 38.3441C85.4854 38.3587 85.5592 38.3802 85.6298 38.4071C85.7005 38.4348 85.7358 38.4632 85.7358 38.4924C85.669 38.5569 85.5945 38.6483 85.5131 38.7674C85.4309 38.8864 85.3518 39.0186 85.2734 39.1645C85.1958 39.3105 85.1306 39.4526 85.0783 39.5916C85.0261 39.7299 85.0007 39.8489 85.0007 39.948C85.0007 40.0371 85.0299 40.1085 85.0898 40.1631C85.149 40.2176 85.2535 40.2445 85.4017 40.2445C85.5423 40.2445 85.7005 40.1992 85.8749 40.107C86.0492 40.0156 86.2236 39.8981 86.3987 39.7544C86.5731 39.6108 86.7344 39.4572 86.8834 39.2943C86.9057 39.2398 86.9257 39.1845 86.9449 39.1276C86.9633 39.0708 86.9802 39.0124 86.9948 38.9533C87.0171 38.8841 87.0709 38.8035 87.1561 38.7121C87.2414 38.6207 87.3773 38.5746 87.5625 38.5746C87.5993 38.5746 87.6362 38.5761 87.6738 38.5784C87.7107 38.5807 87.7514 38.5869 87.796 38.5969C87.796 38.676 87.7606 38.8235 87.69 39.0385C87.6193 39.2536 87.5187 39.5056 87.3889 39.7921C87.2591 40.0794 87.1047 40.3736 86.9265 40.6754C87.2752 40.5863 87.617 40.4388 87.9511 40.2338C88.2853 40.0287 88.5564 39.7544 88.7638 39.4134L88.9082 39.4879C88.7969 39.7253 88.6279 39.9319 88.4013 40.1078C88.1747 40.2837 87.9204 40.4342 87.6385 40.561C87.3566 40.687 87.0778 40.7922 86.8028 40.8767C86.61 41.1932 86.4003 41.4904 86.1737 41.7677C85.9471 42.045 85.7097 42.2693 85.4608 42.4398C85.2135 42.6096 84.9593 42.6949 84.6996 42.6949ZM84.6436 42.4567C84.7549 42.4567 84.9424 42.3592 85.2058 42.1633C85.4693 41.9674 85.7497 41.6248 86.0469 41.1348C85.7428 41.2439 85.4601 41.3514 85.2005 41.4582C84.9408 41.5642 84.7327 41.6794 84.5767 41.8038C84.4208 41.9275 84.3432 42.0711 84.3432 42.2347C84.3432 42.2747 84.3655 42.3215 84.41 42.3761C84.4546 42.4299 84.5322 42.4567 84.6436 42.4567Z" fill="#3C4242"/>
<path d="M88.998 40.69C88.9012 40.69 88.8183 40.6739 88.7476 40.6416C88.6769 40.6094 88.6416 40.5587 88.6416 40.4895C88.6416 40.435 88.6746 40.3843 88.7415 40.3375C88.8083 40.2906 88.892 40.253 88.9919 40.2261C89.0917 40.1992 89.1901 40.1854 89.2868 40.1854C89.3759 40.1854 89.4466 40.1977 89.4981 40.2222C89.5495 40.2468 89.5757 40.2944 89.5757 40.3636C89.5757 40.4135 89.548 40.4627 89.4919 40.5118C89.4358 40.561 89.3636 40.6032 89.2745 40.6378C89.1854 40.6724 89.0948 40.69 88.998 40.69Z" fill="#3C4242"/>
</svg>
