<svg width="184" height="422" viewBox="0 0 184 422" fill="none" xmlns="http://www.w3.org/2000/svg">
<path d="M170.906 55.0156C172.757 67.752 171.194 80.3649 169.675 92.6215C168.758 100.079 167.832 107.743 167.602 115.481C166.968 139.088 169.908 162.656 176.323 185.384L177.424 189.231C182.117 205.534 187.431 224.017 178.611 238.781C171.928 249.974 158.541 256.628 137.634 259.186C123.98 260.849 113.585 263.035 104.893 266.106C93.4114 270.16 85.2163 275.791 80.5093 282.853C75.0365 291.084 74.0076 301.603 77.5444 314.087C79.0336 319.371 81.0823 324.676 83.1063 329.777C86.8376 339.317 90.6933 349.174 90.9238 359.442C90.9392 360.335 90.9295 361.222 90.896 362.119C90.4386 370.448 87.6974 378.491 82.9727 385.365C78.2628 392.34 72.1524 398.259 65.0304 402.743C49.9318 412.342 31.9373 415.705 17.9468 417.568C-1.22373 420.215 -20.5683 421.396 -39.9185 421.098C-62.1547 420.632 -81.3631 417.76 -97.0367 412.566C-111.8 407.68 -125.117 399.202 -135.792 387.894C-146.946 375.859 -153.24 361.852 -153.973 347.425C-154.686 333.562 -150.366 320.043 -146.205 306.997C-144.492 301.64 -142.721 296.106 -141.321 290.635C-137.528 275.587 -136.35 259.999 -137.837 244.552C-139.273 229.098 -143.23 213.983 -149.55 199.807C-152.804 192.81 -156.427 185.992 -160.404 179.38C-170.966 161.128 -180.946 143.87 -174.389 119.357C-170.713 105.595 -161.383 93.5548 -147.456 84.5846C-135.197 76.6693 -119.662 71.3251 -103.72 69.5408C-86.9507 67.6562 -69.8338 68.721 -53.2689 69.757C-39.8458 70.4915 -26.0108 71.3482 -12.4963 70.6888C2.66564 69.9115 24.5422 66.3716 42.5521 53.8445C50.7344 48.1567 57.2595 40.4548 63.575 32.9996C68.9413 26.6802 74.5022 20.1315 81.0966 14.6881C88.9707 8.23788 101.482 0.507065 116.373 0.334258C128.322 0.196332 139.899 5.05178 149.91 14.432C159.238 23.2922 165.948 34.5482 169.306 46.9674C169.997 49.6166 170.531 52.3039 170.906 55.0156ZM168.689 155.662C166.759 142.351 165.967 128.9 166.32 115.454C166.531 107.685 167.484 99.9535 168.408 92.4706C170.316 77.0404 172.113 62.4723 168.007 47.2292C164.717 35.052 158.144 24.013 149.006 15.3178C139.289 6.21724 128.016 1.46822 116.403 1.60335C101.889 1.77819 89.6355 9.34853 81.9239 15.6788C75.3955 21.0267 69.8884 27.5299 64.5608 33.8216C58.1841 41.331 51.5978 49.0871 43.2944 54.8996C25.0269 67.5872 2.91603 71.1708 -12.4089 71.9614C-26.0273 72.6538 -39.8712 71.7896 -53.2696 70.9547C-69.7768 69.9222 -86.836 68.8609 -103.523 70.7552C-119.292 72.5337 -134.575 77.7589 -146.738 85.6335C-160.422 94.4772 -169.56 106.256 -173.147 119.698C-179.564 143.708 -169.726 160.739 -159.298 178.756C-155.3 185.408 -151.654 192.266 -148.377 199.301C-141.997 213.603 -138.006 228.854 -136.565 244.448C-135.066 260.039 -136.255 275.772 -140.081 290.961C-141.492 296.482 -143.263 302.032 -144.964 307.429C-149.099 320.391 -153.38 333.776 -152.678 347.418C-151.961 361.543 -145.788 375.264 -134.813 387.117C-124.285 398.26 -111.153 406.613 -96.5968 411.423C-81.0562 416.595 -61.9645 419.443 -39.8525 419.895C-20.5817 420.175 -1.31752 418.988 17.7731 416.343C31.6482 414.473 49.4673 411.174 64.3396 401.717C71.3071 397.319 77.2893 391.527 81.9099 384.706C86.4992 378.021 89.1646 370.204 89.6154 362.109C89.6604 361.252 89.6626 360.374 89.641 359.506C89.4217 349.475 85.5991 339.721 81.9083 330.277C79.898 325.141 77.8154 319.823 76.312 314.466C72.6857 301.587 73.7266 290.715 79.424 282.219C84.2842 274.924 92.703 269.118 104.441 264.978C113.258 261.847 123.712 259.666 137.463 257.994C157.925 255.513 171.023 249.039 177.497 238.199C181.338 231.889 182.689 224.207 181.785 214.839C180.962 206.555 178.522 197.96 176.141 189.689L175.039 185.841C172.264 175.931 170.143 165.85 168.689 155.662Z" fill="white" fill-opacity="0.27"/>
</svg>
