<svg width="191" height="474" viewBox="0 0 191 474" fill="none" xmlns="http://www.w3.org/2000/svg">
<path d="M258.136 24.4473C266.615 34.1294 272.162 45.5647 277.552 56.6765C280.837 63.4342 284.228 70.3689 288.243 76.9881C300.548 97.1448 315.831 115.324 333.573 130.91L336.59 133.54C349.394 144.67 363.904 157.292 364.53 174.478C365.008 187.506 357.392 200.369 341.238 213.885C330.684 222.706 323.147 230.193 317.524 237.496C310.092 247.142 306.277 256.325 306.167 264.81C306.05 274.694 310.906 284.081 320.663 292.635C324.786 296.26 329.39 299.598 333.863 302.778C342.182 308.755 350.778 314.931 356.555 323.423C357.053 324.164 357.528 324.914 357.987 325.684C362.133 332.923 364.205 341.163 363.979 349.502C363.819 357.917 361.909 366.206 358.371 373.843C350.92 390.109 337.647 402.716 326.919 411.887C312.27 424.534 296.677 436.043 280.276 446.316C261.361 458.016 243.68 466.052 227.702 470.216C212.655 474.143 196.869 474.27 181.761 470.584C165.856 466.55 152.957 458.218 144.496 446.509C136.36 435.262 132.634 421.568 129.032 408.356C127.556 402.93 126.033 397.322 124.233 391.97C119.233 377.278 111.746 363.556 102.098 351.4C92.4883 339.212 80.9484 328.679 67.9359 320.219C61.4007 316.117 54.6523 312.365 47.7192 308.978C28.9304 299.404 11.1703 290.348 3.34294 266.21C-1.05498 252.662 0.227077 237.484 7.03765 222.383C13.0208 209.074 23.1528 196.141 35.5608 185.975C48.6095 175.274 63.5534 166.86 78.0185 158.722C89.6829 152.039 101.759 145.234 112.743 137.332C125.044 128.435 141.479 113.568 149.781 93.2615C153.555 84.0387 154.843 74.0268 156.089 64.336C157.156 56.1144 158.262 47.5947 160.836 39.4405C163.936 29.7455 170.232 16.4543 182.635 8.21159C192.588 1.59807 204.944 -0.62257 218.446 1.8061C231.092 4.16946 242.845 9.96667 252.417 18.563C254.436 20.411 256.346 22.3757 258.136 24.4473ZM311.005 110.118C302.147 99.9965 294.168 89.1388 287.153 77.6627C283.105 71.0276 279.7 64.0213 276.406 57.2391C269.617 43.2523 263.204 30.0488 251.469 19.4893C242.086 11.059 230.566 5.3692 218.169 3.04111C205.066 0.687468 193.023 2.83211 183.35 9.2605C171.265 17.2996 165.098 30.3161 162.069 39.8221C159.498 47.8601 158.413 56.3125 157.363 64.4897C156.095 74.2593 154.785 84.3499 150.978 93.7433C142.546 114.325 125.939 129.356 113.508 138.352C102.456 146.339 90.3675 153.142 78.6692 159.727C64.2545 167.837 49.3608 176.223 36.3869 186.887C24.12 196.954 14.1354 209.65 8.20995 222.873C1.53532 237.736 0.272003 252.589 4.57102 265.822C12.2415 289.461 29.7598 298.404 48.3083 307.854C55.2809 311.262 62.0693 315.035 68.6451 319.157C81.7768 327.689 93.4193 338.319 103.108 350.622C112.844 362.891 120.402 376.741 125.451 391.568C127.268 396.969 128.801 402.59 130.308 408.044C133.886 421.171 137.572 434.732 145.58 445.798C153.863 457.262 166.504 465.421 182.16 469.4C197.055 473.027 212.618 472.896 227.449 469.017C243.304 464.907 260.875 456.915 279.678 445.271C296.002 435.027 311.524 423.555 326.107 410.954C336.734 401.84 349.895 389.381 357.233 373.357C360.689 365.877 362.56 357.764 362.728 349.526C362.944 341.421 360.931 333.411 356.907 326.372C356.479 325.629 356.003 324.891 355.513 324.174C349.874 315.875 341.362 309.768 333.129 303.849C328.65 300.632 324.01 297.302 319.835 293.623C309.788 284.787 304.75 275.097 304.911 264.869C305.023 256.104 308.931 246.653 316.53 236.796C322.228 229.374 329.814 221.858 340.446 212.978C356.269 199.769 363.74 187.213 363.279 174.596C363.072 167.211 360.028 160.03 354.175 152.659C348.979 146.155 342.258 140.269 335.762 134.622L332.745 131.992C325.027 125.184 317.765 117.877 311.005 110.118Z" fill="white" fill-opacity="0.27"/>
</svg>
