<svg width="18" height="18" viewBox="0 0 18 18" fill="none" xmlns="http://www.w3.org/2000/svg">
<path d="M12.1048 2.18412C13.0482 2.18683 13.9521 2.54891 14.6192 3.19127C15.2862 3.83362 15.6622 4.70407 15.665 5.6125V12.4685C15.6622 13.377 15.2862 14.2474 14.6192 14.8898C13.9521 15.5321 13.0482 15.8942 12.1048 15.8969H4.98508C4.04172 15.8942 3.13779 15.5321 2.47073 14.8898C1.80366 14.2474 1.42766 13.377 1.42484 12.4685V5.6125C1.42766 4.70407 1.80366 3.83362 2.47073 3.19127C3.13779 2.54891 4.04172 2.18683 4.98508 2.18412H12.1048ZM12.1048 0.812988H4.98508C2.24377 0.812988 0.000976562 2.97271 0.000976562 5.6125V12.4685C0.000976562 15.1083 2.24377 17.268 4.98508 17.268H12.1048C14.8461 17.268 17.0889 15.1083 17.0889 12.4685V5.6125C17.0889 2.97271 14.8461 0.812988 12.1048 0.812988Z" fill="white"/>
<path d="M13.1733 5.61255C12.962 5.61255 12.7556 5.55223 12.5799 5.43922C12.4043 5.32622 12.2674 5.16559 12.1866 4.97767C12.1057 4.78975 12.0846 4.58296 12.1258 4.38347C12.167 4.18397 12.2687 4.00072 12.4181 3.85689C12.5674 3.71306 12.7577 3.61511 12.9649 3.57543C13.1721 3.53574 13.3868 3.55611 13.582 3.63395C13.7771 3.71179 13.9439 3.84361 14.0613 4.01273C14.1786 4.18186 14.2413 4.3807 14.2413 4.5841C14.2416 4.71924 14.2142 4.85311 14.1606 4.97802C14.107 5.10292 14.0284 5.21641 13.9291 5.31197C13.8299 5.40753 13.712 5.48327 13.5823 5.53485C13.4526 5.58643 13.3136 5.61284 13.1733 5.61255ZM8.54542 6.29793C9.10873 6.29793 9.65938 6.45878 10.1277 6.76014C10.5961 7.06151 10.9612 7.48985 11.1767 7.991C11.3923 8.49215 11.4487 9.0436 11.3388 9.57562C11.2289 10.1076 10.9577 10.5963 10.5593 10.9799C10.161 11.3635 9.65354 11.6247 9.10106 11.7305C8.54858 11.8363 7.97592 11.782 7.45549 11.5744C6.93507 11.3668 6.49026 11.0153 6.1773 10.5643C5.86435 10.1133 5.69731 9.583 5.69731 9.04056C5.69811 8.31341 5.99844 7.61626 6.53239 7.10208C7.06634 6.58791 7.7903 6.29871 8.54542 6.29793ZM8.54542 4.9268C7.7005 4.9268 6.87456 5.16806 6.17204 5.62009C5.46951 6.07212 4.92196 6.7146 4.59862 7.46629C4.27529 8.21798 4.19069 9.04512 4.35552 9.84311C4.52036 10.6411 4.92723 11.3741 5.52467 11.9494C6.12212 12.5247 6.88332 12.9165 7.712 13.0753C8.54068 13.234 9.39963 13.1525 10.1802 12.8412C10.9608 12.5298 11.628 12.0025 12.0974 11.326C12.5669 10.6495 12.8174 9.85418 12.8174 9.04056C12.8174 7.94952 12.3673 6.90317 11.5662 6.13169C10.765 5.36021 9.67842 4.9268 8.54542 4.9268Z" fill="white"/>
</svg>
