<svg width="19" height="16" viewBox="0 0 19 16" fill="none" xmlns="http://www.w3.org/2000/svg">
<path d="M18.4853 2.4523C17.7985 2.75071 17.0718 2.94731 16.3283 3.03588C17.1097 2.57831 17.6973 1.85138 17.981 0.991431C17.2422 1.42343 16.4353 1.72654 15.5948 1.88778C15.2409 1.51686 14.8152 1.22178 14.3437 1.02047C13.8722 0.819173 13.3646 0.715856 12.852 0.716803C10.7762 0.716803 9.09643 2.3722 9.09643 4.41283C9.09496 4.69667 9.12748 4.97967 9.19331 5.25578C7.70486 5.18601 6.24737 4.8063 4.91407 4.14097C3.58078 3.47564 2.40104 2.53932 1.45034 1.39193C1.11681 1.9542 0.940425 2.59573 0.939612 3.24948C0.939612 4.53107 1.60825 5.66391 2.61789 6.32759C2.01971 6.3134 1.43379 6.15508 0.909861 5.86607V5.91184C0.909861 7.70455 2.20671 9.19592 3.92313 9.53539C3.60036 9.62144 3.26775 9.66503 2.93371 9.66508C2.69669 9.66549 2.4602 9.6425 2.22769 9.59642C2.70486 11.0649 4.09363 12.1329 5.73873 12.1634C4.40197 13.1936 2.76078 13.7504 1.07311 13.7463C0.773545 13.7459 0.474258 13.7281 0.176758 13.6929C1.89363 14.7893 3.88936 15.3691 5.92639 15.3636C12.8439 15.3636 16.6231 9.72992 16.6231 4.84384C16.6231 4.68364 16.6189 4.52344 16.6113 4.36706C17.3448 3.84529 17.9794 3.19688 18.4853 2.4523Z" fill="white"/>
</svg>
