<svg width="24" height="24" viewBox="0 0 24 24" fill="none" xmlns="http://www.w3.org/2000/svg">
<path fill-rule="evenodd" clip-rule="evenodd" d="M12 24C18.6274 24 24 18.6274 24 12C24 5.37258 18.6274 0 12 0C5.37258 0 0 5.37258 0 12C0 18.6274 5.37258 24 12 24Z" fill="#F55529"/>
<path fill-rule="evenodd" clip-rule="evenodd" d="M12.867 7.23569C13.19 6.92144 13.7134 6.92144 14.0364 7.23569L17.7033 10.8031C18.0989 11.1879 18.0989 11.8121 17.7033 12.1969L14.0364 15.7643C13.7134 16.0786 13.19 16.0786 12.867 15.7643C12.5437 15.4498 12.5437 14.9396 12.867 14.6251L15.0581 12.4934H7.01199C6.45309 12.4934 6 12.0523 6 11.5082C6 10.9641 6.45309 10.523 7.01199 10.523H15.075L12.867 8.37494C12.5437 8.06042 12.5437 7.55022 12.867 7.23569Z" fill="#F0F0F0"/>
</svg>
