<svg width="15" height="15" viewBox="0 0 15 15" fill="none" xmlns="http://www.w3.org/2000/svg">
<path d="M6.62885 0.867231C7.01136 0.188587 7.98864 0.188585 8.37115 0.86723L9.97321 3.70956C10.1159 3.96274 10.3617 4.14131 10.6466 4.19879L13.8448 4.84411C14.6085 4.99818 14.9105 5.92763 14.3833 6.50113L12.1751 8.90311C11.9784 9.11706 11.8845 9.406 11.9179 9.6947L12.2925 12.9359C12.3819 13.7097 11.5913 14.2842 10.8829 13.96L7.91616 12.6021C7.6519 12.4812 7.3481 12.4812 7.08384 12.6021L4.11707 13.96C3.40871 14.2842 2.61808 13.7097 2.70752 12.9359L3.08211 9.6947C3.11547 9.406 3.02159 9.11706 2.8249 8.90311L0.616749 6.50113C0.0895224 5.92763 0.391516 4.99819 1.15515 4.84411L4.35343 4.19879C4.63831 4.14131 4.88409 3.96274 5.02679 3.70956L6.62885 0.867231Z" fill="#FFB342"/>
</svg>
