<svg width="38" height="38" viewBox="0 0 38 38" fill="none" xmlns="http://www.w3.org/2000/svg">
<rect x="-0.00800323" width="37.024" height="37.024" rx="10.68" fill="#F6F6F6"/>
<path d="M18.4656 14.4755C16.2545 14.4755 14.4711 16.2589 14.4711 18.47C14.4711 20.6811 16.2545 22.4646 18.4656 22.4646C20.6767 22.4646 22.4602 20.6811 22.4602 18.47C22.4602 16.2589 20.6767 14.4755 18.4656 14.4755ZM18.4656 21.067C17.0368 21.067 15.8686 19.9024 15.8686 18.47C15.8686 17.0377 17.0333 15.873 18.4656 15.873C19.898 15.873 21.0626 17.0377 21.0626 18.47C21.0626 19.9024 19.8945 21.067 18.4656 21.067ZM23.5553 14.3121C23.5553 14.8301 23.1381 15.2438 22.6236 15.2438C22.1056 15.2438 21.6919 14.8266 21.6919 14.3121C21.6919 13.7975 22.1091 13.3804 22.6236 13.3804C23.1381 13.3804 23.5553 13.7975 23.5553 14.3121ZM26.201 15.2577C26.1419 14.0096 25.8568 12.9041 24.9425 11.9932C24.0316 11.0823 22.9261 10.7973 21.678 10.7347C20.3917 10.6617 16.5361 10.6617 15.2498 10.7347C14.0052 10.7938 12.8997 11.0789 11.9853 11.9897C11.071 12.9006 10.7894 14.0061 10.7268 15.2542C10.6538 16.5405 10.6538 20.3961 10.7268 21.6824C10.7859 22.9305 11.071 24.036 11.9853 24.9469C12.8997 25.8577 14.0017 26.1428 15.2498 26.2054C16.5361 26.2784 20.3917 26.2784 21.678 26.2054C22.9261 26.1463 24.0316 25.8612 24.9425 24.9469C25.8533 24.036 26.1384 22.9305 26.201 21.6824C26.274 20.3961 26.274 16.544 26.201 15.2577ZM24.5392 23.0626C24.268 23.744 23.7431 24.2689 23.0582 24.5436C22.0326 24.9504 19.599 24.8565 18.4656 24.8565C17.3323 24.8565 14.8952 24.9469 13.8731 24.5436C13.1917 24.2724 12.6667 23.7475 12.3921 23.0626C11.9853 22.037 12.0792 19.6034 12.0792 18.47C12.0792 17.3367 11.9888 14.8996 12.3921 13.8775C12.6633 13.1961 13.1882 12.6711 13.8731 12.3965C14.8987 11.9897 17.3323 12.0836 18.4656 12.0836C19.599 12.0836 22.0361 11.9932 23.0582 12.3965C23.7396 12.6677 24.2645 13.1926 24.5392 13.8775C24.9459 14.9031 24.8521 17.3367 24.8521 18.47C24.8521 19.6034 24.9459 22.0405 24.5392 23.0626Z" fill="#2A2F2F"/>
</svg>
