<svg width="20" height="20" viewBox="0 0 20 20" fill="none" xmlns="http://www.w3.org/2000/svg">
<path d="M2.42442 10.9764C2.13978 10.3572 2.13978 9.64275 2.42442 9.02349C3.742 6.15698 6.63866 4.16663 10.0002 4.16663C13.3617 4.16663 16.2584 6.15698 17.576 9.02349C17.8606 9.64276 17.8606 10.3572 17.576 10.9764C16.2584 13.8429 13.3617 15.8333 10.0002 15.8333C6.63866 15.8333 3.74201 13.8429 2.42442 10.9764Z" stroke="#807D7E" stroke-width="1.5"/>
<path d="M12.5002 9.99996C12.5002 11.3807 11.3809 12.5 10.0002 12.5C8.61948 12.5 7.50019 11.3807 7.50019 9.99996C7.50019 8.61925 8.61948 7.49996 10.0002 7.49996C11.3809 7.49996 12.5002 8.61925 12.5002 9.99996Z" stroke="#807D7E" stroke-width="1.5"/>
</svg>
