<svg width="80" height="46" viewBox="0 0 80 46" fill="none" xmlns="http://www.w3.org/2000/svg">
<rect width="80" height="46" rx="8" fill="white"/>
<path d="M38.8537 22.0879V26.9405H37.3035V14.9566H41.4148C41.9056 14.9464 42.3935 15.0329 42.8505 15.2109C43.3074 15.389 43.7243 15.6552 44.0771 15.9941C44.4335 16.3124 44.7171 16.7028 44.9089 17.139C45.1008 17.5753 45.1963 18.0472 45.1892 18.5232C45.1994 19.0017 45.1053 19.4767 44.9134 19.9157C44.7214 20.3548 44.4361 20.7474 44.0771 21.0666C43.3582 21.7475 42.4708 22.0875 41.4148 22.0869H38.8537V22.0879ZM38.8537 16.432V20.6153H41.4534C41.7384 20.6237 42.022 20.5729 42.2861 20.4663C42.5502 20.3596 42.789 20.1993 42.9872 19.9957C43.1843 19.8054 43.341 19.5777 43.448 19.3262C43.555 19.0747 43.6102 18.8044 43.6102 18.5313C43.6102 18.2583 43.555 17.988 43.448 17.7365C43.341 17.4849 43.1843 17.2573 42.9872 17.0669C42.7915 16.8591 42.5535 16.6949 42.2891 16.5852C42.0247 16.4756 41.7398 16.4231 41.4534 16.4311H38.8537V16.432Z" fill="#5F6368"/>
<path d="M48.7613 18.4735C49.9071 18.4735 50.8116 18.7776 51.4746 19.3857C52.1377 19.9938 52.4689 20.8276 52.4683 21.8871V26.9405H50.9855V25.8027H50.9181C50.2762 26.7397 49.4225 27.2083 48.3569 27.2083C47.4474 27.2083 46.6864 26.9405 46.074 26.4051C45.7801 26.1593 45.5452 25.8515 45.3863 25.5042C45.2274 25.1568 45.1485 24.7786 45.1555 24.3971C45.1555 23.5486 45.4783 22.8739 46.1241 22.3728C46.7698 21.8718 47.6319 21.6206 48.7103 21.6194C49.6308 21.6194 50.3889 21.7867 50.9845 22.1214V21.7695C50.9863 21.5094 50.9298 21.2522 50.819 21.0166C50.7083 20.7809 50.5461 20.5726 50.3443 20.4069C49.9343 20.0396 49.4001 19.8392 48.848 19.8456C47.9821 19.8456 47.2968 20.2084 46.7923 20.9338L45.427 20.0799C46.178 19.009 47.2894 18.4735 48.7613 18.4735ZM46.7557 24.4306C46.7547 24.6265 46.8008 24.8198 46.8902 24.9945C46.9797 25.1691 47.1098 25.32 47.2699 25.4345C47.6127 25.7024 48.0383 25.8443 48.4744 25.8361C49.1286 25.8351 49.7556 25.5765 50.2181 25.1171C50.7316 24.6371 50.9884 24.0739 50.9884 23.4275C50.505 23.045 49.8311 22.8538 48.9664 22.8538C48.3367 22.8538 47.8116 23.0046 47.3912 23.3061C46.9666 23.6121 46.7557 23.984 46.7557 24.4306Z" fill="#5F6368"/>
<path d="M60.98 18.7412L55.8037 30.5549H54.2035L56.1244 26.4213L52.7207 18.7412H54.4057L56.8658 24.6313H56.8995L59.2922 18.7412H60.98Z" fill="#5F6368"/>
<path d="M32.5893 21.0418C32.5899 20.5727 32.5499 20.1043 32.4699 19.642H25.9321V22.2935H29.6766C29.6 22.717 29.4378 23.1206 29.1999 23.4802C28.9619 23.8398 28.6531 24.1478 28.2921 24.3856V26.1067H30.5268C31.8354 24.9086 32.5893 23.1368 32.5893 21.0418Z" fill="#4285F4"/>
<path d="M25.9323 27.7696C27.8031 27.7696 29.3783 27.1595 30.527 26.1077L28.2922 24.3866C27.6702 24.8054 26.8691 25.0444 25.9323 25.0444C24.1241 25.0444 22.5893 23.8339 22.0405 22.2026H19.7383V23.9764C20.3153 25.1166 21.2001 26.0751 22.2938 26.7449C23.3876 27.4148 24.6473 27.7695 25.9323 27.7696Z" fill="#34A853"/>
<path d="M22.0404 22.2027C21.7502 21.3479 21.7502 20.4222 22.0404 19.5674V17.7937H19.7382C19.2528 18.7529 19 19.8115 19 20.8851C19 21.9586 19.2528 23.0172 19.7382 23.9764L22.0404 22.2027Z" fill="#FBBC04"/>
<path d="M25.9323 16.7256C26.9209 16.7095 27.8762 17.0805 28.5917 17.7583L30.5703 15.7933C29.3157 14.623 27.6535 13.9805 25.9323 14.0005C24.6473 14.0005 23.3876 14.3552 22.2938 15.0251C21.2001 15.6949 20.3153 16.6534 19.7383 17.7936L22.0405 19.5674C22.5893 17.9361 24.1241 16.7256 25.9323 16.7256Z" fill="#EA4335"/>
</svg>
