<svg width="80" height="46" viewBox="0 0 80 46" fill="none" xmlns="http://www.w3.org/2000/svg">
<rect width="80" height="46" rx="8" fill="white"/>
<path d="M33.7008 21.7031C33.56 22.7593 32.7151 22.7593 31.9406 22.7593H31.5181L31.8701 20.7174C31.8701 20.5766 32.011 20.5062 32.1518 20.5062H32.363C32.9263 20.5062 33.4192 20.5062 33.7008 20.7878C33.7008 21.0694 33.7008 21.3511 33.7008 21.7031ZM33.3488 18.8867H30.3211C30.1099 18.8867 29.9691 19.0275 29.8986 19.2388L28.7017 26.9839C28.7017 27.1248 28.7721 27.2656 28.9833 27.2656H30.3915C30.6028 27.2656 30.7436 27.1248 30.814 26.9135L31.166 24.8012C31.166 24.59 31.3773 24.4492 31.5885 24.4492H32.5742C34.5457 24.4492 35.6723 23.4634 36.0244 21.5623C36.1652 20.7174 36.0244 20.0837 35.6723 19.5908C35.109 19.1684 34.3345 18.8867 33.3488 18.8867Z" fill="#263577"/>
<path d="M40.319 24.5196C40.1782 25.3646 39.5445 25.9278 38.6996 25.9278C38.2771 25.9278 37.9251 25.787 37.7138 25.5054C37.5026 25.2237 37.4322 24.8717 37.5026 24.5196C37.6434 23.6747 38.2771 23.1114 39.1221 23.1114C39.5445 23.1114 39.8966 23.2522 40.1078 23.5339C40.2486 23.7451 40.3894 24.0972 40.319 24.5196ZM42.2905 21.7032H40.8823C40.7415 21.7032 40.6711 21.7736 40.6007 21.9144L40.5303 22.3369L40.4599 22.1961C40.1782 21.7736 39.4741 21.5624 38.77 21.5624C37.1506 21.5624 35.8128 22.7594 35.5311 24.4492C35.3903 25.2941 35.6015 26.0687 36.0944 26.6319C36.5168 27.1248 37.1506 27.3361 37.9251 27.3361C39.1925 27.3361 39.8966 26.4911 39.8966 26.4911L39.8262 26.9136C39.8262 27.0544 39.8966 27.1952 40.1078 27.1952H41.3752C41.5864 27.1952 41.7272 27.0544 41.7977 26.8432L42.5722 21.9144C42.5722 21.844 42.5018 21.7032 42.2905 21.7032Z" fill="#263577"/>
<path d="M49.9656 21.7032H48.4869C48.3461 21.7032 48.2053 21.7737 48.1349 21.9145L46.1634 24.8717L45.3184 22.0553C45.248 21.8441 45.1072 21.7737 44.896 21.7737H43.4878C43.3469 21.7737 43.2061 21.9145 43.2765 22.1257L44.896 26.7728L43.4173 28.8851C43.2765 29.026 43.4174 29.3076 43.6286 29.3076H45.1072C45.248 29.3076 45.3889 29.2372 45.4593 29.0964L50.2472 22.1257C50.3176 21.9145 50.1768 21.7032 49.9656 21.7032Z" fill="#263577"/>
<path d="M55.1054 21.7031C54.9645 22.7593 54.1196 22.7593 53.3451 22.7593H52.9226L53.2747 20.7174C53.2747 20.5766 53.4155 20.5062 53.5563 20.5062H53.7676C54.3308 20.5062 54.8237 20.5062 55.1054 20.7878C55.1758 21.0694 55.1758 21.3511 55.1054 21.7031ZM54.7533 18.8867H51.7257C51.5144 18.8867 51.3736 19.0275 51.3032 19.2388L50.1062 26.9839C50.1062 27.1248 50.1766 27.2656 50.3879 27.2656H51.9369C52.0777 27.2656 52.2185 27.1952 52.2185 26.9839L52.5706 24.8012C52.5706 24.59 52.7818 24.4492 52.993 24.4492H53.9788C55.9503 24.4492 57.0769 23.4634 57.4289 21.5623C57.5697 20.7174 57.4289 20.0837 57.0769 19.5908C56.584 19.1684 55.8095 18.8867 54.7533 18.8867Z" fill="#2199D6"/>
<path d="M61.7946 24.5196C61.6538 25.3646 61.0201 25.9278 60.1752 25.9278C59.7527 25.9278 59.4007 25.787 59.1894 25.5054C58.9782 25.2237 58.9078 24.8717 58.9782 24.5196C59.119 23.6747 59.7527 23.1114 60.5976 23.1114C61.0201 23.1114 61.3722 23.2522 61.5834 23.5339C61.7242 23.7451 61.865 24.0972 61.7946 24.5196ZM63.7661 21.7032H62.3579C62.2171 21.7032 62.1467 21.7736 62.0762 21.9144L62.0059 22.3369L61.9354 22.1961C61.6538 21.7736 60.9497 21.5624 60.2456 21.5624C58.6261 21.5624 57.2883 22.7594 57.0067 24.4492C56.8659 25.2941 57.0771 26.0687 57.57 26.6319C57.9924 27.1248 58.6261 27.3361 59.4007 27.3361C60.668 27.3361 61.3721 26.4911 61.3721 26.4911L61.3017 26.9136C61.3017 27.0544 61.3722 27.1952 61.5834 27.1952H62.8508C63.062 27.1952 63.2028 27.0544 63.2732 26.8432L64.0478 21.9144C64.0478 21.844 63.9069 21.7032 63.7661 21.7032Z" fill="#2199D6"/>
<path d="M65.4559 19.098L64.1885 26.9839C64.1885 27.1248 64.2589 27.2656 64.4701 27.2656H65.7375C65.9488 27.2656 66.0896 27.1248 66.16 26.9135L67.357 19.1684C67.357 19.0275 67.2865 18.8867 67.0753 18.8867H65.6671C65.5967 18.8867 65.5263 19.0275 65.4559 19.098Z" fill="#2199D6"/>
<path d="M16.1681 28.7443L16.3794 27.2657H15.8865H13.4221L15.112 16.4929C15.112 16.4929 15.112 16.4225 15.1824 16.4225H15.2528H19.407C20.7448 16.4225 21.7306 16.7041 22.2235 17.2674C22.4347 17.5491 22.5755 17.8307 22.6459 18.1123C22.7163 18.4644 22.7163 18.8164 22.6459 19.3093V19.591L22.8572 19.7318C23.0684 19.8022 23.2092 19.943 23.35 20.0838C23.5613 20.2951 23.7021 20.5767 23.7021 20.9288C23.7725 21.2808 23.7725 21.7033 23.6317 22.1962C23.4908 22.7594 23.35 23.1819 23.1388 23.6044C22.9276 23.9564 22.6459 24.2381 22.3643 24.5197C22.0826 24.7309 21.6602 24.8718 21.3081 25.0126C20.8856 25.083 20.4632 25.1534 19.9703 25.1534H19.6183C19.407 25.1534 19.1958 25.2238 18.9846 25.3646C18.8437 25.5055 18.7029 25.7167 18.6325 25.9279V26.0687L18.21 28.6739V28.7443V28.8148C18.21 28.8148 18.21 28.8148 18.1396 28.8148H16.1681V28.7443Z" fill="#263577"/>
<path d="M23.139 19.3092C23.139 19.3796 23.139 19.45 23.0686 19.5204C22.5053 22.3369 20.6746 23.2522 18.2806 23.2522H17.0836C16.802 23.2522 16.5204 23.4634 16.5204 23.7451L15.8867 27.6881L15.7458 28.8146C15.7458 29.0259 15.8867 29.1667 16.0275 29.1667H18.2102C18.4919 29.1667 18.7031 28.9555 18.7031 28.7442V28.6034L19.1256 26.0686V25.9278C19.196 25.6462 19.4072 25.5053 19.6184 25.5053H19.9705C22.0828 25.5053 23.7022 24.6604 24.1247 22.196C24.3359 21.1399 24.1951 20.295 23.7023 19.7317C23.5614 19.5908 23.3502 19.45 23.139 19.3092Z" fill="#2199D6"/>
<path d="M22.5756 19.098C22.5052 19.098 22.4348 19.0275 22.2939 19.0275C22.2235 19.0275 22.0827 18.9571 22.0123 18.9571C21.6602 18.8867 21.3082 18.8867 20.9561 18.8867H17.7172C17.6468 18.8867 17.5764 18.8867 17.506 18.9571C17.3652 19.0275 17.2244 19.1684 17.2244 19.3092L16.5203 23.6746V23.8155C16.5907 23.5338 16.8019 23.3226 17.0835 23.3226H18.2805C20.6745 23.3226 22.5052 22.3368 23.0684 19.5908C23.0684 19.5204 23.0684 19.45 23.1389 19.3796C22.998 19.3092 22.8572 19.2388 22.7164 19.1684C22.646 19.098 22.5756 19.098 22.5756 19.098Z" fill="#252C5E"/>
<path d="M17.2246 19.3093C17.2246 19.1685 17.3655 19.0277 17.5063 18.9572C17.5767 18.9572 17.6471 18.8868 17.7175 18.8868H20.9564C21.3084 18.8868 21.7309 18.8868 22.0126 18.9572C22.083 18.9572 22.2238 18.9572 22.2942 19.0277C22.3646 19.0277 22.435 19.0981 22.5758 19.0981C22.6463 19.0981 22.6463 19.0981 22.7167 19.1685C22.8575 19.2389 22.9983 19.3093 23.1391 19.3797C23.28 18.3236 23.1391 17.6194 22.5758 16.9857C21.9421 16.2816 20.8156 16 19.4074 16H15.2531C14.9715 16 14.6899 16.2112 14.6899 16.4929L13 27.3361C13 27.5473 13.1408 27.7586 13.3521 27.7586H15.8868L16.5205 23.6748L17.2246 19.3093Z" fill="#263577"/>
</svg>
