<svg width="80" height="46" viewBox="0 0 80 46" fill="none" xmlns="http://www.w3.org/2000/svg">
<rect width="80" height="46" rx="8" fill="white"/>
<path fill-rule="evenodd" clip-rule="evenodd" d="M16.0004 21.6599C15.8903 21.9352 15.8352 22.2289 15.7618 22.5225C15.5783 23.4034 15.4315 24.3394 15.2296 25.2203C14.8258 25.2203 14.4037 25.2203 14 25.2203C14.4588 22.2472 15.303 19.3476 15.67 16.1543C16.0738 16.1543 16.4775 16.1543 16.8629 16.1543C16.8079 16.4479 16.7345 16.7232 16.6978 17.0169C16.6978 17.0352 16.6611 17.0536 16.6611 17.0903C17.2116 16.3745 18.0558 15.879 19.3955 16.0258C20.7169 16.1543 21.4326 17.2004 21.4877 18.43C21.6161 20.779 20.3682 22.9079 17.7989 22.7244C16.9547 22.6693 16.3124 22.3573 16.0004 21.6599ZM17.7255 17.2004C16.6427 17.7509 15.5966 20.2835 16.8262 21.3663C17.6337 22.082 18.9 21.6966 19.4322 21.036C20.0378 20.2835 20.5884 18.118 19.6708 17.3472C19.3588 17.0903 18.8633 16.9985 18.4045 17.0536C18.0742 17.0719 17.909 17.1086 17.7255 17.2004Z" fill="#030000"/>
<path fill-rule="evenodd" clip-rule="evenodd" d="M27.1586 22.5958C26.7732 22.5958 26.3878 22.5958 25.984 22.5958C26.0391 22.2288 26.1125 21.8801 26.1859 21.5314C25.8372 22.0452 25.2316 22.6325 24.3507 22.7243C23.0844 22.8527 21.9282 22.2104 21.8181 21.1643C21.7814 20.8157 21.7998 20.2467 22.0934 19.8063C22.8275 18.6501 24.7361 18.5767 26.6264 18.6318C27.1953 16.5396 24.1488 16.8516 23.1028 17.5306C23.1578 17.1269 23.2496 16.7415 23.3046 16.3377C25.1949 15.7505 27.7458 15.8973 27.8927 17.9344C27.9477 18.7419 27.7091 19.531 27.5623 20.3018C27.4155 21.0542 27.2687 21.7883 27.1586 22.5958ZM23.1578 20.9258C23.1945 21.458 23.7818 21.7516 24.2589 21.7516C25.5619 21.77 26.1859 20.6321 26.3878 19.5127C24.9196 19.4392 23.0661 19.6228 23.1578 20.9258Z" fill="#030000"/>
<path fill-rule="evenodd" clip-rule="evenodd" d="M29.9848 16.1726C30.2601 17.8794 30.5904 19.531 30.8474 21.2745C31.82 19.6045 32.7193 17.861 33.6736 16.1726C34.1141 16.1726 34.5545 16.1726 35.0133 16.1726C33.8388 18.3015 32.4624 20.6322 31.141 22.8711C30.7373 23.5685 30.3335 24.5045 29.7463 24.9633C29.2324 25.367 28.2414 25.4588 27.4155 25.2936C27.4339 24.9266 27.5623 24.6513 27.5807 24.3026C27.7459 24.2843 27.9477 24.3944 28.1496 24.3944C29.0489 24.3944 29.5444 23.5685 29.8747 22.9262C29.4893 20.7056 29.0672 18.5033 28.6818 16.2644C28.6451 16.2277 28.6635 16.2093 28.6818 16.1726C29.1223 16.1726 29.5627 16.1726 29.9848 16.1726Z" fill="#030000"/>
<path fill-rule="evenodd" clip-rule="evenodd" d="M35.5455 26.358C35.2703 27.918 34.9216 29.3861 34.6463 30.9461C33.7837 30.9461 32.9212 30.9461 32.0403 30.9461C32.444 29.0374 32.7927 27.1472 33.1781 25.2569C33.5635 23.385 34.0223 21.5131 34.2425 19.531C34.9399 19.476 35.8759 19.476 36.5733 19.531C36.5549 19.9715 36.4448 20.3385 36.4081 20.7606C37.0871 20.0816 37.8212 19.1823 39.3811 19.3292C40.8677 19.476 41.6935 20.7239 41.8036 22.3022C42.0055 25.0183 40.6841 27.6794 38.2984 27.8629C36.8118 27.973 36.1145 27.294 35.5455 26.358ZM36.5916 22.3022C35.986 23.1648 35.7841 24.8164 36.5549 25.4588C37.0321 25.8625 37.913 25.6606 38.3167 25.3303C38.8306 24.9082 39.1976 24.1007 39.1793 23.0913C39.1609 22.1737 38.7572 21.4029 37.7845 21.5314C37.2156 21.6048 36.8669 21.8985 36.5916 22.3022Z" fill="#009651"/>
<path fill-rule="evenodd" clip-rule="evenodd" d="M48.9425 27.6978C48.2635 27.6794 47.4927 27.7345 46.8687 27.6611C46.9421 27.294 46.9421 26.8352 46.9972 26.4682C46.7953 26.6701 46.6485 26.9637 46.3915 27.2023C45.5473 27.9731 43.6571 28.1382 42.7211 27.3674C41.7118 26.5232 41.8769 24.5045 42.7211 23.642C43.6938 22.6326 45.529 22.3757 47.4193 22.5775C47.6028 21.8067 47.0889 21.3296 46.4466 21.2378C45.5106 21.1094 44.2627 21.5131 43.7121 21.8434C43.8223 21.1828 43.859 20.467 43.9874 19.8064C44.6481 19.5678 45.2721 19.3843 46.0612 19.3476C48.2451 19.2007 49.75 19.9348 49.8968 21.8067C49.9702 22.7978 49.6766 23.8255 49.4564 24.7981C49.2545 25.7524 49.1077 26.7251 48.9425 27.6978ZM46.3181 24.0273C45.529 24.0457 44.6664 24.3026 44.4829 24.8899C44.3361 25.4038 44.7032 25.8809 45.0885 25.9543C46.2998 26.2112 47.1256 25.0184 47.2174 24.064C46.9421 24.009 46.5384 24.0273 46.3181 24.0273Z" fill="#009651"/>
<path fill-rule="evenodd" clip-rule="evenodd" d="M56.9441 19.8063C56.8156 20.467 56.577 21.0175 56.4486 21.6782C55.8062 21.458 55.0354 21.1276 54.0261 21.2377C53.6223 21.2928 53.2186 21.4947 53.2186 21.8984C53.2369 22.3939 53.9894 22.5775 54.4482 22.761C55.0905 23.0363 55.8613 23.4033 56.1733 23.9539C56.7055 24.9082 56.1733 26.3029 55.6044 26.8902C55.1272 27.3857 54.228 27.7895 53.3103 27.8629C52.1175 27.9546 50.8695 27.7344 49.8418 27.4591C49.9886 26.7801 50.1538 26.1561 50.3373 25.5321C51.0163 25.8074 51.7871 26.0644 52.8332 25.9726C53.3287 25.9175 53.8793 25.7524 53.8059 25.1651C53.7508 24.6879 53.0351 24.5228 52.5029 24.3026C51.5118 23.8988 50.7778 23.3849 50.7778 22.0452C50.7778 19.2924 54.595 18.8336 56.9441 19.8063Z" fill="#009651"/>
<path fill-rule="evenodd" clip-rule="evenodd" d="M63.4407 19.8063C63.2939 20.4486 63.092 21.0543 62.9085 21.6782C62.3029 21.4397 61.5137 21.1277 60.5044 21.2378C60.1006 21.2745 59.6969 21.4764 59.6969 21.8985C59.7152 22.4123 60.6328 22.6876 61.0549 22.8711C61.9175 23.2382 62.7433 23.6419 62.8534 24.6329C62.9635 25.6056 62.5598 26.3947 61.9909 26.9269C61.4587 27.4408 60.6695 27.7895 59.7886 27.8629C58.5774 27.9547 57.4028 27.7344 56.3201 27.4592C56.4302 26.7618 56.6504 26.1929 56.7789 25.5322C57.2744 25.679 57.7515 25.9176 58.3388 25.9726C59.1646 26.046 60.2841 25.991 60.2658 25.2752C60.2474 24.5045 58.6508 24.3393 58.0268 23.8438C57.3478 23.3116 56.9257 22.0086 57.4579 20.9441C58.3388 19.2925 61.3669 18.9254 63.4407 19.8063Z" fill="#009651"/>
<path d="M64.4133 20.6506H64.083L64.1014 20.5221H64.9089L64.8905 20.6506H64.5602L64.3766 21.6599H64.2298L64.4133 20.6506Z" fill="#009651"/>
<path d="M65.7713 21.6599L65.8447 21.0543C65.863 20.9442 65.8814 20.779 65.8998 20.6689C65.8447 20.779 65.7896 20.9258 65.7162 21.036L65.3859 21.6599H65.2758L65.184 21.0543C65.1657 20.9258 65.1473 20.7974 65.1473 20.6689C65.129 20.779 65.0923 20.9442 65.0556 21.0543L64.9087 21.6599H64.7803L65.0739 20.5221H65.2574L65.3492 21.1644C65.3675 21.2562 65.3675 21.3663 65.3675 21.4581C65.4042 21.3663 65.4593 21.2745 65.496 21.1828L65.8447 20.5221H66.0282L65.8814 21.6599H65.7713Z" fill="#009651"/>
</svg>
