<svg width="152" height="47" viewBox="0 0 152 47" fill="none" xmlns="http://www.w3.org/2000/svg">
<path d="M21.8366 9.84897L22.9535 9.61307C23.2364 9.61307 23.4747 9.67205 23.6385 9.78999C23.8023 9.90794 23.8917 10.0259 23.8917 10.1291C23.8917 10.2323 23.8619 10.3945 23.8172 10.5861C23.7725 10.7778 23.3556 12.7534 22.5812 16.4835C21.8068 20.2135 21.2409 23 20.8835 24.8282C22.611 22.4987 24.6363 19.6385 26.9446 16.2328C29.2529 12.8271 30.6081 10.5714 30.9953 9.45089C31.1144 9.09706 31.2782 8.83168 31.4718 8.64001C31.6654 8.44835 31.8441 8.3304 31.9931 8.30092C32.142 8.27143 32.3803 8.24194 32.693 8.24194C33.0057 8.24194 33.3781 8.31566 33.8099 8.44835C34.2418 8.58104 34.4652 8.80219 34.4652 9.12654C34.4652 9.71628 33.5716 11.4412 31.7995 14.272C30.0273 17.1027 27.9871 20.1103 25.6937 23.2949C23.4003 26.4794 21.494 29.0005 19.9601 30.8582C19.6921 31.1825 19.3496 31.3595 18.9624 31.3595C18.5752 31.3595 18.1582 31.2857 17.7263 31.1531C17.2944 31.0204 17.071 30.7845 17.071 30.4306C17.071 29.3249 18.0539 23.9878 20.0197 14.4489C18.3369 16.6014 16.2966 19.609 13.899 23.457C11.3971 27.4377 9.98234 29.9146 9.65471 30.8582C9.476 31.4332 9.26752 31.7723 9.02924 31.8607C8.86543 31.9345 8.68671 31.9639 8.508 31.9639L7.30174 32.0966C7.06346 32.0966 6.85496 32.0377 6.64647 31.905C6.45287 31.7723 6.34863 31.6396 6.34863 31.4922C6.34863 31.0941 6.91455 29.8851 8.03146 27.88C9.14838 25.875 10.4738 23.6929 11.9779 21.334C13.482 18.9751 15.0457 16.6899 16.6839 14.4636C18.322 12.2374 19.5878 10.7336 20.4814 9.98166C20.6601 9.81948 20.8686 9.74576 21.1068 9.74576L21.8366 9.84897Z" fill="#37393F"/>
<path d="M39.7365 19.845C40.5109 19.845 40.8981 20.1104 40.8981 20.6264C40.8981 20.9066 40.8386 21.113 40.7045 21.2457C40.5705 21.3784 40.2876 21.8059 39.8557 22.5578C39.4238 23.295 38.9472 24.2386 38.426 25.4033C37.9048 26.5533 37.5623 27.5411 37.4134 28.3519C37.3836 28.4551 37.3687 28.5878 37.3687 28.7795C37.3687 29.3397 37.5176 29.6051 37.8303 29.6051C38.1431 29.6051 38.5005 29.4577 38.9175 29.1776C39.3344 28.8827 39.7067 28.5878 40.0344 28.2487C40.362 27.9244 40.6747 27.5853 40.9875 27.2462C41.3002 26.9071 41.4789 26.7007 41.5385 26.6565C41.5981 26.6122 41.6874 26.5827 41.8066 26.5827C42.0002 26.5827 42.1193 26.7302 42.164 27.025C42.2087 27.3199 42.2235 27.6148 42.2235 27.9391C42.2235 28.2635 42.1938 28.4699 42.1342 28.5878C41.8363 29.1628 41.196 29.8558 40.1833 30.6666C39.1855 31.4775 38.2622 31.8756 37.4431 31.8756C36.6241 31.8756 36.0135 31.625 35.6412 31.1384C35.2689 30.6519 35.0604 30.0917 35.0604 29.5019C35.0604 28.8974 35.1646 28.3814 35.3731 27.9244C34.5243 29.0154 33.5563 29.9295 32.4691 30.6961C31.3671 31.448 30.4885 31.8314 29.7885 31.8314C29.0886 31.8314 28.5376 31.625 28.0908 31.2121C27.5249 30.6961 27.2568 29.9885 27.2568 29.0744C27.2568 28.1603 27.4653 27.2462 27.8823 26.3174C28.2993 25.4033 28.8354 24.5482 29.5056 23.7963C30.1757 23.0296 30.9203 22.3367 31.7245 21.7175C33.4073 20.4053 34.971 19.7566 36.4007 19.7566C36.9517 19.7566 37.3985 19.8451 37.741 20.022C38.0835 20.1989 38.3069 20.4348 38.3962 20.7002C38.6345 20.3316 38.843 20.1104 39.0217 20.0072C39.1557 19.8893 39.4089 19.845 39.7365 19.845ZM37.7112 21.5258C35.9688 21.5258 34.1668 22.4841 32.3053 24.4007C31.65 25.0937 31.0395 25.9046 30.4736 26.8629C29.9077 27.8212 29.6396 28.4699 29.6396 28.8237C29.6396 29.1776 29.7439 29.3545 29.9524 29.3545C30.2353 29.3545 31.0246 28.7942 32.3351 27.6885C33.6456 26.5827 34.5094 25.7571 34.9264 25.2264C35.4029 24.6366 36.3262 23.3982 37.7112 21.5258Z" fill="#37393F"/>
<path d="M51.3235 11.8542L51.9489 12.0017C52.0383 12.0017 52.1277 12.0459 52.1872 12.1344C52.2617 12.2228 52.2915 12.3113 52.2915 12.385C52.2915 12.4587 52.1872 12.6799 51.9639 13.0337C51.7405 13.3876 51.5022 13.7856 51.2043 14.2279C50.9065 14.6702 50.7576 14.9209 50.7427 14.9651C51.532 14.9061 52.0979 14.8766 52.4255 14.8766C52.7531 14.8766 52.9765 14.9061 53.1105 14.9503C53.2297 14.9946 53.3786 15.1273 53.5275 15.3337C53.6913 15.5401 53.8254 15.7023 53.9594 15.8055C54.0934 15.9087 54.153 16.0708 54.153 16.2772C54.153 16.4837 54.019 16.6753 53.7658 16.808C53.5126 16.9554 53.2297 17.0439 52.9318 17.0734C50.564 17.3093 49.2684 17.4272 49.0301 17.442C48.211 18.6951 47.0494 20.6413 45.5751 23.2803C44.1007 25.9194 43.3114 27.5854 43.2221 28.2488C43.1774 28.5584 43.1625 28.7943 43.1625 28.986C43.1625 29.3841 43.371 29.5757 43.788 29.5757C44.205 29.5757 44.6666 29.4135 45.173 29.1039C45.6793 28.7796 46.1559 28.4405 46.5728 28.0719C47.7196 27.0694 48.3301 26.5533 48.4046 26.5533C48.6727 26.5533 48.8067 27.0104 48.8067 27.9097C48.8067 28.3962 48.5833 28.8386 48.1217 29.2366C47.0941 30.1065 46.2303 30.7699 45.5304 31.2122C44.8305 31.6545 44.1305 31.8757 43.4157 31.8757C43.2668 31.8757 43.1179 31.8609 42.9838 31.8314C42.1648 31.684 41.5691 31.3891 41.1967 30.9468C40.8096 30.5045 40.6309 29.9148 40.6309 29.1776C40.6309 28.4405 40.8542 27.5264 41.301 26.4649C41.7478 25.4034 42.2988 24.2681 42.9689 23.0739C44.071 21.1131 45.173 19.2849 46.2601 17.5747L45.6793 17.6484C44.5028 17.7811 43.8178 17.84 43.6242 17.84H43.4902C43.1923 17.84 42.9094 17.7811 42.6413 17.6631C42.3732 17.5452 42.2243 17.3977 42.2243 17.2356C42.2243 17.0586 42.2988 16.8965 42.4477 16.7343C42.5966 16.5721 42.686 16.4394 42.7158 16.351C42.7902 16.1298 43.0583 15.8792 43.5199 15.6138C43.9816 15.3484 44.3241 15.201 44.5624 15.1862C44.8007 15.1715 45.0241 15.1568 45.2474 15.142C45.4708 15.1273 45.7091 15.1273 45.9772 15.1125C46.2452 15.0978 46.4537 15.0978 46.6026 15.083L47.9727 15.0241C48.8216 13.7561 49.4173 12.9305 49.73 12.5767C50.0576 12.2081 50.2363 12.0164 50.281 11.9869C50.3257 11.9575 50.4299 11.928 50.5937 11.928L51.3235 11.8542Z" fill="#37393F"/>
<path d="M60.4811 26.5824C60.6747 26.5824 60.7939 26.7299 60.8385 27.0247C60.8832 27.3196 60.8981 27.6145 60.8981 27.9388C60.8981 28.2632 60.8683 28.4696 60.8087 28.5875C60.5109 29.1478 59.8706 29.8407 58.8728 30.6516C57.875 31.4625 56.9219 31.8753 56.0284 31.8753C55.4773 31.8753 54.971 31.7131 54.4945 31.3888C54.0328 31.0644 53.7945 30.4894 53.7945 29.6785C53.7945 28.8677 54.0179 28.0568 54.4498 27.2754C51.9181 30.4157 49.9523 31.9785 48.5078 31.9785C47.9419 31.9785 47.4802 31.7721 47.1228 31.374C46.7654 30.976 46.6016 30.5631 46.6016 30.1208C46.6016 29.6933 46.6611 29.251 46.7803 28.7939C46.8994 28.3369 47.0334 27.9241 47.1675 27.5555C47.3015 27.1869 47.51 26.7446 47.778 26.2139C48.0461 25.6831 48.2546 25.2998 48.3737 25.0491C48.4929 24.7985 48.7163 24.4447 49.0141 23.9581C49.3119 23.4716 49.6843 22.8082 50.1608 21.9825C50.6374 21.1569 51.0245 20.5377 51.3373 20.1396C51.65 19.7415 51.9479 19.5351 52.2457 19.5351C52.5436 19.5351 52.7967 19.6531 53.0201 19.889C53.2435 20.1249 53.3626 20.3313 53.3626 20.4787C53.3626 20.6261 53.0201 21.3043 52.3351 22.5133C50.3246 26.1254 49.312 28.219 49.312 28.8234C49.312 28.9709 49.3715 29.0446 49.4758 29.0446C49.9672 29.0446 51.1884 27.9978 53.1244 25.9043C55.0604 23.8107 56.1922 22.4691 56.5049 21.8793C56.8176 21.2896 57.1006 20.7883 57.3984 20.3903C57.6814 19.9922 57.9048 19.7415 58.0537 19.6531C58.4856 19.373 59.0515 19.2255 59.7514 19.196C59.8706 19.196 59.945 19.196 60.0046 19.2108C60.0641 19.2255 60.1386 19.314 60.2131 19.4614C60.2875 19.6089 60.3322 19.7415 60.3322 19.8447C60.2429 20.1249 59.8408 20.8768 59.111 22.1005C58.3962 23.3242 57.9941 24.0171 57.9197 24.1645C56.7134 26.6267 56.1177 28.2337 56.1177 28.9709C56.1177 29.3984 56.2815 29.6048 56.6091 29.6048C57.2048 29.5311 57.9197 29.0593 58.7536 28.2042C59.0664 27.8946 59.3642 27.5702 59.6621 27.2459C59.9599 26.9215 60.1535 26.7299 60.2131 26.6857C60.2875 26.6119 60.3769 26.5824 60.4811 26.5824Z" fill="#37393F"/>
<path d="M64.9046 23.0886C67.3023 20.3906 69.3574 19.0342 71.0402 19.0342C71.4572 19.0342 71.7997 19.1522 72.0678 19.4028C72.3359 19.6534 72.4699 19.963 72.4699 20.3611C72.4699 20.7592 72.1869 21.4079 71.621 22.3367C71.0551 23.2508 70.5339 24.0322 70.0573 24.6662C69.8042 24.9905 69.5212 25.1527 69.1936 25.1527C68.8809 25.1527 68.6277 25.0347 68.449 24.7989C68.2703 24.563 68.1809 24.2976 68.1809 23.988C68.1809 23.295 68.5532 22.4989 69.3127 21.629L69.2829 21.5996C68.9404 21.629 68.1214 22.2925 66.7811 23.5604C65.4556 24.8431 64.3238 25.9931 63.3856 26.9956C62.4623 28.0129 61.4496 29.2366 60.3476 30.6962C60.0349 31.1237 59.7668 31.3449 59.5434 31.3449C59.32 31.3449 59.0371 31.2712 58.6797 31.1385C58.3223 31.0058 58.0989 30.9026 58.0244 30.8436C57.95 30.7846 57.9053 30.6814 57.9053 30.534C57.9053 30.4013 57.95 30.2244 58.0244 30.0475C58.0989 29.8558 58.2627 29.5904 58.4712 29.2513C58.6797 28.9122 59.0222 28.352 59.469 27.5853C59.9157 26.8187 60.6008 25.654 61.539 24.1059C62.4772 22.5579 63.0282 21.6143 63.2218 21.2899C63.609 20.6265 63.9217 20.14 64.1749 19.8451C64.6366 19.2701 65.411 18.99 66.4981 18.99C66.7364 18.99 66.8704 19.1374 66.8704 19.447C66.8704 19.9188 66.4236 20.8182 65.545 22.1156L64.9046 23.0886Z" fill="#37393F"/>
<path d="M81.3313 20.0222C81.3313 20.6857 81.0632 21.2754 80.5122 21.7767C79.9612 22.278 79.3506 22.5286 78.6507 22.5286C78.4273 22.5286 78.2784 22.4696 78.2039 22.3664C78.1295 22.2632 78.0997 22.1158 78.0997 21.9536C78.0997 21.7914 78.1146 21.6145 78.1592 21.4523C77.7869 21.5703 77.3848 21.762 76.9381 22.0126C76.4913 22.2632 75.9403 22.6318 75.285 23.1331C74.6298 23.6344 74.3022 23.9882 74.3022 24.2388C74.3022 24.3126 74.4213 24.3568 74.6596 24.3568C74.8978 24.3568 75.2702 24.2683 75.7616 24.1061C76.253 23.944 76.6104 23.8555 76.804 23.8555C76.9976 23.8555 77.1317 23.8702 77.1912 23.885C77.3253 23.9587 77.4593 24.1061 77.6231 24.342C77.772 24.5779 77.8465 24.7696 77.8465 24.9023C77.8465 25.035 77.7125 25.2119 77.4444 25.433C77.1764 25.6542 76.8785 25.8164 76.5509 25.9343C76.2084 26.0523 75.985 26.1407 75.8807 26.1997C73.7363 27.3939 72.664 28.2048 72.664 28.6471C72.664 29.4285 73.3342 29.8265 74.6894 29.8265C75.5531 29.8265 76.4317 29.5612 77.2955 29.0157C78.0401 28.5586 78.7103 28.0868 79.306 27.6003C79.9016 27.1285 80.2739 26.8337 80.4378 26.7157C80.6016 26.5978 80.7207 26.5535 80.7952 26.5535C81.0632 26.5535 81.1973 26.8484 81.1973 27.4381C81.1973 28.0279 81.1675 28.4112 81.093 28.5881C81.0186 28.7798 80.825 29.0009 80.4824 29.281C78.3082 31.0355 76.2382 31.9201 74.3022 31.9201C73.2597 31.9201 72.4406 31.7727 71.8151 31.4925C70.6684 30.9765 70.1025 30.1951 70.1025 29.1336C70.1025 27.7477 71.0705 26.6862 73.0214 25.9785C72.6342 25.8016 72.3811 25.5952 72.2768 25.3151C72.1577 25.0497 72.113 24.6222 72.113 24.0324C72.113 23.4427 72.3959 22.8235 72.947 22.16C73.498 21.4966 74.183 20.9511 74.9872 20.5383C76.7743 19.5799 78.3826 19.1082 79.7825 19.1082C80.125 19.1082 80.4526 19.1819 80.8101 19.344C81.1675 19.5062 81.3313 19.7274 81.3313 20.0222Z" fill="#37393F"/>
<path d="M116.09 9.76055H116.283C116.343 9.76055 116.388 9.76055 116.402 9.77529C116.417 9.79004 116.432 9.79004 116.462 9.80478C116.492 9.80478 116.507 9.81952 116.536 9.84901C116.581 9.89324 116.656 9.93747 116.745 9.9817C116.864 10.0702 116.924 10.1734 116.924 10.2913C116.924 10.4093 116.805 10.6599 116.566 11.0432C116.328 11.4265 115.717 12.3554 114.72 13.8592C112.441 17.3091 110.401 20.5232 108.599 23.4718C105.486 28.6025 103.908 31.1826 103.878 31.2121C103.848 31.2416 103.833 31.271 103.819 31.3005C103.804 31.3595 103.774 31.389 103.699 31.389L103.491 31.3448L103.074 31.448L102.836 31.4037L102.582 31.448H102.493L101.644 31.5659C101.138 31.5659 100.885 31.389 100.885 31.0499C100.885 30.9025 100.929 30.7255 101.019 30.5191C101.331 29.782 102.925 27.1134 105.784 22.484C103.908 22.5283 102.046 22.5577 100.215 22.5577L96.9383 22.543C96.4022 23.3981 95.6576 24.6071 94.7193 26.1846C92.694 29.6198 91.6218 31.3448 91.4877 31.3743C91.3537 31.4037 91.2495 31.4332 91.1601 31.4332C91.0707 31.4332 90.9963 31.389 90.9367 31.2858C90.8623 31.1973 90.8176 31.1384 90.7878 31.1384C90.758 31.1384 90.7133 31.1531 90.624 31.1973C90.5495 31.2416 90.4304 31.2563 90.2666 31.2563L89.9092 31.2416L89.7751 31.1531C89.7602 31.1531 89.7453 31.1678 89.7305 31.1973C89.7156 31.2268 89.6709 31.2416 89.6113 31.2416C89.1794 31.2416 88.9561 31.0646 88.9561 30.6961C88.9561 30.4602 89.0454 30.1358 89.2092 29.7377C89.3879 29.3397 89.6113 28.9121 89.8943 28.4551C90.1772 27.998 90.892 26.8923 92.0685 25.1673C93.2301 23.4423 93.8109 22.5725 93.8109 22.5577C93.6173 22.543 93.3939 22.543 93.1408 22.5283C92.6195 22.5283 92.2621 22.5135 92.0387 22.4693C91.4579 22.3661 91.0559 21.8943 90.8474 21.0539C90.7282 20.6411 90.6836 20.3757 90.6984 20.243C90.6984 19.9777 90.8176 19.8302 91.0559 19.8302L91.4579 19.9334C91.6664 19.9482 92.143 19.9629 92.9174 20.0072C93.6918 20.0514 94.2428 20.0661 94.5853 20.0661L95.4491 20.0366C96.7745 17.9873 98.3531 15.6579 100.2 13.0631C98.8594 14.1541 97.3702 14.6996 95.732 14.6996C94.9576 14.6996 94.2875 14.5226 93.7365 14.1541C93.1705 13.7855 92.9025 13.3137 92.9025 12.7534C92.9025 12.1932 93.111 11.7509 93.5429 11.4118C93.9747 11.0874 94.3768 10.9253 94.764 10.9253C95.1512 10.9253 95.3448 10.9842 95.3448 11.1022C95.3448 11.1464 95.2852 11.1907 95.181 11.2349C95.0768 11.2939 95.0172 11.3381 95.0172 11.3823C95.0172 11.5445 95.1959 11.6919 95.5533 11.8099C95.9107 11.9278 96.3128 12.0015 96.7596 12.0015C97.2063 12.0015 97.7425 11.8688 98.3977 11.6182C99.053 11.3676 99.7231 11.0285 100.423 10.6304C101.406 10.0702 102.18 9.59837 102.746 9.22979C103.074 9.06761 103.372 8.9939 103.67 8.9939C103.967 8.9939 104.161 9.02338 104.295 9.0971C104.429 9.15607 104.518 9.22979 104.578 9.28876C104.638 9.34774 104.712 9.4362 104.772 9.5394C104.846 9.6426 104.906 9.73106 104.98 9.77529C105.04 9.83427 105.084 9.89324 105.084 9.96696C105.084 10.0407 105.04 10.1439 104.965 10.3061C104.891 10.4535 104.504 11.0727 103.804 12.149C103.104 13.2252 102.195 14.5964 101.093 16.2624C99.9912 17.9283 99.187 19.152 98.6807 19.9482C101.406 19.9482 104.34 19.904 107.497 19.8007C111.339 13.8002 113.364 10.6599 113.573 10.365C113.781 10.0702 113.975 9.8785 114.154 9.79004C114.332 9.70158 114.541 9.65735 114.794 9.65735L116.09 9.76055Z" fill="#37393F"/>
<path d="M121.064 19.8156C121.377 19.8156 121.689 19.9483 122.002 20.2285C122.33 20.5086 122.479 20.9214 122.479 21.4816C122.479 22.0419 122.285 22.7643 121.883 23.6636C121.481 24.5482 120.945 25.4623 120.245 26.3912C119.56 27.3053 118.785 28.1751 117.966 28.986C117.132 29.7969 116.239 30.4603 115.286 30.9763C114.318 31.4924 113.454 31.7577 112.665 31.7577C111.875 31.7577 111.25 31.5071 110.773 31.0206C110.297 30.534 110.059 29.8558 110.059 28.986C110.059 28.1161 110.282 27.1431 110.714 26.0963C111.146 25.0348 111.697 24.1059 112.382 23.2951C113.067 22.4842 113.797 21.7618 114.601 21.1131C116.254 19.7862 117.713 19.1375 118.964 19.1375C119.53 19.1375 119.947 19.2701 120.23 19.5503C120.334 19.6387 120.379 19.7272 120.379 19.7862V19.8746C120.543 19.8156 120.766 19.8156 121.064 19.8156ZM119.53 21.8207H119.426C119.068 21.8207 118.89 21.5701 118.89 21.0541C118.145 21.29 117.371 21.7175 116.552 22.322C115.733 22.9265 115.003 23.6489 114.362 24.4745C113.052 26.1258 112.397 27.5264 112.382 28.6616C112.382 29.2219 112.59 29.502 113.007 29.502C113.424 29.502 114.05 29.2219 114.869 28.6911C115.688 28.1604 116.507 27.379 117.326 26.3617C118.13 25.3591 118.741 24.4745 119.143 23.7374C119.545 23.0002 119.753 22.4989 119.753 22.2188C119.739 21.9534 119.664 21.8207 119.53 21.8207Z" fill="#37393F"/>
<path d="M122.151 31.4184L121.406 31.3889H121.138C121.034 31.3594 120.93 31.3004 120.811 31.212C120.691 31.1235 120.602 31.0498 120.542 31.0203C120.483 30.9908 120.453 30.9023 120.453 30.7991C120.453 30.6959 120.498 30.5043 120.572 30.2536C122.553 25.9338 124.474 22.4692 126.336 19.8891C126.544 19.609 126.872 19.3878 127.318 19.2404C127.765 19.0929 128.212 19.0192 128.644 19.0192C128.897 19.0192 129.031 19.2109 129.031 19.609C129.031 19.7269 128.986 19.8743 128.912 20.0513C128.837 20.2429 128.629 20.5378 128.301 20.9654C127.974 21.3929 127.587 21.8794 127.14 22.4102C126.693 22.941 126.44 23.2653 126.38 23.3538C127.78 21.9237 129.031 20.8621 130.163 20.1545C131.295 19.4615 132.099 19.1077 132.605 19.1077C133.112 19.1077 133.499 19.2551 133.767 19.5352C134.035 19.8154 134.169 20.125 134.169 20.4493C134.169 20.7737 134.139 21.0538 134.094 21.2602C134.05 21.4814 133.96 21.7025 133.841 21.9384C133.722 22.1743 133.618 22.3807 133.529 22.5429C133.439 22.7051 133.29 22.9262 133.097 23.1916C132.888 23.457 132.754 23.6486 132.68 23.7518C132.605 23.855 132.441 24.0467 132.203 24.3268C131.965 24.6069 131.831 24.7691 131.816 24.7986C132.099 24.5185 132.501 24.1057 133.007 23.5454C133.514 22.9852 133.945 22.5281 134.303 22.1596C134.66 21.791 135.092 21.3634 135.628 20.8916C136.164 20.4198 136.656 20.0365 137.103 19.7564C138.205 19.0782 139.322 18.7244 140.453 18.7244C140.841 18.7244 141.168 18.8423 141.436 19.0929C141.704 19.3436 141.838 19.6237 141.838 19.9628C141.838 20.3019 141.421 21.1128 140.602 22.3807C139.783 23.6486 138.949 24.9313 138.13 26.214C137.311 27.4966 136.894 28.3075 136.894 28.6466C136.894 29.1037 136.984 29.3838 137.147 29.4722C137.326 29.5607 137.535 29.5902 137.773 29.5754C138.011 29.5607 138.368 29.3985 138.8 29.1037C139.247 28.8088 139.634 28.5139 139.977 28.1896C140.543 27.6883 141.049 27.2018 141.541 26.73C141.645 26.6415 141.749 26.5973 141.883 26.5973C142.077 26.5973 142.196 26.7447 142.24 27.0396C142.285 27.3345 142.3 27.6293 142.3 27.9537C142.3 28.278 142.27 28.4844 142.211 28.6024C141.913 29.1626 141.258 29.8556 140.26 30.6812C139.247 31.4921 138.279 31.9049 137.356 31.9049C137.237 31.9049 137.162 31.9049 137.118 31.8901C136.075 31.7869 135.345 31.5068 134.943 31.035C134.541 30.5632 134.348 30.003 134.348 29.369C134.348 28.7351 134.571 27.9389 135.018 27.0249C135.465 26.1108 135.941 25.2704 136.477 24.5332C137.013 23.7961 137.49 23.1179 137.937 22.5134C138.383 21.9089 138.607 21.5846 138.607 21.5403C138.607 21.4961 138.562 21.4666 138.488 21.4666C138.175 21.4666 137.475 21.9679 136.373 22.9852C134.511 24.7102 132.903 26.3761 131.548 27.9684C131.19 28.396 130.342 29.4575 129.016 31.1825C128.867 31.3889 128.614 31.4921 128.286 31.4921C127.959 31.4921 127.616 31.4331 127.259 31.3004C126.901 31.1677 126.723 31.0055 126.723 30.8139C126.723 30.7107 127.527 29.2953 129.15 26.5678C130.773 23.8403 131.578 22.3512 131.578 22.1153C131.578 21.8647 131.429 21.7467 131.131 21.7467C130.833 21.7467 130.208 22.189 129.269 23.0736C126.693 25.5063 124.697 27.9389 123.283 30.3421C123.193 30.4895 123.015 30.7107 122.747 31.0056C122.478 31.3004 122.24 31.4184 122.151 31.4184Z" fill="#37393F"/>
<path d="M151.682 20.0222C151.682 20.6857 151.414 21.2754 150.863 21.7767C150.312 22.278 149.701 22.5286 149.001 22.5286C148.778 22.5286 148.629 22.4696 148.555 22.3664C148.48 22.2632 148.45 22.1158 148.45 21.9536C148.45 21.7914 148.465 21.6145 148.51 21.4523C148.138 21.5703 147.735 21.762 147.289 22.0126C146.842 22.2632 146.291 22.6318 145.636 23.1331C144.98 23.6344 144.653 23.9882 144.653 24.2388C144.653 24.3126 144.772 24.3568 145.01 24.3568C145.248 24.3568 145.621 24.2683 146.112 24.1061C146.604 23.944 146.961 23.8555 147.155 23.8555C147.348 23.8555 147.482 23.8702 147.542 23.885C147.676 23.9587 147.81 24.1061 147.974 24.342C148.123 24.5779 148.197 24.7696 148.197 24.9023C148.197 25.035 148.063 25.2119 147.795 25.433C147.527 25.6542 147.229 25.8164 146.901 25.9343C146.559 26.0523 146.336 26.1407 146.231 26.1997C144.087 27.3939 143.015 28.2048 143.015 28.6471C143.015 29.4285 143.685 29.8265 145.04 29.8265C145.904 29.8265 146.782 29.5612 147.646 29.0157C148.391 28.5586 149.061 28.0868 149.657 27.6003C150.252 27.1285 150.625 26.8337 150.788 26.7157C150.952 26.5978 151.071 26.5535 151.146 26.5535C151.414 26.5535 151.548 26.8484 151.548 27.4381C151.548 28.0279 151.518 28.4112 151.444 28.5881C151.369 28.7798 151.176 29.0009 150.833 29.281C148.659 31.0355 146.589 31.9201 144.653 31.9201C143.61 31.9201 142.791 31.7727 142.166 31.4925C141.019 30.9765 140.453 30.1951 140.453 29.1336C140.453 27.7477 141.421 26.6862 143.372 25.9785C142.985 25.8016 142.732 25.5952 142.627 25.3151C142.508 25.0497 142.464 24.6222 142.464 24.0324C142.464 23.4427 142.747 22.8235 143.298 22.16C143.849 21.4966 144.534 20.9511 145.338 20.5383C147.125 19.5799 148.733 19.1082 150.133 19.1082C150.476 19.1082 150.803 19.1819 151.161 19.344C151.518 19.5062 151.682 19.7274 151.682 20.0222Z" fill="#37393F"/>
<path d="M0.719727 35.5021C4.63639 37.1239 8.6275 38.3771 12.6931 39.3354C16.7289 40.3379 20.8391 41.0456 24.9494 41.4879C27.0045 41.768 29.0746 41.7975 31.1148 41.9892C33.1848 42.0039 35.2399 42.1661 37.2951 42.0482L40.3778 41.9745C41.4053 41.9597 42.4329 41.827 43.4604 41.7681C44.488 41.6796 45.5156 41.6354 46.5282 41.5027L49.5812 41.0751C53.6765 40.6328 57.6528 39.6892 61.6141 38.554C65.6201 37.463 69.4027 36.0182 73.4087 34.5143C77.5041 33.0253 81.942 32.0522 86.4395 32.524C88.6584 32.8041 90.8922 33.5118 92.7091 34.8092C94.5408 36.0919 95.8514 37.92 96.6853 39.8367C95.4344 38.1265 93.8707 36.7258 92.0687 35.856C90.2668 34.9861 88.2861 34.6323 86.3203 34.6913C82.3441 34.7502 78.4274 36.0624 74.749 37.7136C71.0111 39.5418 66.9604 41.1931 62.8799 42.5642C58.7697 43.8763 54.5254 44.9231 50.2215 45.4539C41.6585 46.5744 32.887 46.5891 24.4282 44.8936C20.1839 44.127 16.0438 42.9328 12.0378 41.4142C8.06159 39.8367 4.17473 37.9938 0.719727 35.5021Z" fill="#40DDB6"/>
<path d="M143.134 10.9549C139.813 9.5543 136.432 8.46329 133.007 7.60818C129.597 6.70884 126.142 6.07488 122.672 5.63258C120.944 5.3672 119.187 5.30822 117.459 5.10182C115.717 5.05759 113.99 4.88067 112.247 4.95438C111.383 4.96913 110.505 4.96913 109.641 4.95438C108.777 4.95438 107.899 5.04284 107.035 5.07233C106.171 5.1313 105.292 5.14605 104.429 5.23451L101.837 5.54411C98.3676 5.82424 95.0019 6.53192 91.6363 7.40177C88.226 8.21266 84.9944 9.36263 81.5542 10.5126C78.0248 11.6773 74.1975 12.385 70.3553 11.8543C68.464 11.5446 66.5578 10.8812 65.0536 9.70173C63.5197 8.53701 62.4773 6.94473 61.8369 5.27873C62.8943 6.73832 64.2048 7.93253 65.7089 8.6697C67.213 9.40687 68.8661 9.71647 70.5191 9.70173C73.855 9.70173 77.161 8.64021 80.2884 7.31331C83.4753 5.8095 86.975 4.4826 90.4598 3.39159C93.9744 2.34482 97.6379 1.54868 101.301 1.16535C108.613 0.398698 116.089 0.575617 123.253 2.25636C126.842 3.00826 130.341 4.15824 133.692 5.5736C137.058 7.01845 140.304 8.69918 143.134 10.9549Z" fill="#6B77E5"/>
</svg>
