<svg width="105" height="99" viewBox="0 0 105 99" fill="none" xmlns="http://www.w3.org/2000/svg">
<path d="M89.3353 83.0231C89.5047 83.0142 89.6652 82.9072 89.7276 82.7468C91.858 77.55 95.0491 62.04 95.0669 57.9486C95.1471 40.2814 93.4268 35.7621 87.7487 20.8048L86.7771 18.2465C86.6879 18.0148 86.4294 17.89 86.1977 17.9791C85.9659 18.0682 85.8411 18.3267 85.9303 18.5585L86.9019 21.1168C92.5354 35.9582 94.2379 40.4419 94.1577 57.9397C94.1399 61.9687 90.9844 77.2648 88.8807 82.3991C88.7827 82.6309 88.8986 82.8983 89.1303 82.9874C89.2016 83.0142 89.264 83.0231 89.3353 83.0231Z" fill="#40DDB6"/>
<path d="M94.1489 62.8957C94.1935 62.8957 94.238 62.8868 94.2826 62.869C94.5144 62.7799 94.6392 62.5214 94.55 62.2896C93.5873 59.6689 91.2519 57.289 89.7009 55.7023L89.3711 55.3636C88.5154 54.49 86.5187 52.1457 85.9393 51.085C85.6719 50.5947 85.4134 50.1401 85.1638 49.7033C83.4523 46.6815 82.4273 44.8542 82.0083 39.8625C81.9905 39.6129 81.7765 39.4168 81.518 39.4524C81.2685 39.4703 81.0813 39.6931 81.108 39.9427C81.5448 45.1305 82.6679 47.1272 84.3794 50.149C84.6201 50.5769 84.8786 51.0315 85.146 51.5217C85.7788 52.6627 87.8201 55.0694 88.7293 55.9965L89.0591 56.3352C90.6458 57.9486 92.8118 60.1592 93.7032 62.5927C93.7745 62.7888 93.9617 62.9047 94.1489 62.8957Z" fill="#40DDB6"/>
<path d="M94.4963 45.4693C94.6478 45.4604 94.7994 45.3712 94.8707 45.2197C96.2078 42.5901 97.5359 39.9071 98.8017 37.2507C100.174 34.3627 101.458 31.2963 100.709 28.2567C100.647 28.016 100.406 27.8645 100.165 27.9269C99.9248 27.9893 99.7733 28.23 99.8357 28.4706C100.513 31.225 99.2919 34.122 97.9905 36.8585C96.7248 39.5059 95.4055 42.1801 94.0684 44.8007C93.9526 45.0236 94.0417 45.2999 94.2645 45.4069C94.3448 45.4604 94.4161 45.4693 94.4963 45.4693Z" fill="#40DDB6"/>
<path d="M88.1782 17.6287C90.3187 15.2171 90.0989 11.5269 87.6872 9.38648C85.2756 7.24603 81.5854 7.46586 79.445 9.87749C77.3045 12.2891 77.5243 15.9793 79.936 18.1198C82.3476 20.2602 86.0378 20.0404 88.1782 17.6287Z" fill="#40DDB6"/>
<path d="M94.8172 24.9142C94.9598 27.3655 97.0635 29.2463 99.5148 29.1037C101.966 28.961 103.847 26.8574 103.704 24.4061C103.562 21.9548 101.458 20.074 99.0067 20.2166C96.5465 20.3592 94.6746 22.4629 94.8172 24.9142Z" fill="#40DDB6"/>
<path d="M76.8914 36.4669C77.034 38.9182 79.1377 40.799 81.5979 40.6564C84.0492 40.5138 85.93 38.4101 85.7874 35.9588C85.6447 33.5075 83.5411 31.6267 81.0898 31.7693C78.6296 31.903 76.7488 34.0067 76.8914 36.4669Z" fill="#40DDB6"/>
<path d="M82.3287 33.0076C82.5427 32.9987 82.7209 32.8382 82.7477 32.6243C82.8725 31.7953 83.3003 30.1284 83.6569 29.3262C83.7549 29.0944 83.6569 28.827 83.4251 28.729C83.1934 28.6309 82.926 28.729 82.8279 28.9607C82.4357 29.8521 81.9811 31.5903 81.8563 32.4995C81.8206 32.7491 81.99 32.9809 82.2396 33.0165C82.2663 33.0076 82.302 33.0165 82.3287 33.0076Z" fill="#40DDB6"/>
<path d="M80.003 33.3732C80.1457 33.3643 80.2883 33.2841 80.3685 33.1593C80.4933 32.9454 80.4309 32.669 80.217 32.5353C80.1902 32.5086 79.9941 32.2857 79.8426 31.0378C79.8069 30.6991 79.8426 30.3871 79.8872 30.0573C79.9228 29.7631 79.9674 29.469 79.9585 29.1303C79.9496 28.8807 79.7445 28.6846 79.495 28.6846C79.2721 28.6846 79.0493 28.8985 79.0493 29.1481C79.0582 29.4333 79.0225 29.6918 78.9869 29.9414C78.9423 30.3158 78.8888 30.6991 78.9423 31.1448C79.0938 32.4105 79.3345 33.0612 79.7445 33.3108C79.8248 33.3554 79.9139 33.3732 80.003 33.3732Z" fill="#40DDB6"/>
<path d="M79.138 34.1583C79.2093 34.1583 79.2896 34.1316 79.352 34.087C79.5659 33.9533 79.6283 33.677 79.4946 33.4631C78.4338 31.7694 77.5514 30.7176 76.8026 30.2363C76.5887 30.1026 76.3124 30.165 76.1786 30.3789C76.0449 30.5928 76.1073 30.8691 76.3213 31.0029C76.9452 31.404 77.7564 32.3934 78.728 33.9444C78.8171 34.087 78.9776 34.1673 79.138 34.1583Z" fill="#40DDB6"/>
<path d="M100.576 21.839C100.772 21.8301 100.932 21.6785 100.968 21.4824C101.075 20.7158 101.476 19.1827 101.806 18.4339C101.895 18.22 101.806 17.9793 101.592 17.8812C101.378 17.7921 101.137 17.8812 101.039 18.0952C100.682 18.9152 100.264 20.5197 100.139 21.3576C100.103 21.5894 100.264 21.7944 100.495 21.8301C100.513 21.839 100.54 21.839 100.576 21.839Z" fill="#40DDB6"/>
<path d="M99.3363 22.1151C99.47 22.1062 99.5948 22.0349 99.6661 21.9101C99.782 21.714 99.7196 21.4555 99.5235 21.3396C99.4968 21.3129 99.3185 21.1079 99.1759 19.958C99.1313 19.5658 99.167 19.2181 99.2115 18.7368C99.2383 18.505 99.2561 18.2465 99.2828 17.9346C99.3007 17.7028 99.1224 17.5067 98.8906 17.4889C98.6589 17.4799 98.4628 17.6493 98.4449 17.8811C98.4271 18.1752 98.4004 18.4337 98.3736 18.6566C98.3202 19.1647 98.2845 19.5747 98.338 20.056C98.4717 21.2237 98.6945 21.821 99.0778 22.0527C99.167 22.1062 99.2561 22.124 99.3363 22.1151Z" fill="#40DDB6"/>
<path d="M98.5338 22.8374C98.6051 22.8374 98.6675 22.8106 98.7299 22.775C98.926 22.6502 98.9884 22.3917 98.8636 22.1956C97.892 20.6357 97.0808 19.6641 96.3855 19.2273C96.1894 19.1025 95.9309 19.1649 95.8061 19.3521C95.6813 19.5482 95.7437 19.8067 95.9309 19.9315C96.5103 20.2969 97.2591 21.2151 98.1505 22.6413C98.2396 22.775 98.3822 22.8463 98.5338 22.8374Z" fill="#40DDB6"/>
<path d="M81.0987 9.5378C81.1789 9.52888 81.2503 9.51105 81.3216 9.46649C81.5266 9.32387 81.589 9.04754 81.4464 8.84252C80.9739 8.13833 80.1895 6.62298 79.9132 5.78509C79.833 5.54441 79.5745 5.41962 79.3427 5.49984C79.102 5.58007 78.9772 5.83857 79.0575 6.07033C79.3605 6.98845 80.1895 8.58402 80.6976 9.35061C80.7867 9.4754 80.9383 9.54671 81.0987 9.5378Z" fill="#40DDB6"/>
<path d="M80.4124 10.4115C80.448 10.4115 80.4837 10.4026 80.5193 10.3937C80.7689 10.3491 80.9294 10.1085 80.8759 9.86779C80.8313 9.6182 80.5817 9.45775 80.35 9.51123C80.3054 9.51123 80.0112 9.47558 79.0664 8.64659C78.8079 8.42375 78.6296 8.16525 78.4424 7.88892C78.273 7.64825 78.1037 7.39866 77.8719 7.14908C77.7026 6.96189 77.4173 6.95297 77.2301 7.13125C77.0429 7.30061 77.034 7.58585 77.2123 7.77304C77.4084 7.97806 77.551 8.19199 77.7026 8.40592C77.9165 8.71791 78.1393 9.0388 78.4781 9.33296C79.3605 10.0995 79.9578 10.4383 80.4124 10.4115Z" fill="#40DDB6"/>
<path d="M80.3414 11.5697C80.5285 11.5608 80.6979 11.436 80.7514 11.2399C80.8227 10.9992 80.6801 10.7496 80.4394 10.6783C78.5229 10.1346 77.1591 9.93847 76.2856 10.0811C76.036 10.1257 75.8755 10.3574 75.9112 10.607C75.9558 10.8566 76.1875 11.026 76.4371 10.9814C77.168 10.8566 78.4338 11.0527 80.1987 11.5519C80.2433 11.5608 80.2879 11.5697 80.3414 11.5697Z" fill="#40DDB6"/>
<path d="M92.1158 70.7934C91.064 70.7577 89.1743 70.0981 88.4879 69.1176C88.3453 68.9126 87.6233 67.8429 87.4717 67.0407C87.3024 66.1137 87.3024 65.3381 87.4717 64.2596C87.7124 62.7621 87.7659 62.6997 88.0244 62.6016C88.1848 62.5392 88.381 62.4679 89.7804 63.4395C91.4473 64.5894 93.0161 67.3972 92.7665 70.0981C92.7576 70.2318 92.6863 70.3477 92.5883 70.419C92.5526 70.6329 92.3832 70.7934 92.1693 70.8023C92.1426 70.7934 92.1337 70.7934 92.1158 70.7934ZM88.3631 64.4022C88.2027 65.3827 88.2027 66.0513 88.3542 66.8713C88.4344 67.3259 88.8534 68.0658 89.2278 68.6006C89.6378 69.18 90.9481 69.7416 91.8663 69.8664C92.0178 67.5755 90.654 65.151 89.2634 64.1883C89.1654 64.117 88.791 63.8852 88.4879 63.698C88.4434 63.9476 88.3899 64.2418 88.3631 64.4022Z" fill="#40DDB6"/>
<path d="M82.8997 54.2228C82.6768 54.2049 81.5359 54.0712 80.8941 53.7058C80.1721 53.2868 79.6372 52.8322 79.0133 52.0924C78.1664 51.0851 78.1219 51.0138 78.211 50.7553C78.2645 50.6127 78.3269 50.4433 79.7977 50.0511C81.5537 49.5876 84.3615 50.1581 86.0373 51.8962C86.1176 51.9854 86.1532 52.0924 86.1532 52.1993C86.2869 52.3509 86.2869 52.5826 86.1443 52.7341C85.5649 53.367 84.2367 54.1693 83.1938 54.2228C83.0958 54.2317 82.9977 54.2317 82.8997 54.2228ZM80.0116 50.8355C79.9046 50.8622 79.5303 50.9781 79.2272 51.0762C79.3431 51.2188 79.4857 51.3882 79.6372 51.5664C80.2077 52.2439 80.6623 52.6272 81.313 53.0016C81.6696 53.2066 82.4094 53.3581 82.9888 53.4116C83.6217 53.4829 84.7537 52.9124 85.3777 52.3598C83.9069 50.9336 81.4735 50.4522 80.0116 50.8355Z" fill="#40DDB6"/>
<path d="M85.6185 51.9674C85.5204 51.9228 85.4402 51.8337 85.4134 51.7178C84.7538 49.3913 85.6898 46.6815 86.9733 45.3979C88.043 44.3193 88.2391 44.355 88.3817 44.3817C88.6313 44.4263 88.6848 44.4798 89.1305 45.7455C89.4514 46.6637 89.5762 47.35 89.5762 48.1879C89.5762 48.9189 89.1037 49.9707 89.0146 50.1757C88.5689 51.1473 87.0179 52.0298 86.0998 52.2259C86.082 52.2348 86.0552 52.2348 86.0374 52.2348C85.8413 52.2526 85.6719 52.1367 85.6185 51.9674ZM87.5349 45.9684C86.4653 47.038 85.6541 49.3824 86.1533 51.3701C86.9466 51.1116 88.0074 50.4075 88.2659 49.837C88.5065 49.3111 88.7561 48.598 88.7561 48.1879C88.7561 47.4392 88.6491 46.8508 88.355 46.0219C88.2926 45.8436 88.2124 45.6207 88.1321 45.4157C87.9004 45.6297 87.6062 45.8971 87.5349 45.9684Z" fill="#40DDB6"/>
<path d="M94.7194 54.3121C94.5144 54.2765 94.3807 54.0893 94.3896 53.8843C94.3183 53.804 94.2826 53.6882 94.3004 53.5723C94.6213 51.1834 96.5556 49.0619 98.2403 48.3934C99.6576 47.8318 99.8092 47.9388 99.934 48.019C100.148 48.1616 100.175 48.2329 100.085 49.57C100.014 50.5416 99.8627 51.219 99.5239 51.9856C99.2387 52.6363 98.4543 53.3762 98.2136 53.5901C97.6699 54.0715 96.6804 54.3211 95.8158 54.3656C95.4058 54.3924 95.0135 54.3745 94.7194 54.3121ZM98.5434 49.1421C97.135 49.6948 95.4592 51.531 95.1294 53.5545C95.9584 53.6258 97.2063 53.4118 97.6788 52.984C98.1066 52.5918 98.6236 52.0391 98.7841 51.6558C99.0872 50.9695 99.2209 50.3901 99.2833 49.5076C99.2922 49.3204 99.31 49.0797 99.3189 48.8658C99.0069 48.9728 98.6415 49.1065 98.5434 49.1421Z" fill="#40DDB6"/>
<path d="M97.7136 38.846C97.5442 38.748 97.4818 38.543 97.562 38.3736C97.5264 38.2756 97.5264 38.1686 97.5799 38.0705C98.5782 36.1006 100.869 34.8348 102.536 34.7457C102.554 34.7457 102.572 34.7457 102.589 34.7457C103.989 34.6833 104.105 34.8259 104.185 34.9329C104.337 35.129 104.319 35.2092 103.846 36.3324C103.49 37.1613 103.151 37.7051 102.625 38.2667C102.162 38.7658 101.19 39.1848 101.003 39.265C100.789 39.3541 100.539 39.4076 100.263 39.4165C99.3626 39.4789 98.284 39.1848 97.7136 38.846ZM102.607 35.4945C101.181 35.5747 99.1933 36.6443 98.293 38.3112C98.9971 38.6321 100.156 38.8193 100.691 38.5875C101.181 38.3825 101.796 38.0438 102.055 37.7675C102.527 37.2594 102.821 36.7959 103.142 36.0382C103.231 35.8243 103.311 35.6371 103.365 35.4945C103.062 35.4855 102.705 35.4855 102.607 35.4945Z" fill="#40DDB6"/>
<path d="M97.2683 38.6145C96.4126 38.463 94.9418 37.7231 94.4872 36.8496C94.3891 36.6624 93.9167 35.7175 93.8811 35.0401C93.8454 34.2646 93.9256 33.6317 94.1841 32.767C94.5407 31.5815 94.5853 31.528 94.817 31.4745C94.9507 31.4389 95.1201 31.4032 96.163 32.3481C97.402 33.4712 98.3736 35.9403 97.8655 38.1153C97.8388 38.2223 97.7764 38.3114 97.6873 38.356C97.6427 38.5075 97.509 38.6145 97.3485 38.6234C97.3307 38.6145 97.295 38.6145 97.2683 38.6145ZM94.9061 32.9721C94.6744 33.7565 94.5942 34.3002 94.6298 34.9866C94.6477 35.361 94.9062 36.0117 95.1468 36.493C95.4142 37.01 96.4215 37.6161 97.1613 37.8212C97.5357 35.9671 96.6889 33.8367 95.6549 32.8918C95.5836 32.8294 95.3073 32.5888 95.0755 32.4105C95.022 32.5977 94.9596 32.8116 94.9061 32.9721Z" fill="#40DDB6"/>
<path d="M86.0278 26.9644C85.7693 26.8396 84.8869 26.376 84.4679 25.868C83.9777 25.2707 83.6657 24.7092 83.3626 23.8623C82.9437 22.6857 82.9526 22.6233 83.1041 22.4451C83.1933 22.3381 83.3091 22.2044 84.7086 22.3559C86.3755 22.5253 88.6218 23.9337 89.5042 25.9838C89.5488 26.0819 89.5399 26.1889 89.5042 26.2869C89.5666 26.4652 89.4953 26.6613 89.317 26.7504C88.8803 26.9733 88.1761 27.1515 87.4808 27.1961C86.946 27.205 86.42 27.1515 86.0278 26.9644ZM84.6284 23.0868C84.5303 23.0779 84.1649 23.0512 83.8707 23.0423C83.9242 23.2116 83.9955 23.4167 84.0579 23.6038C84.3342 24.3704 84.6016 24.8518 85.0384 25.3866C85.2791 25.6808 85.8674 26.0551 86.3487 26.2869C86.8747 26.5454 88.0424 26.4295 88.7555 26.1532C87.971 24.4417 86.0189 23.2295 84.6284 23.0868Z" fill="#40DDB6"/>
<path d="M89.0059 25.9662C88.9256 25.9038 88.8632 25.8147 88.8543 25.7077C88.6047 23.4882 89.8527 21.1528 91.2076 20.1811C92.3396 19.3611 92.5268 19.4235 92.6427 19.468C92.8744 19.5483 92.9012 19.6285 93.124 20.8229C93.2845 21.7054 93.2934 22.3472 93.1686 23.1138C93.0616 23.7645 92.5268 24.6024 92.3574 24.8431C91.8048 25.6631 90.2627 26.2336 89.3981 26.2782C89.193 26.2871 89.0326 26.1534 89.0059 25.9662ZM91.6443 20.7784C90.5123 21.5984 89.4159 23.613 89.5853 25.5027C90.3429 25.3868 91.4126 24.9055 91.7424 24.4152C92.0455 23.9695 92.3753 23.3545 92.4377 22.9801C92.5536 22.2937 92.5446 21.75 92.3931 20.9388C92.3485 20.716 92.3129 20.5199 92.2861 20.3594C92.0276 20.5288 91.7246 20.7249 91.6443 20.7784Z" fill="#40DDB6"/>
<path d="M92.58 70.2587C92.4018 70.1161 92.3572 69.8576 92.482 69.6615C92.4553 69.5456 92.482 69.4119 92.5533 69.3049C94.131 67.1032 97.1617 66.0157 99.1673 66.2475C100.861 66.4347 100.968 66.6308 101.048 66.7734C101.182 67.023 101.173 67.1121 100.38 68.3868C99.8002 69.3138 99.2921 69.9021 98.5523 70.4815C97.9105 70.9896 96.6626 71.3194 96.4219 71.3818C96.2971 71.4175 96.1545 71.4353 96.0119 71.4442C94.862 71.4977 93.311 70.847 92.58 70.2587ZM99.0782 67.1389C97.3846 66.9517 94.7639 67.8787 93.3823 69.7149C94.1578 70.223 95.5216 70.6687 96.208 70.4904C96.8408 70.33 97.6342 70.0448 97.9996 69.7595C98.6593 69.2425 99.096 68.7344 99.6219 67.8965C99.72 67.745 99.8626 67.4954 99.9963 67.2815C99.6309 67.2191 99.1941 67.1567 99.0782 67.1389Z" fill="#40DDB6"/>
<path d="M50.4533 98.9699C63.9844 98.9699 76.6242 93.6127 86.0372 83.8789L84.5308 82.417C75.5189 91.7409 63.4229 96.8663 50.4622 96.8663C24.3359 96.8663 3.07644 75.6069 3.07644 49.4805C3.07644 23.3542 24.318 2.09474 50.4533 2.09474C57.3169 2.09474 63.9399 3.52987 70.1261 6.35554L70.9996 4.4569C64.5371 1.49752 57.62 0 50.4533 0C23.1592 0 0.963867 22.1954 0.963867 49.4894C0.963867 76.7835 23.1592 98.9699 50.4533 98.9699Z" fill="#6B77E5"/>
<path d="M19.9146 34.8615C19.2372 34.4871 18.7023 33.9612 18.3101 33.2837C17.9179 32.6063 17.7129 31.8486 17.7129 31.0107C17.7129 30.1728 17.909 29.4151 18.3101 28.7466C18.7023 28.0781 19.2372 27.5522 19.9146 27.1778C20.592 26.8034 21.3319 26.6162 22.1341 26.6162C22.9453 26.6162 23.6851 26.8034 24.3537 27.1778C25.0311 27.5522 25.557 28.0781 25.9492 28.7466C26.3415 29.4151 26.5286 30.1728 26.5286 31.0107C26.5286 31.8486 26.3325 32.6063 25.9403 33.2837C25.5481 33.9612 25.0133 34.4782 24.3448 34.8615C23.6762 35.2359 22.9364 35.423 22.1252 35.423C21.323 35.423 20.5831 35.2359 19.9146 34.8615ZM23.7832 32.8291C24.1932 32.3745 24.3982 31.7684 24.3982 31.0196C24.3982 30.262 24.1932 29.6558 23.7832 29.2012C23.3732 28.7466 22.8205 28.5238 22.1341 28.5238C21.4389 28.5238 20.8862 28.7466 20.4762 29.2012C20.0661 29.6469 19.8611 30.262 19.8611 31.0285C19.8611 31.7862 20.0661 32.3924 20.4762 32.847C20.8862 33.3016 21.4389 33.5244 22.1341 33.5244C22.8205 33.5155 23.3732 33.2837 23.7832 32.8291Z" fill="#37393F"/>
<path d="M38.2059 35.343L36.4142 32.0984H35.9151V35.343H33.8203V26.7412H37.3323C38.0098 26.7412 38.5892 26.8571 39.0616 27.0978C39.543 27.3384 39.8995 27.6593 40.1313 28.0694C40.363 28.4794 40.4878 28.9429 40.4878 29.451C40.4878 30.0215 40.3274 30.5296 40.0065 30.9842C39.6856 31.4388 39.2042 31.7508 38.5803 31.938L40.5681 35.343H38.2059ZM35.9151 30.6098H37.2165C37.5998 30.6098 37.885 30.5117 38.0811 30.3246C38.2683 30.1374 38.3664 29.87 38.3664 29.5312C38.3664 29.2014 38.2683 28.9518 38.0811 28.7557C37.885 28.5685 37.5998 28.4705 37.2165 28.4705H35.9151V30.6098Z" fill="#37393F"/>
<path d="M53.635 29.4593C53.4835 29.1741 53.2606 28.9513 52.9665 28.7997C52.6723 28.6482 52.3336 28.5769 51.9414 28.5769C51.2639 28.5769 50.7202 28.7997 50.3102 29.2454C49.9001 29.6911 49.6951 30.2883 49.6951 31.0282C49.6951 31.8215 49.909 32.4365 50.3369 32.8822C50.7648 33.3279 51.3531 33.5508 52.1107 33.5508C52.6277 33.5508 53.0645 33.4171 53.4122 33.1586C53.7687 32.9001 54.0272 32.5257 54.1877 32.0354H51.5313V30.4933H56.0863V32.4455C55.9348 32.9714 55.6673 33.4527 55.293 33.9073C54.9186 34.353 54.4462 34.7185 53.8757 34.9948C53.3052 35.2711 52.6545 35.4138 51.9414 35.4138C51.0946 35.4138 50.3369 35.2266 49.6684 34.8522C48.9998 34.4778 48.4828 33.9608 48.1084 33.3012C47.7341 32.6416 47.5469 31.8839 47.5469 31.0371C47.5469 30.1903 47.7341 29.4326 48.1084 28.7641C48.4828 28.0955 48.9998 27.5785 49.6594 27.2041C50.3191 26.8298 51.0767 26.6426 51.9236 26.6426C52.9486 26.6426 53.8222 26.8922 54.5264 27.3913C55.2306 27.8905 55.703 28.5769 55.9258 29.4593H53.635Z" fill="#37393F"/>
<path d="M23.4178 49.8367H20.2088L19.6918 51.3521H17.499L20.6099 42.7502H23.0345L26.1454 51.3521H23.9259L23.4178 49.8367ZM22.883 48.2233L21.8133 45.0767L20.7615 48.2233H22.883Z" fill="#37393F"/>
<path d="M40.9153 51.3606H38.8205L35.3174 46.0569V51.3606H33.2227V42.7588H35.3174L38.8205 48.0892V42.7588H40.9153V51.3606Z" fill="#37393F"/>
<path d="M50.6494 42.7588V51.3606H48.5547V42.7588H50.6494Z" fill="#37393F"/>
<path d="M18.2655 60.7914C18.631 60.1229 19.148 59.6059 19.7987 59.2315C20.4494 58.8571 21.1982 58.6699 22.0361 58.6699C23.0612 58.6699 23.9347 58.9373 24.6567 59.4811C25.3877 60.0159 25.869 60.7557 26.1186 61.6828H23.8188C23.6495 61.3262 23.4088 61.0499 23.0879 60.8627C22.7759 60.6755 22.4194 60.5775 22.0183 60.5775C21.3765 60.5775 20.8505 60.8003 20.4494 61.2549C20.0483 61.7006 19.8522 62.3068 19.8522 63.0555C19.8522 63.8043 20.0483 64.4104 20.4494 64.8561C20.8505 65.3018 21.3765 65.5335 22.0183 65.5335C22.4194 65.5335 22.7759 65.4444 23.0879 65.2483C23.3999 65.0611 23.6406 64.7848 23.8188 64.4282H26.1186C25.8779 65.3553 25.3877 66.0951 24.6567 66.6299C23.9258 67.1648 23.0523 67.4322 22.0361 67.4322C21.2071 67.4322 20.4583 67.245 19.7987 66.8706C19.1391 66.4962 18.631 65.9792 18.2655 65.3196C17.9001 64.66 17.7129 63.9023 17.7129 63.0555C17.7129 62.2176 17.9001 61.4599 18.2655 60.7914Z" fill="#37393F"/>
<path d="M38.8836 65.855H35.6746L35.1576 67.3704H32.9648L36.0758 58.7686H38.5003L41.6112 67.3704H39.3917L38.8836 65.855ZM38.3399 64.2416L37.2702 61.0951L36.2184 64.2416H38.3399Z" fill="#37393F"/>
<path d="M50.7744 65.7567H53.5199V67.3701H48.6797V58.7683H50.7744V65.7567Z" fill="#37393F"/>
<path d="M19.8609 75.3045C19.9857 75.4561 20.0481 75.6343 20.0481 75.8304C20.0481 75.9998 20.0035 76.1424 19.9144 76.2761C19.8252 76.4098 19.7004 76.5168 19.54 76.5881C19.3795 76.6683 19.1834 76.704 18.9695 76.704H17.6592V73.4326H18.9071C19.13 73.4326 19.3261 73.4683 19.4865 73.5485C19.647 73.6287 19.7718 73.7268 19.852 73.8516C19.9322 73.9764 19.9768 74.119 19.9768 74.2794C19.9768 74.4666 19.9233 74.6271 19.8252 74.7519C19.7272 74.8767 19.5935 74.9747 19.4241 75.0282C19.5935 75.0549 19.7361 75.1441 19.8609 75.3045ZM18.194 74.8053H18.8625C19.0408 74.8053 19.1745 74.7697 19.2726 74.6895C19.3706 74.6092 19.4241 74.4934 19.4241 74.3418C19.4241 74.1903 19.3706 74.0833 19.2726 73.9942C19.1745 73.914 19.0319 73.8694 18.8625 73.8694H18.194V74.8053ZM19.3528 76.1335C19.4598 76.0444 19.5043 75.9196 19.5043 75.768C19.5043 75.6076 19.4509 75.4828 19.335 75.3847C19.228 75.2867 19.0765 75.2421 18.8982 75.2421H18.194V76.2672H18.916C19.1032 76.2672 19.2458 76.2226 19.3528 76.1335Z" fill="#37393F"/>
<path d="M23.6405 76.5254C23.382 76.3827 23.1859 76.1866 23.0344 75.9281C22.8828 75.6696 22.8115 75.3844 22.8115 75.0635C22.8115 74.7426 22.8828 74.4573 23.0344 74.1988C23.1859 73.9403 23.382 73.7442 23.6405 73.6016C23.899 73.459 24.1753 73.3877 24.4784 73.3877C24.7904 73.3877 25.0667 73.459 25.3252 73.6016C25.5837 73.7442 25.7798 73.9403 25.9314 74.1988C26.0829 74.4573 26.1542 74.7426 26.1542 75.0635C26.1542 75.3844 26.0829 75.6696 25.9314 75.9281C25.7798 76.1866 25.5837 76.3827 25.3252 76.5254C25.0667 76.668 24.7904 76.7393 24.4784 76.7393C24.1753 76.7393 23.8901 76.668 23.6405 76.5254ZM25.0578 76.1242C25.2272 76.0262 25.3609 75.8836 25.4589 75.6964C25.557 75.5092 25.6015 75.3042 25.6015 75.0546C25.6015 74.8139 25.557 74.6 25.4589 74.4217C25.3609 74.2434 25.2272 74.1008 25.0578 74.0027C24.8884 73.9047 24.6923 73.8601 24.4784 73.8601C24.2645 73.8601 24.0684 73.9047 23.899 74.0027C23.7296 74.1008 23.5959 74.2434 23.4979 74.4217C23.3998 74.6 23.3553 74.8139 23.3553 75.0546C23.3553 75.2952 23.3998 75.5092 23.4979 75.6964C23.5959 75.8836 23.7296 76.0173 23.899 76.1242C24.0684 76.2223 24.2645 76.2758 24.4784 76.2758C24.6923 76.2758 24.8884 76.2223 25.0578 76.1242Z" fill="#37393F"/>
<path d="M31.1452 73.4326V73.8694H30.2717V76.704H29.7368V73.8694H28.8633V73.4326H31.1452Z" fill="#37393F"/>
<path d="M36.0215 76.0356H34.6488L34.417 76.7041H33.8555L35.0321 73.4238H35.6561L36.8327 76.7041H36.2711L36.0215 76.0356ZM35.87 75.5988L35.3352 74.0745L34.8003 75.5988H35.87Z" fill="#37393F"/>
<path d="M42.3774 76.7041H41.8426L40.2292 74.2617V76.7041H39.6943V73.4238H40.2292L41.8426 75.8662V73.4238H42.3774V76.7041Z" fill="#37393F"/>
<path d="M45.9782 73.4326V76.704H45.4434V73.4326H45.9782Z" fill="#37393F"/>
<path d="M49.0804 74.1988C49.2319 73.9403 49.428 73.7442 49.6865 73.6016C49.945 73.459 50.2214 73.3877 50.5244 73.3877C50.8721 73.3877 51.184 73.4768 51.4515 73.6462C51.7189 73.8156 51.9239 74.0562 52.0398 74.3771H51.398C51.3178 74.2078 51.193 74.0741 51.0414 73.9938C50.8899 73.9047 50.7205 73.869 50.5155 73.869C50.3016 73.869 50.1055 73.9136 49.9361 74.0117C49.7668 74.1097 49.633 74.2523 49.535 74.4306C49.4369 74.6089 49.3924 74.8228 49.3924 75.0635C49.3924 75.3042 49.4369 75.5181 49.535 75.6964C49.633 75.8746 49.7668 76.0173 49.9361 76.1153C50.1055 76.2134 50.3016 76.2668 50.5155 76.2668C50.7116 76.2668 50.8899 76.2223 51.0414 76.1421C51.193 76.0529 51.3088 75.9281 51.398 75.7588H52.0398C51.915 76.0707 51.7189 76.3114 51.4515 76.4808C51.1751 76.6501 50.8721 76.7393 50.5244 76.7393C50.2124 76.7393 49.9361 76.668 49.6776 76.5254C49.4191 76.3827 49.223 76.1866 49.0715 75.9281C48.9199 75.6696 48.8486 75.3844 48.8486 75.0635C48.8486 74.7426 48.9289 74.4484 49.0804 74.1988Z" fill="#37393F"/>
<path d="M57.0137 76.0356H55.641L55.4092 76.7041H54.8477L56.0243 73.4238H56.6482L57.8249 76.7041H57.2633L57.0137 76.0356ZM56.8622 75.5988L56.3273 74.0745L55.7925 75.5988H56.8622Z" fill="#37393F"/>
<path d="M61.2126 76.2672H62.3179V76.704H60.6777V73.4326H61.2126V76.2672Z" fill="#37393F"/>
<path d="M56.0426 44.6499V45.6126H57.1747V46.0494H56.0426V47.0566H57.3173V47.4934H55.5078V44.2131H57.3173V44.6499H56.0426Z" fill="#37393F"/>
<path d="M59.875 47.4127C59.6968 47.3325 59.5631 47.2255 59.465 47.0829C59.367 46.9403 59.3135 46.7798 59.3135 46.5926H59.884C59.8929 46.7353 59.9553 46.8511 60.0533 46.9403C60.1514 47.0294 60.294 47.074 60.4723 47.074C60.6595 47.074 60.8021 47.0294 60.909 46.9403C61.016 46.8511 61.0606 46.7353 61.0606 46.5926C61.0606 46.4857 61.0249 46.3965 60.9625 46.3252C60.9001 46.2539 60.8199 46.2004 60.7219 46.1648C60.6238 46.1291 60.4901 46.0846 60.3207 46.04C60.1068 45.9865 59.9374 45.9241 59.8037 45.8706C59.67 45.8171 59.5541 45.7191 59.465 45.6032C59.367 45.4784 59.3224 45.318 59.3224 45.113C59.3224 44.9258 59.367 44.7564 59.465 44.6138C59.5631 44.4712 59.6879 44.3642 59.8572 44.2929C60.0266 44.2216 60.2227 44.177 60.4455 44.177C60.7664 44.177 61.0249 44.2572 61.2299 44.4177C61.435 44.5781 61.5419 44.7921 61.5687 45.0684H60.9714C60.9625 44.9525 60.909 44.8455 60.8021 44.7653C60.6951 44.6851 60.5614 44.6405 60.392 44.6405C60.2405 44.6405 60.1157 44.6762 60.0177 44.7564C59.9196 44.8366 59.875 44.9436 59.875 45.0951C59.875 45.1932 59.9018 45.2823 59.9642 45.3447C60.0266 45.4071 60.1068 45.4606 60.1959 45.4962C60.294 45.5319 60.4188 45.5765 60.5792 45.621C60.7932 45.6834 60.9714 45.7369 61.1052 45.7993C61.2389 45.8617 61.3547 45.9508 61.4528 46.0756C61.5508 46.2004 61.5954 46.3609 61.5954 46.5748C61.5954 46.7442 61.5508 46.8957 61.4617 47.0472C61.3726 47.1988 61.2389 47.3147 61.0695 47.4038C60.9001 47.4929 60.6951 47.5375 60.4634 47.5375C60.2494 47.5286 60.0533 47.484 59.875 47.4127Z" fill="#37393F"/>
<path d="M65.7673 44.2219V44.6587H64.8937V47.4933H64.3589V44.6587H63.4854V44.2219H65.7673Z" fill="#37393F"/>
<path d="M55.739 52.4131C56.0421 52.1546 56.2738 51.9406 56.4521 51.7713C56.6304 51.6019 56.773 51.4236 56.8889 51.2454C57.0048 51.0671 57.0671 50.8799 57.0671 50.7016C57.0671 50.5144 57.0226 50.3629 56.9334 50.2559C56.8443 50.149 56.7017 50.0955 56.5145 50.0955C56.3273 50.0955 56.1847 50.1579 56.0866 50.2738C55.9797 50.3896 55.9262 50.5501 55.9262 50.7462H55.4092C55.4181 50.3896 55.5251 50.1133 55.7301 49.9261C55.9351 49.7389 56.1936 49.6409 56.5145 49.6409C56.8532 49.6409 57.1206 49.7389 57.3167 49.9261C57.5128 50.1133 57.6109 50.3629 57.6109 50.6838C57.6109 50.9066 57.5574 51.1295 57.4415 51.3345C57.3256 51.5395 57.1919 51.7267 57.0315 51.8961C56.871 52.0654 56.6749 52.2526 56.4254 52.4665L56.2114 52.6537H57.7V53.0994H55.4092V52.7072L55.739 52.4131Z" fill="#37393F"/>
<path d="M59.8486 50.1132C60.0358 49.8101 60.3478 49.6497 60.8024 49.6497C61.257 49.6497 61.569 49.8012 61.7472 50.1132C61.9344 50.4162 62.0236 50.8441 62.0236 51.3879C62.0236 51.9405 61.9344 52.3684 61.7472 52.6803C61.56 52.9923 61.2481 53.1439 60.8024 53.1439C60.3567 53.1439 60.0358 52.9923 59.8486 52.6803C59.6614 52.3684 59.5723 51.9405 59.5723 51.3879C59.5723 50.8441 59.6614 50.4162 59.8486 50.1132ZM61.4442 50.7371C61.4085 50.5589 61.3461 50.4162 61.2481 50.3093C61.15 50.2023 60.9985 50.1399 60.8024 50.1399C60.6063 50.1399 60.4547 50.1934 60.3567 50.3093C60.2586 50.4252 60.1873 50.5678 60.1606 50.7371C60.1338 50.9065 60.1071 51.1293 60.1071 51.3789C60.1071 51.6463 60.1249 51.8603 60.1517 52.0475C60.1784 52.2347 60.2497 52.3684 60.3478 52.4842C60.4458 52.5912 60.5974 52.6536 60.7935 52.6536C60.9896 52.6536 61.1411 52.6001 61.2391 52.4842C61.3372 52.3773 61.4085 52.2257 61.4352 52.0475C61.462 51.8692 61.4798 51.6463 61.4798 51.3789C61.4887 51.1293 61.4709 50.9154 61.4442 50.7371Z" fill="#37393F"/>
<path d="M64.2966 52.4131C64.5997 52.1546 64.8314 51.9406 65.0097 51.7713C65.188 51.6019 65.3306 51.4236 65.4465 51.2454C65.5624 51.0671 65.6248 50.8799 65.6248 50.7016C65.6248 50.5144 65.5802 50.3629 65.4911 50.2559C65.4019 50.149 65.2593 50.0955 65.0721 50.0955C64.8849 50.0955 64.7423 50.1579 64.6442 50.2738C64.5373 50.3896 64.4838 50.5501 64.4838 50.7462H63.9668C63.9757 50.3896 64.0827 50.1133 64.2877 49.9261C64.4927 49.7389 64.7512 49.6409 65.0721 49.6409C65.4108 49.6409 65.6782 49.7389 65.8743 49.9261C66.0705 50.1133 66.1685 50.3629 66.1685 50.6838C66.1685 50.9066 66.115 51.1295 65.9991 51.3345C65.8833 51.5395 65.7496 51.7267 65.5891 51.8961C65.4287 52.0654 65.2326 52.2526 64.983 52.4665L64.769 52.6537H66.2576V53.0994H63.9668V52.7072L64.2966 52.4131Z" fill="#37393F"/>
<path d="M68.415 50.1132C68.6022 49.8101 68.9142 49.6497 69.3688 49.6497C69.8234 49.6497 70.1354 49.8012 70.3136 50.1132C70.5008 50.4162 70.59 50.8441 70.59 51.3879C70.59 51.9405 70.5008 52.3684 70.3136 52.6803C70.1265 52.9923 69.8145 53.1439 69.3688 53.1439C68.9231 53.1439 68.6022 52.9923 68.415 52.6803C68.2278 52.3684 68.1387 51.9405 68.1387 51.3879C68.1387 50.8441 68.2278 50.4162 68.415 50.1132ZM70.0106 50.7371C69.9749 50.5589 69.9125 50.4162 69.8145 50.3093C69.7164 50.2023 69.5649 50.1399 69.3688 50.1399C69.1727 50.1399 69.0211 50.1934 68.9231 50.3093C68.825 50.4252 68.7537 50.5678 68.727 50.7371C68.7002 50.9065 68.6735 51.1293 68.6735 51.3789C68.6735 51.6463 68.6913 51.8603 68.7181 52.0475C68.7448 52.2347 68.8161 52.3684 68.9142 52.4842C69.0122 52.5912 69.1638 52.6536 69.3599 52.6536C69.556 52.6536 69.7075 52.6001 69.8056 52.4842C69.9036 52.3773 69.9749 52.2257 70.0017 52.0475C70.0284 51.8692 70.0462 51.6463 70.0462 51.3789C70.0551 51.1293 70.0373 50.9154 70.0106 50.7371Z" fill="#37393F"/>
</svg>
