<svg width="42" height="41" viewBox="0 0 42 41" fill="none" xmlns="http://www.w3.org/2000/svg">
<path d="M27.4109 39.8798H12.3425C9.59884 39.8798 7.375 37.6556 7.375 34.9123V10.3889" stroke="#40DDB6" stroke-width="2" stroke-miterlimit="10"/>
<path d="M4.02637 1H29.4974C32.1678 1 34.3326 3.16482 34.3326 5.83527V16.7142" stroke="#40DDB6" stroke-width="2" stroke-miterlimit="10"/>
<path d="M7.35844 9.54419H1V4.17943C1 2.42354 2.42354 1 4.17943 1C5.93531 1 7.35885 2.42354 7.35885 4.17943V9.54419H7.35844Z" stroke="#40DDB6" stroke-width="2" stroke-miterlimit="10"/>
<path d="M40.1167 25.6534L38.6882 27.7935L38.1846 30.3175L35.6611 30.8206L33.521 32.2491L31.3809 30.8206L28.8569 30.3175L28.3538 27.7935L26.9248 25.6534L28.3538 23.5133L28.8569 20.9893L31.3809 20.4862L33.521 19.0576L35.6611 20.4862L38.1846 20.9893L38.6882 23.5133L40.1167 25.6534Z" stroke="#40DDB6" stroke-width="2" stroke-miterlimit="10"/>
<path d="M37.1639 30.1741V38.9501L33.5211 36.5095L29.8779 38.9501V30.1741" stroke="#40DDB6" stroke-width="2" stroke-miterlimit="10"/>
<path d="M13.999 8.33521H25.9876" stroke="#40DDB6" stroke-width="2" stroke-miterlimit="10"/>
<path d="M13.999 14.4954H25.9876" stroke="#40DDB6" stroke-width="2" stroke-miterlimit="10"/>
<path d="M13.999 20.5889H25.9876" stroke="#40DDB6" stroke-width="2" stroke-miterlimit="10"/>
<path d="M13.999 26.55H21.9472" stroke="#40DDB6" stroke-width="2" stroke-miterlimit="10"/>
<path d="M13.999 32.6436H21.9472" stroke="#40DDB6" stroke-width="2" stroke-miterlimit="10"/>
</svg>
