<svg width="68" height="68" viewBox="0 0 68 68" fill="none" xmlns="http://www.w3.org/2000/svg">
<circle cx="34.0059" cy="34" r="34" fill="#4C4D52"/>
<path d="M34.0059 20C28.485 20 24.0059 24.4274 24.0059 29.8803C24.0059 36.1546 30.6725 46.0977 33.1204 49.532C33.2221 49.677 33.3552 49.7949 33.5091 49.8763C33.663 49.9576 33.8332 50 34.0059 50C34.1785 50 34.3487 49.9576 34.5026 49.8763C34.6565 49.7949 34.7897 49.677 34.8913 49.532C37.3392 46.0991 44.0059 36.1597 44.0059 29.8803C44.0059 24.4274 39.5267 20 34.0059 20Z" stroke="#40DDB6" stroke-width="2" stroke-linecap="round" stroke-linejoin="round"/>
<path d="M34.0059 35C36.215 35 38.0059 33.2091 38.0059 31C38.0059 28.7909 36.215 27 34.0059 27C31.7967 27 30.0059 28.7909 30.0059 31C30.0059 33.2091 31.7967 35 34.0059 35Z" stroke="#40DDB6" stroke-width="2" stroke-linecap="round" stroke-linejoin="round"/>
</svg>
