<svg width="14" height="15" viewBox="0 0 14 15" fill="none" xmlns="http://www.w3.org/2000/svg">
<path d="M9.57916 1.51812C8.92427 0.86156 8.00959 0.5 7 0.5C5.98503 0.5 5.06731 0.859373 4.41546 1.51187C3.75653 2.17155 3.43548 3.06811 3.51087 4.03623C3.66028 5.94622 5.22548 7.49996 7 7.49996C8.77452 7.49996 10.337 5.94653 10.4888 4.03685C10.5652 3.07748 10.2421 2.1828 9.57916 1.51812ZM12.9229 14.4999H1.07709C0.922035 14.5018 0.768484 14.4715 0.627605 14.4114C0.486727 14.3512 0.362063 14.2626 0.262685 14.1521C0.0439413 13.9093 -0.0442294 13.5777 0.0210573 13.2424C0.305088 11.7793 1.19151 10.5503 2.58474 9.68745C3.82249 8.92151 5.39038 8.49995 7 8.49995C8.60962 8.49995 10.1775 8.92183 11.4153 9.68745C12.8085 10.5499 13.6949 11.779 13.9789 13.2421C14.0442 13.5774 13.9561 13.909 13.7373 14.1518C13.638 14.2624 13.5133 14.351 13.3724 14.4112C13.2316 14.4715 13.078 14.5018 12.9229 14.4999Z" fill="#207F68"/>
</svg>
