<svg width="72" height="72" viewBox="0 0 72 72" fill="none" xmlns="http://www.w3.org/2000/svg">
<circle cx="36" cy="36" r="36" fill="#40DDB6"/>
<path d="M41.4997 52.12H28.6597C26.3197 52.12 24.4297 50.23 24.4297 47.89V27" stroke="white" stroke-width="2" stroke-miterlimit="10"/>
<path d="M21.5801 19H43.2801C45.5501 19 47.4001 20.84 47.4001 23.12V32.39" stroke="white" stroke-width="2" stroke-miterlimit="10"/>
<path d="M24.42 26.28H19V21.71C19 20.21 20.21 19 21.71 19C23.21 19 24.42 20.21 24.42 21.71V26.28Z" stroke="white" stroke-width="2" stroke-miterlimit="10"/>
<path d="M52.3201 39.9999L51.1001 41.8199L50.6701 43.9699L48.5201 44.3999L46.7001 45.6199L44.8801 44.3999L42.7301 43.9699L42.3001 41.8199L41.0801 39.9999L42.3001 38.1799L42.7301 36.0299L44.8801 35.5999L46.7001 34.3799L48.5201 35.5999L50.6701 36.0299L51.1001 38.1799L52.3201 39.9999Z" stroke="white" stroke-width="2" stroke-miterlimit="10"/>
<path d="M49.8104 43.8501V51.3301L46.7104 49.2501L43.6104 51.3301V43.8501" stroke="white" stroke-width="2" stroke-miterlimit="10"/>
<path d="M30.0703 25.25H40.2803" stroke="white" stroke-width="2" stroke-miterlimit="10"/>
<path d="M30.0703 30.5H40.2803" stroke="white" stroke-width="2" stroke-miterlimit="10"/>
<path d="M30.0703 35.6899H40.2803" stroke="white" stroke-width="2" stroke-miterlimit="10"/>
<path d="M30.0703 40.77H36.8403" stroke="white" stroke-width="2" stroke-miterlimit="10"/>
<path d="M30.0703 45.96H36.8403" stroke="white" stroke-width="2" stroke-miterlimit="10"/>
</svg>
