<svg width="73" height="72" viewBox="0 0 73 72" fill="none" xmlns="http://www.w3.org/2000/svg">
<circle cx="36.5" cy="36" r="36" fill="#6B77E5"/>
<path d="M53 52.5H20" stroke="white" stroke-width="2" stroke-linecap="round" stroke-linejoin="round"/>
<path d="M39.5 27V45C39.5 45.8284 40.1716 46.5 41 46.5H48.5C49.3284 46.5 50 45.8284 50 45V27C50 26.1716 49.3284 25.5 48.5 25.5H41C40.1716 25.5 39.5 26.1716 39.5 27Z" stroke="white" stroke-width="2" stroke-linecap="round" stroke-linejoin="round"/>
<path d="M32 18H24.5C23.6716 18 23 18.6716 23 19.5V45C23 45.8284 23.6716 46.5 24.5 46.5H32C32.8284 46.5 33.5 45.8284 33.5 45V19.5C33.5 18.6716 32.8284 18 32 18Z" stroke="white" stroke-width="2" stroke-linecap="round" stroke-linejoin="round"/>
</svg>
