<svg width="68" height="68" viewBox="0 0 68 68" fill="none" xmlns="http://www.w3.org/2000/svg">
<circle cx="34.0059" cy="34" r="34" fill="#4C4D52"/>
<path d="M48.1943 41.3734C47.2018 40.3734 44.798 38.9141 43.6317 38.326C42.1129 37.5611 41.9879 37.4986 40.7942 38.3854C39.9979 38.9772 39.4685 39.506 38.5366 39.3072C37.6047 39.1085 35.5796 37.9879 33.8065 36.2205C32.0333 34.4531 30.8477 32.3694 30.6483 31.4407C30.4489 30.512 30.9864 29.9889 31.5727 29.1908C32.3989 28.0658 32.3364 27.8783 31.6302 26.3597C31.0795 25.1785 29.5776 22.7973 28.5739 21.8099C27.5001 20.7493 27.5001 20.9368 26.8082 21.2243C26.2449 21.4612 25.7045 21.7493 25.1938 22.0848C24.1937 22.7492 23.6387 23.301 23.2506 24.1304C22.8625 24.9597 22.6881 26.904 24.6925 30.5451C26.6969 34.1862 28.1032 36.048 31.0139 38.9504C33.9246 41.8527 36.1628 43.4133 39.4347 45.2482C43.4823 47.515 45.0349 47.0731 45.8668 46.6857C46.6987 46.2982 47.2531 45.7482 47.9187 44.7482C48.2551 44.2384 48.5439 43.6986 48.7812 43.1358C49.0694 42.4465 49.2569 42.4465 48.1943 41.3734Z" stroke="#40DDB6" stroke-width="2" stroke-miterlimit="10"/>
</svg>
