<svg width="122" height="27" viewBox="0 0 122 27" fill="none" xmlns="http://www.w3.org/2000/svg">
<path d="M9.19467 3.92789C9.46221 3.10449 10.6271 3.10449 10.8946 3.92789L12.6532 9.34008C12.7728 9.70832 13.116 9.95763 13.5032 9.95763H19.1939C20.0597 9.95763 20.4196 11.0655 19.7192 11.5744L15.1153 14.9193C14.8021 15.1469 14.671 15.5503 14.7906 15.9185L16.5492 21.3307C16.8167 22.1541 15.8743 22.8388 15.1739 22.33L10.57 18.985C10.2567 18.7575 9.83258 18.7575 9.51934 18.985L4.91545 22.33C4.21502 22.8388 3.27261 22.1541 3.54015 21.3307L5.29867 15.9185C5.41832 15.5503 5.28725 15.1469 4.97401 14.9193L0.370122 11.5744C-0.330307 11.0655 0.0296666 9.95763 0.895444 9.95763H6.58616C6.97334 9.95763 7.3165 9.70832 7.43614 9.34008L9.19467 3.92789Z" fill="#FFA722"/>
<path d="M58.7934 4.03393C59.0551 3.19857 60.2373 3.19857 60.4991 4.03393L62.1587 9.33113C62.2755 9.70392 62.6209 9.95765 63.0116 9.95765H68.4497C69.3076 9.95765 69.6727 11.0489 68.9875 11.5652L64.5327 14.9216C64.2308 15.1491 64.1047 15.5419 64.2177 15.9026L65.906 21.291C66.1657 22.1202 65.2093 22.7949 64.5153 22.272L60.184 19.0086C59.8656 18.7687 59.4268 18.7687 59.1084 19.0086L54.7771 22.272C54.0831 22.7949 53.1267 22.1202 53.3864 21.291L55.0747 15.9026C55.1877 15.5419 55.0616 15.1491 54.7597 14.9216L50.3049 11.5652C49.6197 11.0489 49.9848 9.95765 50.8427 9.95765H56.2808C56.6715 9.95765 57.0169 9.70392 57.1337 9.33113L58.7934 4.03393Z" fill="#FFA722"/>
<path d="M107.591 9.6491L109.249 4.54797L110.906 9.6491C111.16 10.4294 111.887 10.9576 112.707 10.9576H118.071L113.732 14.1103C113.068 14.5925 112.79 15.4473 113.044 16.2276L114.701 21.3287L110.362 18.176C109.698 17.6938 108.799 17.6938 108.136 18.176L103.796 21.3287L105.454 16.2276C105.707 15.4473 105.43 14.5925 104.766 14.1103L100.427 10.9576H105.79C106.611 10.9576 107.338 10.4294 107.591 9.6491Z" stroke="#FFA722" stroke-width="2"/>
<path d="M34.2191 3.92789C34.4866 3.10449 35.6515 3.10449 35.9191 3.92789L37.6776 9.34008C37.7972 9.70832 38.1404 9.95763 38.5276 9.95763H44.2183C45.0841 9.95763 45.444 11.0655 44.7436 11.5744L40.1397 14.9193C39.8265 15.1469 39.6954 15.5503 39.8151 15.9185L41.5736 21.3307C41.8411 22.1541 40.8987 22.8388 40.1983 22.33L35.5944 18.985C35.2812 18.7575 34.857 18.7575 34.5438 18.985L29.9399 22.33C29.2394 22.8388 28.297 22.1541 28.5646 21.3307L30.3231 15.9185C30.4427 15.5503 30.3117 15.1469 29.9984 14.9193L25.3945 11.5744C24.6941 11.0655 25.0541 9.95763 25.9199 9.95763H31.6106C31.9978 9.95763 32.3409 9.70832 32.4606 9.34008L34.2191 3.92789Z" fill="#FFA722"/>
<path d="M83.3744 3.92789C83.6419 3.10449 84.8068 3.10449 85.0743 3.92789L86.8329 9.34008C86.9525 9.70832 87.2957 9.95763 87.6828 9.95763H93.3736C94.2393 9.95763 94.5993 11.0655 93.8989 11.5744L89.295 14.9193C88.9818 15.1469 88.8507 15.5503 88.9703 15.9185L90.7289 21.3307C90.9964 22.1541 90.054 22.8388 89.3535 22.33L84.7497 18.985C84.4364 18.7575 84.0123 18.7575 83.699 18.985L79.0951 22.33C78.3947 22.8388 77.4523 22.1541 77.7198 21.3307L79.4784 15.9185C79.598 15.5503 79.4669 15.1469 79.1537 14.9193L74.5498 11.5744C73.8494 11.0655 74.2094 9.95763 75.0751 9.95763H80.7658C81.153 9.95763 81.4962 9.70832 81.6158 9.34008L83.3744 3.92789Z" fill="#FFA722"/>
<mask id="mask0_1_3683" style="mask-type:alpha" maskUnits="userSpaceOnUse" x="99" y="3" width="21" height="20">
<path d="M108.289 3.90599C108.588 2.98468 109.892 2.98468 110.191 3.90599L111.826 8.9398C111.96 9.35182 112.344 9.63078 112.778 9.63078H118.07C119.039 9.63078 119.442 10.8704 118.658 11.4398L114.376 14.5509C114.026 14.8055 113.879 15.2569 114.013 15.6689L115.648 20.7027C115.948 21.624 114.893 22.3901 114.11 21.8207L109.828 18.7097C109.477 18.455 109.003 18.455 108.652 18.7097L104.37 21.8207C103.586 22.3901 102.532 21.624 102.831 20.7027L104.467 15.6689C104.601 15.2569 104.454 14.8055 104.103 14.5509L99.8215 11.4398C99.0378 10.8704 99.4405 9.63078 100.409 9.63078H105.702C106.135 9.63078 106.519 9.35182 106.653 8.9398L108.289 3.90599Z" fill="#FFA722"/>
</mask>
<g mask="url(#mask0_1_3683)">
<rect x="99.1738" y="1.47009" width="9.82044" height="22.587" rx="1" fill="#FFA722"/>
</g>
</svg>
