<svg width="146" height="22" viewBox="0 0 146 22" fill="none" xmlns="http://www.w3.org/2000/svg">
<path d="M9.5 6.40552C9.08579 6.40552 8.75 6.7413 8.75 7.15552C8.75 7.56973 9.08579 7.90552 9.5 7.90552V6.40552ZM17.5 7.90552C17.9142 7.90552 18.25 7.56973 18.25 7.15552C18.25 6.7413 17.9142 6.40552 17.5 6.40552V7.90552ZM9.5 10.4055C9.08579 10.4055 8.75 10.7413 8.75 11.1555C8.75 11.5697 9.08579 11.9055 9.5 11.9055V10.4055ZM13.5 11.9055C13.9142 11.9055 14.25 11.5697 14.25 11.1555C14.25 10.7413 13.9142 10.4055 13.5 10.4055V11.9055ZM23.282 15.0635L23.9503 15.404V15.404L23.282 15.0635ZM22.408 15.9375L22.7485 16.6058L22.408 15.9375ZM22.408 2.3735L22.7485 1.70525L22.7485 1.70525L22.408 2.3735ZM23.282 3.24754L23.9503 2.90704V2.90704L23.282 3.24754ZM4.59202 2.3735L4.93251 3.04176L4.93251 3.04176L4.59202 2.3735ZM3.71799 3.24754L4.38624 3.58803L4.38624 3.58803L3.71799 3.24754ZM4.70734 19.5416L5.14003 20.1542L5.14011 20.1542L4.70734 19.5416ZM8.66989 16.742L8.23712 16.1295H8.23712L8.66989 16.742ZM3.59027 19.6331L4.20486 19.2032H4.20486L3.59027 19.6331ZM4.60335 19.6038L4.2683 18.9328L4.26829 18.9328L4.60335 19.6038ZM3.92692 19.8411L3.8173 20.5831H3.8173L3.92692 19.8411ZM4.66983 19.5675L4.26547 18.9358L4.26536 18.9359L4.66983 19.5675ZM4.64376 19.5831L4.2785 18.928L4.27845 18.9281L4.64376 19.5831ZM9.76828 16.1895L9.90589 16.9267L9.90589 16.9267L9.76828 16.1895ZM9.30048 16.3381L9.61351 17.0196L9.61352 17.0196L9.30048 16.3381ZM9.5 7.90552H17.5V6.40552H9.5V7.90552ZM9.5 11.9055H13.5V10.4055H9.5V11.9055ZM6.7 2.90552H20.3V1.40552H6.7V2.90552ZM22.75 5.35552V12.9555H24.25V5.35552H22.75ZM22.75 12.9555C22.75 13.5279 22.7494 13.9122 22.7252 14.208C22.7018 14.4952 22.6599 14.6324 22.6138 14.723L23.9503 15.404C24.1221 15.0667 24.1892 14.7101 24.2203 14.3302C24.2506 13.9591 24.25 13.5032 24.25 12.9555H22.75ZM20.3 16.9055C20.8477 16.9055 21.3035 16.9061 21.6747 16.8758C22.0546 16.8447 22.4112 16.7776 22.7485 16.6058L22.0675 15.2693C21.9769 15.3154 21.8396 15.3573 21.5525 15.3808C21.2566 15.4049 20.8724 15.4055 20.3 15.4055V16.9055ZM22.6138 14.723C22.4939 14.9582 22.3027 15.1494 22.0675 15.2693L22.7485 16.6058C23.2659 16.3421 23.6866 15.9214 23.9503 15.404L22.6138 14.723ZM20.3 2.90552C20.8724 2.90552 21.2566 2.9061 21.5525 2.93028C21.8396 2.95373 21.9769 2.99562 22.0675 3.04176L22.7485 1.70525C22.4112 1.53341 22.0546 1.46629 21.6747 1.43526C21.3035 1.40493 20.8477 1.40552 20.3 1.40552V2.90552ZM24.25 5.35552C24.25 4.80784 24.2506 4.35198 24.2203 3.98085C24.1892 3.60096 24.1221 3.24431 23.9503 2.90704L22.6138 3.58803C22.6599 3.67859 22.7018 3.81587 22.7252 4.103C22.7494 4.39887 22.75 4.78309 22.75 5.35552H24.25ZM22.0675 3.04176C22.3027 3.1616 22.4939 3.35283 22.6138 3.58803L23.9503 2.90704C23.6866 2.3896 23.2659 1.9689 22.7485 1.70525L22.0675 3.04176ZM6.7 1.40552C6.15232 1.40552 5.69646 1.40493 5.32533 1.43526C4.94544 1.46629 4.58879 1.53341 4.25153 1.70525L4.93251 3.04176C5.02307 2.99562 5.16035 2.95373 5.44748 2.93028C5.74336 2.9061 6.12757 2.90552 6.7 2.90552V1.40552ZM4.25 5.35552C4.25 4.78309 4.25058 4.39887 4.27476 4.103C4.29822 3.81587 4.3401 3.67859 4.38624 3.58803L3.04973 2.90704C2.87789 3.24431 2.81078 3.60096 2.77974 3.98085C2.74942 4.35198 2.75 4.80784 2.75 5.35552H4.25ZM4.25153 1.70525C3.73408 1.9689 3.31338 2.3896 3.04973 2.90704L4.38624 3.58803C4.50608 3.35283 4.69731 3.1616 4.93251 3.04176L4.25153 1.70525ZM20.3 15.4055H10.5164V16.9055H20.3V15.4055ZM5.14011 20.1542L9.10267 17.3545L8.23712 16.1295L4.27457 18.9291L5.14011 20.1542ZM2.75 18.8611C2.75 19.0608 2.74925 19.2622 2.76441 19.4278C2.77946 19.5923 2.81739 19.8366 2.97568 20.0629L4.20486 19.2032C4.27289 19.3005 4.26568 19.3731 4.25816 19.291C4.25499 19.2564 4.25258 19.2065 4.2513 19.1315C4.25002 19.0569 4.25 18.9701 4.25 18.8611H2.75ZM4.26829 18.9328C4.18118 18.9763 4.11175 19.0107 4.0523 19.0387C3.99244 19.0669 3.9529 19.0838 3.92597 19.0939C3.86294 19.1177 3.92374 19.0825 4.03654 19.0992L3.8173 20.5831C4.07835 20.6216 4.30366 20.5546 4.45491 20.4976C4.6054 20.4409 4.77432 20.3568 4.93841 20.2748L4.26829 18.9328ZM2.97568 20.0629C3.17274 20.3447 3.47716 20.5328 3.8173 20.5831L4.03654 19.0992C4.10457 19.1092 4.16545 19.1469 4.20486 19.2032L2.97568 20.0629ZM4.25 18.8611V5.35552H2.75V18.8611H4.25ZM4.27465 18.929C4.26983 18.9324 4.26637 18.9349 4.26338 18.937C4.26043 18.939 4.25887 18.9401 4.25804 18.9407C4.25672 18.9416 4.26002 18.9393 4.26547 18.9358L5.0742 20.1991C5.10147 20.1817 5.12688 20.1635 5.14003 20.1542L4.27465 18.929ZM4.9384 20.2748C4.95307 20.2675 4.9808 20.2539 5.00907 20.2381L4.27845 18.9281C4.28396 18.925 4.28751 18.9232 4.28623 18.9238C4.28538 18.9243 4.28372 18.9251 4.28053 18.9267C4.27732 18.9283 4.27354 18.9302 4.2683 18.9328L4.9384 20.2748ZM4.26536 18.9359C4.26971 18.9331 4.27403 18.9305 4.2785 18.928L5.00902 20.2381C5.03112 20.2258 5.05295 20.2127 5.0743 20.1991L4.26536 18.9359ZM10.5164 15.4055C10.166 15.4055 9.8965 15.4026 9.63067 15.4522L9.90589 16.9267C10.0039 16.9084 10.1118 16.9055 10.5164 16.9055V15.4055ZM9.10266 17.3545C9.4331 17.1211 9.52294 17.0612 9.61351 17.0196L8.98745 15.6565C8.7417 15.7694 8.52325 15.9273 8.23712 16.1295L9.10266 17.3545ZM9.63067 15.4522C9.40869 15.4936 9.19265 15.5623 8.98745 15.6565L9.61352 17.0196C9.70679 16.9768 9.80499 16.9456 9.90589 16.9267L9.63067 15.4522Z" fill="#807D7E"/>
<path d="M43.09 6.3V18H41.398V7.848H38.77V6.3H43.09ZM44.9655 16.596L47.5395 14.328C49.0515 13.032 51.2655 11.178 51.2655 9.612C51.2655 8.478 50.4375 7.74 48.9435 7.74C47.6655 7.74 46.6755 8.496 46.4235 9.324L44.8935 8.64C45.2535 7.488 46.7115 6.138 48.9435 6.138C51.4275 6.138 53.0115 7.434 53.0115 9.522C53.0115 11.754 50.6355 13.734 49.4655 14.778L47.5755 16.452H52.9935V18H44.9655V16.596ZM59.3202 18.144C56.3142 18.144 54.4602 15.624 54.4602 12.15C54.4602 8.676 56.3142 6.156 59.3202 6.156C62.3082 6.156 64.1982 8.676 64.1982 12.15C64.1982 15.624 62.3082 18.144 59.3202 18.144ZM59.3202 16.506C61.1922 16.506 62.4702 14.85 62.4702 12.15C62.4702 9.45 61.1922 7.83 59.3202 7.83C57.4482 7.83 56.1522 9.45 56.1522 12.15C56.1522 14.85 57.4482 16.506 59.3202 16.506ZM75.7372 12.15C75.3412 11.592 74.6392 11.124 73.5772 11.124C71.9932 11.124 70.9132 12.258 70.9132 13.86C70.9132 15.444 71.9932 16.614 73.5772 16.614C74.6392 16.614 75.3232 16.164 75.7372 15.606L76.9072 16.47C76.1872 17.514 74.9992 18.162 73.5412 18.162C71.0572 18.162 69.3292 16.344 69.3292 13.86C69.3292 11.358 71.0572 9.576 73.5412 9.576C74.9992 9.576 76.1872 10.224 76.9072 11.25L75.7372 12.15ZM82.419 18.162C79.917 18.162 78.171 16.326 78.171 13.86C78.171 11.358 79.917 9.558 82.419 9.558C84.903 9.558 86.631 11.358 86.631 13.86C86.631 16.326 84.903 18.162 82.419 18.162ZM82.419 16.614C83.985 16.614 85.029 15.426 85.029 13.86C85.029 12.276 83.985 11.124 82.419 11.124C80.835 11.124 79.791 12.276 79.791 13.86C79.791 15.426 80.835 16.614 82.419 16.614ZM97.9813 9.594C99.4933 9.594 101.059 10.422 101.059 12.906V18H99.4393V13.122C99.4393 11.538 98.3953 11.016 97.5133 11.016C96.6133 11.016 95.6053 11.538 95.6053 13.122V18H93.9853V13.122C93.9853 11.538 92.9413 11.016 92.0413 11.016C91.1593 11.016 90.1333 11.538 90.1333 13.122V18H88.5133V9.72H90.1333V10.71C90.7273 9.936 91.6273 9.594 92.5093 9.594C93.5533 9.594 94.6333 9.99 95.1913 11.052C95.8213 9.972 96.9553 9.594 97.9813 9.594ZM112.694 9.594C114.206 9.594 115.772 10.422 115.772 12.906V18H114.152V13.122C114.152 11.538 113.108 11.016 112.226 11.016C111.326 11.016 110.318 11.538 110.318 13.122V18H108.698V13.122C108.698 11.538 107.654 11.016 106.754 11.016C105.872 11.016 104.846 11.538 104.846 13.122V18H103.226V9.72H104.846V10.71C105.44 9.936 106.34 9.594 107.222 9.594C108.266 9.594 109.346 9.99 109.904 11.052C110.534 9.972 111.668 9.594 112.694 9.594ZM121.773 9.576C124.185 9.576 125.751 11.394 125.751 13.86V14.328H119.235C119.397 15.804 120.441 16.758 121.881 16.758C123.069 16.758 123.825 16.218 124.221 15.642L125.355 16.452C124.635 17.496 123.393 18.162 121.881 18.162C119.361 18.162 117.669 16.326 117.669 13.86C117.669 11.394 119.289 9.576 121.773 9.576ZM121.773 10.872C120.351 10.872 119.433 11.826 119.235 13.266H124.239C124.041 11.88 123.159 10.872 121.773 10.872ZM131.818 9.594C133.42 9.594 135.094 10.512 135.094 12.906V18H133.474V13.14C133.474 11.61 132.394 10.98 131.35 10.98C130.324 10.98 129.262 11.61 129.262 13.14V18H127.642V9.72H129.262V10.728C129.892 9.918 130.864 9.594 131.818 9.594ZM141.31 10.962H139.384V15.642C139.384 16.542 139.96 16.704 140.536 16.704H141.22V18H139.906C138.52 18 137.764 17.226 137.764 15.876V10.962H136.63V9.72H137.764V7.182H139.384V9.72H141.31V10.962Z" fill="#807D7E"/>
</svg>
