<svg width="51" height="50" viewBox="0 0 51 50" fill="none" xmlns="http://www.w3.org/2000/svg">
<rect x="0.5" width="50" height="50" rx="25" fill="#40DDB6"/>
<path fill-rule="evenodd" clip-rule="evenodd" d="M37.4154 25.0689C37.4154 18.7323 32.0799 13.5945 25.4997 13.5945C18.9195 13.5945 13.584 18.7323 13.584 25.0689C13.584 30.7958 17.9407 35.5428 23.6379 36.4044V28.3867H20.6116V25.0689H23.6379V22.5409C23.6379 19.6657 25.4172 18.0762 28.1387 18.0762C29.4425 18.0762 30.8064 18.3005 30.8064 18.3005V21.1245H29.3031C27.8238 21.1245 27.361 22.0087 27.361 22.9174V25.0689H30.6655L30.1378 28.3867H27.3615V36.4055C33.0587 35.5444 37.4154 30.7973 37.4154 25.0689Z" fill="white"/>
</svg>
