<svg width="46" height="46" viewBox="0 0 46 46" fill="none" xmlns="http://www.w3.org/2000/svg">
<rect x="0.5" y="0.5" width="45" height="45" rx="22.5" fill="#40DDB6"/>
<path d="M27.9649 13.4379C29.2805 13.4416 30.5412 13.9466 31.4715 14.8425C32.4018 15.7383 32.9262 16.9523 32.9301 18.2192V27.7808C32.9262 29.0478 32.4018 30.2617 31.4715 31.1576C30.5412 32.0534 29.2805 32.5584 27.9649 32.5622H18.0355C16.7198 32.5584 15.4592 32.0534 14.5289 31.1576C13.5986 30.2617 13.0742 29.0478 13.0702 27.7808V18.2192C13.0742 16.9523 13.5986 15.7383 14.5289 14.8425C15.4592 13.9466 16.7198 13.4416 18.0355 13.4379H27.9649ZM27.9649 11.5256H18.0355C14.2123 11.5256 11.0845 14.5377 11.0845 18.2192V27.7808C11.0845 31.4624 14.2123 34.4744 18.0355 34.4744H27.9649C31.788 34.4744 34.9159 31.4624 34.9159 27.7808V18.2192C34.9159 14.5377 31.788 11.5256 27.9649 11.5256Z" fill="white"/>
<path d="M29.454 18.2192C29.1594 18.2192 28.8714 18.1351 28.6265 17.9775C28.3816 17.8199 28.1907 17.5958 28.0779 17.3338C27.9652 17.0717 27.9357 16.7833 27.9932 16.5051C28.0506 16.2268 28.1925 15.9713 28.4008 15.7707C28.6091 15.5701 28.8745 15.4335 29.1634 15.3781C29.4524 15.3228 29.7518 15.3512 30.024 15.4598C30.2962 15.5683 30.5288 15.7522 30.6924 15.988C30.8561 16.2239 30.9435 16.5012 30.9435 16.7849C30.9439 16.9734 30.9056 17.16 30.8309 17.3342C30.7562 17.5084 30.6465 17.6667 30.5082 17.8C30.3698 17.9333 30.2054 18.0389 30.0245 18.1108C29.8436 18.1828 29.6497 18.2196 29.454 18.2192ZM22.9998 19.175C23.7854 19.175 24.5534 19.3994 25.2066 19.8197C25.8598 20.24 26.3689 20.8373 26.6696 21.5363C26.9702 22.2352 27.0489 23.0042 26.8956 23.7462C26.7423 24.4882 26.364 25.1697 25.8085 25.7047C25.253 26.2396 24.5453 26.6039 23.7748 26.7515C23.0043 26.8991 22.2056 26.8233 21.4798 26.5338C20.754 26.2443 20.1336 25.7541 19.6972 25.125C19.2607 24.496 19.0278 23.7565 19.0278 23C19.0289 21.9859 19.4477 21.0136 20.1924 20.2965C20.9371 19.5795 21.9467 19.1761 22.9998 19.175ZM22.9998 17.2628C21.8215 17.2628 20.6696 17.5993 19.6898 18.2297C18.7101 18.8601 17.9464 19.7561 17.4955 20.8045C17.0446 21.8528 16.9266 23.0064 17.1565 24.1193C17.3864 25.2322 17.9538 26.2544 18.787 27.0568C19.6202 27.8592 20.6818 28.4056 21.8375 28.627C22.9932 28.8483 24.1912 28.7347 25.2798 28.3005C26.3685 27.8662 27.299 27.1309 27.9536 26.1874C28.6083 25.2439 28.9577 24.1347 28.9577 23C28.9577 21.4784 28.33 20.0191 27.2127 18.9432C26.0954 17.8673 24.58 17.2628 22.9998 17.2628Z" fill="white"/>
</svg>
