<svg width="51" height="50" viewBox="0 0 51 50" fill="none" xmlns="http://www.w3.org/2000/svg">
<rect x="0.5" width="50" height="50" rx="25" fill="#40DDB6"/>
<path d="M38.267 17.2068C37.3092 17.6229 36.2958 17.8971 35.2589 18.0206C36.3487 17.3825 37.1682 16.3687 37.5638 15.1694C36.5335 15.7719 35.4081 16.1946 34.2359 16.4195C33.7423 15.9022 33.1487 15.4906 32.4911 15.2099C31.8335 14.9292 31.1257 14.7851 30.4107 14.7864C27.5158 14.7864 25.1731 17.0951 25.1731 19.941C25.171 20.3368 25.2164 20.7315 25.3082 21.1166C23.2323 21.0193 21.1997 20.4897 19.3402 19.5618C17.4808 18.6339 15.8355 17.3281 14.5096 15.7279C14.0444 16.5121 13.7984 17.4068 13.7973 18.3185C13.7973 20.1059 14.7298 21.6858 16.1379 22.6114C15.3036 22.5916 14.4865 22.3708 13.7558 21.9677V22.0316C13.7558 24.5317 15.5644 26.6117 17.9582 27.0851C17.5081 27.2051 17.0442 27.2659 16.5783 27.266C16.2478 27.2665 15.918 27.2345 15.5937 27.1702C16.2592 29.2182 18.196 30.7077 20.4903 30.7502C18.626 32.187 16.3372 32.9635 13.9835 32.9578C13.5657 32.9572 13.1483 32.9323 12.7334 32.8834C15.1278 34.4123 17.9111 35.221 20.752 35.2133C30.3995 35.2133 35.6701 27.3564 35.6701 20.5421C35.6701 20.3187 35.6642 20.0953 35.6536 19.8772C36.6766 19.1495 37.5616 18.2452 38.267 17.2068Z" fill="white"/>
</svg>
